<svg width="60" height="60" viewBox="0 0 60 60" fill="none" xmlns="http://www.w3.org/2000/svg">
<circle cx="30" cy="30" r="30" fill="#F3F3F3"/>
<path fill-rule="evenodd" clip-rule="evenodd" d="M24.2216 43.3333H35.7771C40.2975 43.3333 43.3333 40.1625 43.3333 35.4444V24.5556C43.3333 19.8375 40.2975 16.6667 35.7784 16.6667H24.2216C19.7025 16.6667 16.6667 19.8375 16.6667 24.5556V35.4444C16.6667 40.1625 19.7025 43.3333 24.2216 43.3333ZM25.3318 28.6667C23.4936 28.6667 22 27.171 22 25.3333C22 23.4956 23.4936 22 25.3318 22C27.1687 22 28.6636 23.4956 28.6636 25.3333C28.6636 27.171 27.1687 28.6667 25.3318 28.6667ZM40.4277 33.9119C40.8742 35.0567 40.6423 36.4327 40.165 37.5666C39.5991 38.915 38.5158 39.936 37.1509 40.3818C36.5449 40.58 35.9094 40.6667 35.2752 40.6667H24.0382C22.92 40.6667 21.9305 40.3983 21.1193 39.8989C20.6112 39.5851 20.5213 38.8614 20.8981 38.3921C21.5283 37.6078 22.1504 36.8208 22.7779 36.0268C23.9738 34.5077 24.7796 34.0674 25.6753 34.4541C26.0386 34.6137 26.4033 34.8531 26.7787 35.1063C27.7789 35.786 29.1693 36.7203 31.0008 35.7062C32.2541 35.0042 32.9811 33.8002 33.6141 32.7516L33.6247 32.7341C33.6695 32.6605 33.714 32.587 33.7583 32.5136L33.7583 32.5136C33.9711 32.1616 34.181 31.8143 34.4184 31.4943C34.7161 31.0939 35.8195 29.8418 37.2488 30.7334C38.1592 31.2948 38.9247 32.0543 39.7439 32.8675C40.0563 33.1785 40.2789 33.5322 40.4277 33.9119Z" fill="#ED521E"/>
</svg>
