<svg width="186" height="181" viewBox="0 0 186 181" fill="none" xmlns="http://www.w3.org/2000/svg">
<circle cx="95.5002" cy="91" r="70.5" fill="#F14825"/>
<circle cx="178.467" cy="28" r="7.5" fill="#F14825"/>
<circle cx="20.0334" cy="10.5" r="10" fill="#F14825"/>
<circle cx="10.0334" cy="133.5" r="5" fill="#F14825"/>
<circle cx="165.533" cy="161" r="2.5" fill="#F14825"/>
<path fill-rule="evenodd" clip-rule="evenodd" d="M93.1197 92.8905C102.926 102.694 105.151 91.3523 111.395 97.5918C117.414 103.61 120.874 104.815 113.247 112.44C112.292 113.208 106.222 122.444 84.8913 101.119C63.5577 79.7915 72.7889 73.7156 73.5568 72.7605C81.202 65.1149 82.3869 68.5947 88.4064 74.6126C94.6503 80.8547 83.3132 83.0867 93.1197 92.8905Z" fill="white"/>
<circle cx="106.533" cy="5" r="2.5" fill="#F14825"/>
<circle cx="62.5334" cy="177" r="3.5" fill="#F14825"/>
<circle cx="122.033" cy="171.5" r="1" fill="#F14825"/>
<circle cx="170.533" cy="111" r="2.5" fill="#F14825"/>
<circle cx="1.03345" cy="75.5" r="1" fill="#F14825"/>
</svg>
