<svg width="186" height="180" viewBox="0 0 186 180" fill="none" xmlns="http://www.w3.org/2000/svg">
<circle cx="95.5002" cy="90.5" r="70.5" fill="#F14825"/>
<circle cx="178.467" cy="27.5" r="7.5" fill="#F14825"/>
<circle cx="20.0334" cy="10" r="10" fill="#F14825"/>
<circle cx="10.0334" cy="133" r="5" fill="#F14825"/>
<circle cx="165.533" cy="160.5" r="2.5" fill="#F14825"/>
<path fill-rule="evenodd" clip-rule="evenodd" d="M84.8549 64.9147H106.169C114.502 64.9147 120.083 70.7655 120.083 79.468V99.5551C120.083 108.233 114.502 114.081 106.169 114.081H84.8549C76.5212 114.081 70.9162 108.233 70.9162 99.5551V79.468C70.9162 70.7655 76.5212 64.9147 84.8549 64.9147ZM102.899 96.873C103.735 96.0397 103.735 94.6876 102.899 93.8517L98.5233 89.4759L102.899 85.0976C103.735 84.2642 103.735 82.8876 102.899 82.0517C102.063 81.2135 100.711 81.2135 99.8508 82.0517L95.4995 86.4251L91.1237 82.0517C90.2633 81.2135 88.9112 81.2135 88.0754 82.0517C87.2395 82.8876 87.2395 84.2642 88.0754 85.0976L92.4512 89.4759L88.0754 93.8272C87.2395 94.6876 87.2395 96.0397 88.0754 96.873C88.4933 97.291 89.0587 97.5147 89.5995 97.5147C90.1649 97.5147 90.7058 97.291 91.1237 96.873L95.4995 92.5242L99.8754 96.873C100.293 97.318 100.834 97.5147 101.375 97.5147C101.94 97.5147 102.481 97.291 102.899 96.873Z" fill="white"/>
<circle cx="106.533" cy="4.5" r="2.5" fill="#F14825"/>
<circle cx="62.5334" cy="176.5" r="3.5" fill="#F14825"/>
<circle cx="122.033" cy="171" r="1" fill="#F14825"/>
<circle cx="170.533" cy="110.5" r="2.5" fill="#F14825"/>
<circle cx="1.03345" cy="75" r="1" fill="#F14825"/>
</svg>
