<svg width="194" height="195" viewBox="0 0 194 195" fill="none" xmlns="http://www.w3.org/2000/svg">
<path d="M24.25 24.75H48.5V49H24.25V24.75Z" fill="black"/>
<path d="M72.75 0.5V73.25H0V0.5H72.75ZM60.625 12.625H12.125V61.125H60.625V12.625ZM48.5 146H24.25V170.25H48.5V146Z" fill="black"/>
<path d="M72.75 121.75V194.5H0V121.75H72.75ZM12.125 133.875V182.375H60.625V133.875H12.125ZM145.5 24.75H169.75V49H145.5V24.75Z" fill="black"/>
<path d="M121.25 0.5V73.25H194V0.5H121.25ZM181.875 12.625V61.125H133.375V12.625H181.875ZM97 12.625V0.5H109.125V24.75H97V49H84.875V12.625H97ZM97 73.25V49H109.125V73.25H97ZM72.75 97.5V85.375H84.875V73.25H97V97.5H109.125V85.375H169.75V97.5H121.25V109.625H84.875V97.5H72.75ZM72.75 97.5V109.625H24.25V97.5H12.125V109.625H0V85.375H36.375V97.5H72.75ZM194 109.625H181.875V85.375H194V109.625ZM181.875 109.625H169.75V133.875H194V121.75H181.875V109.625ZM133.375 109.625H157.625V121.75H145.5V133.875H133.375V109.625ZM157.625 146V133.875H145.5V146H133.375V158.125H109.125V170.25H145.5V146H157.625ZM157.625 146H194V158.125H169.75V170.25H157.625V146ZM109.125 133.875V146H121.25V121.75H84.875V133.875H109.125Z" fill="black"/>
<path d="M84.875 146H97V182.375H145.5V194.5H84.875V146ZM194 170.25V194.5H157.625V182.375H181.875V170.25H194Z" fill="black"/>
</svg>
