<svg width="10" height="11" viewBox="0 0 10 11" fill="none" xmlns="http://www.w3.org/2000/svg">
<path d="M8.85891 6.4425C8.81182 6.49083 8.63403 6.6975 8.46842 6.8675C7.49748 7.93667 4.9646 9.68667 3.6389 10.2208C3.43757 10.3067 2.92856 10.4883 2.6566 10.5C2.39601 10.5 2.14759 10.44 1.91054 10.3183C1.61503 10.1483 1.37798 9.88083 1.24809 9.565C1.16447 9.34583 1.03458 8.69 1.03458 8.67833C0.904692 7.96083 0.833252 6.795 0.833252 5.50667C0.833252 4.27917 0.904692 3.16083 1.01104 2.4325C1.02322 2.42083 1.15311 1.60583 1.29518 1.32667C1.55577 0.816667 2.06478 0.5 2.60951 0.5H2.6566C3.01137 0.5125 3.75743 0.829167 3.75743 0.840833C5.01169 1.37583 7.48612 3.04 8.4806 4.14583C8.4806 4.14583 8.76068 4.43 8.88245 4.6075C9.07241 4.8625 9.16659 5.17833 9.16659 5.49417C9.16659 5.84667 9.06024 6.175 8.85891 6.4425Z" fill="#212121"/>
</svg>
