<svg width="250" height="250" viewBox="0 0 300 300" fill="none" xmlns="http://www.w3.org/2000/svg">
<g clip-path="url(#clip0_5_1481)">
<path d="M300 0H0V300H300V0Z" fill="white"/>
<path d="M29.25 18.75H18.75V29.25H29.25V18.75Z" fill="black"/>
<path d="M39.75 18.75H29.25V29.25H39.75V18.75Z" fill="black"/>
<path d="M50.25 18.75H39.75V29.25H50.25V18.75Z" fill="black"/>
<path d="M60.75 18.75H50.25V29.25H60.75V18.75Z" fill="black"/>
<path d="M71.25 18.75H60.75V29.25H71.25V18.75Z" fill="black"/>
<path d="M81.75 18.75H71.25V29.25H81.75V18.75Z" fill="black"/>
<path d="M92.25 18.75H81.75V29.25H92.25V18.75Z" fill="black"/>
<path d="M113.25 18.75H102.75V29.25H113.25V18.75Z" fill="black"/>
<path d="M144.75 18.75H134.25V29.25H144.75V18.75Z" fill="black"/>
<path d="M176.25 18.75H165.75V29.25H176.25V18.75Z" fill="black"/>
<path d="M197.25 18.75H186.75V29.25H197.25V18.75Z" fill="black"/>
<path d="M218.25 18.75H207.75V29.25H218.25V18.75Z" fill="black"/>
<path d="M228.75 18.75H218.25V29.25H228.75V18.75Z" fill="black"/>
<path d="M239.25 18.75H228.75V29.25H239.25V18.75Z" fill="black"/>
<path d="M249.75 18.75H239.25V29.25H249.75V18.75Z" fill="black"/>
<path d="M260.25 18.75H249.75V29.25H260.25V18.75Z" fill="black"/>
<path d="M270.75 18.75H260.25V29.25H270.75V18.75Z" fill="black"/>
<path d="M281.25 18.75H270.75V29.25H281.25V18.75Z" fill="black"/>
<path d="M29.25 29.25H18.75V39.75H29.25V29.25Z" fill="black"/>
<path d="M92.25 29.25H81.75L81.75 39.75H92.25V29.25Z" fill="black"/>
<path d="M123.75 29.25H113.25V39.75H123.75V29.25Z" fill="black"/>
<path d="M165.75 29.25H155.25V39.75H165.75V29.25Z" fill="black"/>
<path d="M186.75 29.25H176.25L176.25 39.75H186.75V29.25Z" fill="black"/>
<path d="M218.25 29.25H207.75V39.75H218.25V29.25Z" fill="black"/>
<path d="M281.25 29.25H270.75V39.75H281.25V29.25Z" fill="black"/>
<path d="M29.25 39.75H18.75V50.25H29.25V39.75Z" fill="black"/>
<path d="M50.25 39.75H39.75V50.25H50.25V39.75Z" fill="black"/>
<path d="M60.75 39.75H50.25V50.25H60.75V39.75Z" fill="black"/>
<path d="M71.25 39.75H60.75V50.25H71.25V39.75Z" fill="black"/>
<path d="M92.25 39.75H81.75V50.25H92.25V39.75Z" fill="black"/>
<path d="M113.25 39.75H102.75V50.25H113.25V39.75Z" fill="black"/>
<path d="M134.25 39.75H123.75V50.25H134.25V39.75Z" fill="black"/>
<path d="M155.25 39.75H144.75V50.25H155.25V39.75Z" fill="black"/>
<path d="M197.25 39.75H186.75V50.25H197.25V39.75Z" fill="black"/>
<path d="M218.25 39.75H207.75V50.25H218.25V39.75Z" fill="black"/>
<path d="M239.25 39.75H228.75V50.25H239.25V39.75Z" fill="black"/>
<path d="M249.75 39.75H239.25V50.25H249.75V39.75Z" fill="black"/>
<path d="M260.25 39.75H249.75V50.25H260.25V39.75Z" fill="black"/>
<path d="M281.25 39.75H270.75V50.25H281.25V39.75Z" fill="black"/>
<path d="M29.25 50.25H18.75V60.75H29.25V50.25Z" fill="black"/>
<path d="M50.25 50.25H39.75V60.75H50.25V50.25Z" fill="black"/>
<path d="M60.75 50.25H50.25V60.75H60.75V50.25Z" fill="black"/>
<path d="M71.25 50.25H60.75V60.75H71.25V50.25Z" fill="black"/>
<path d="M92.25 50.25H81.75V60.75H92.25V50.25Z" fill="black"/>
<path d="M134.25 50.25H123.75V60.75H134.25V50.25Z" fill="black"/>
<path d="M144.75 50.25H134.25V60.75H144.75V50.25Z" fill="black"/>
<path d="M155.25 50.25H144.75V60.75H155.25V50.25Z" fill="black"/>
<path d="M218.25 50.25H207.75V60.75H218.25V50.25Z" fill="black"/>
<path d="M239.25 50.25H228.75V60.75H239.25V50.25Z" fill="black"/>
<path d="M249.75 50.25H239.25V60.75H249.75V50.25Z" fill="black"/>
<path d="M260.25 50.25H249.75V60.75H260.25V50.25Z" fill="black"/>
<path d="M281.25 50.25H270.75V60.75H281.25V50.25Z" fill="black"/>
<path d="M29.25 60.75H18.75V71.25H29.25V60.75Z" fill="black"/>
<path d="M50.25 60.75H39.75V71.25H50.25V60.75Z" fill="black"/>
<path d="M60.75 60.75H50.25V71.25H60.75V60.75Z" fill="black"/>
<path d="M71.25 60.75H60.75V71.25H71.25V60.75Z" fill="black"/>
<path d="M92.25 60.75H81.75V71.25H92.25V60.75Z" fill="black"/>
<path d="M113.25 60.75H102.75V71.25H113.25V60.75Z" fill="black"/>
<path d="M155.25 60.75H144.75V71.25H155.25V60.75Z" fill="black"/>
<path d="M165.75 60.75H155.25V71.25H165.75V60.75Z" fill="black"/>
<path d="M176.25 60.75H165.75V71.25H176.25V60.75Z" fill="black"/>
<path d="M186.75 60.75H176.25V71.25H186.75V60.75Z" fill="black"/>
<path d="M197.25 60.75H186.75V71.25H197.25V60.75Z" fill="black"/>
<path d="M218.25 60.75H207.75V71.25H218.25V60.75Z" fill="black"/>
<path d="M239.25 60.75H228.75V71.25H239.25V60.75Z" fill="black"/>
<path d="M249.75 60.75H239.25V71.25H249.75V60.75Z" fill="black"/>
<path d="M260.25 60.75H249.75V71.25H260.25V60.75Z" fill="black"/>
<path d="M281.25 60.75H270.75V71.25H281.25V60.75Z" fill="black"/>
<path d="M29.25 71.25H18.75V81.75H29.25V71.25Z" fill="black"/>
<path d="M92.25 71.25H81.75V81.75H92.25V71.25Z" fill="black"/>
<path d="M123.75 71.25H113.25V81.75H123.75V71.25Z" fill="black"/>
<path d="M134.25 71.25H123.75V81.75H134.25V71.25Z" fill="black"/>
<path d="M144.75 71.25H134.25V81.75H144.75V71.25Z" fill="black"/>
<path d="M155.25 71.25H144.75V81.75H155.25V71.25Z" fill="black"/>
<path d="M165.75 71.25H155.25V81.75H165.75V71.25Z" fill="black"/>
<path d="M218.25 71.25H207.75V81.75H218.25V71.25Z" fill="black"/>
<path d="M281.25 71.25H270.75V81.75H281.25V71.25Z" fill="black"/>
<path d="M29.25 81.75H18.75V92.25H29.25V81.75Z" fill="black"/>
<path d="M39.75 81.75L29.25 81.75V92.25H39.75V81.75Z" fill="black"/>
<path d="M50.25 81.75H39.75V92.25H50.25V81.75Z" fill="black"/>
<path d="M60.75 81.75H50.25V92.25H60.75V81.75Z" fill="black"/>
<path d="M71.25 81.75H60.75V92.25H71.25V81.75Z" fill="black"/>
<path d="M81.75 81.75L71.25 81.75V92.25H81.75L81.75 81.75Z" fill="black"/>
<path d="M92.25 81.75H81.75L81.75 92.25H92.25V81.75Z" fill="black"/>
<path d="M113.25 81.75L102.75 81.75V92.25H113.25V81.75Z" fill="black"/>
<path d="M134.25 81.75H123.75V92.25H134.25V81.75Z" fill="black"/>
<path d="M155.25 81.75H144.75V92.25H155.25V81.75Z" fill="black"/>
<path d="M176.25 81.75L165.75 81.75V92.25H176.25V81.75Z" fill="black"/>
<path d="M197.25 81.75H186.75V92.25H197.25V81.75Z" fill="black"/>
<path d="M218.25 81.75H207.75V92.25H218.25V81.75Z" fill="black"/>
<path d="M228.75 81.75L218.25 81.75V92.25H228.75V81.75Z" fill="black"/>
<path d="M239.25 81.75H228.75V92.25H239.25V81.75Z" fill="black"/>
<path d="M249.75 81.75H239.25V92.25H249.75V81.75Z" fill="black"/>
<path d="M260.25 81.75H249.75V92.25H260.25V81.75Z" fill="black"/>
<path d="M270.75 81.75L260.25 81.75V92.25H270.75V81.75Z" fill="black"/>
<path d="M281.25 81.75H270.75V92.25H281.25V81.75Z" fill="black"/>
<path d="M134.25 92.25H123.75V102.75H134.25V92.25Z" fill="black"/>
<path d="M155.25 92.25H144.75V102.75H155.25V92.25Z" fill="black"/>
<path d="M165.75 92.25H155.25V102.75H165.75V92.25Z" fill="black"/>
<path d="M39.75 102.75H29.25V113.25H39.75V102.75Z" fill="black"/>
<path d="M71.25 102.75H60.75V113.25H71.25V102.75Z" fill="black"/>
<path d="M92.25 102.75H81.75V113.25H92.25V102.75Z" fill="black"/>
<path d="M123.75 102.75H113.25V113.25H123.75V102.75Z" fill="black"/>
<path d="M144.75 102.75H134.25V113.25H144.75V102.75Z" fill="black"/>
<path d="M165.75 102.75H155.25V113.25H165.75V102.75Z" fill="black"/>
<path d="M197.25 102.75H186.75V113.25H197.25V102.75Z" fill="black"/>
<path d="M207.75 102.75H197.25V113.25H207.75V102.75Z" fill="black"/>
<path d="M239.25 102.75H228.75V113.25H239.25V102.75Z" fill="black"/>
<path d="M260.25 102.75H249.75V113.25H260.25V102.75Z" fill="black"/>
<path d="M281.25 102.75H270.75V113.25H281.25V102.75Z" fill="black"/>
<path d="M39.75 113.25H29.25V123.75H39.75V113.25Z" fill="black"/>
<path d="M50.25 113.25H39.75V123.75H50.25V113.25Z" fill="black"/>
<path d="M81.75 113.25H71.25V123.75H81.75L81.75 113.25Z" fill="black"/>
<path d="M102.75 113.25H92.25V123.75H102.75V113.25Z" fill="black"/>
<path d="M123.75 113.25H113.25V123.75H123.75V113.25Z" fill="black"/>
<path d="M134.25 113.25H123.75V123.75H134.25V113.25Z" fill="black"/>
<path d="M144.75 113.25H134.25V123.75H144.75V113.25Z" fill="black"/>
<path d="M155.25 113.25H144.75V123.75H155.25V113.25Z" fill="black"/>
<path d="M186.75 113.25H176.25V123.75H186.75V113.25Z" fill="black"/>
<path d="M207.75 113.25H197.25V123.75H207.75V113.25Z" fill="black"/>
<path d="M218.25 113.25H207.75V123.75H218.25V113.25Z" fill="black"/>
<path d="M228.75 113.25H218.25V123.75H228.75V113.25Z" fill="black"/>
<path d="M260.25 113.25H249.75V123.75H260.25V113.25Z" fill="black"/>
<path d="M71.25 123.75H60.75V134.25H71.25V123.75Z" fill="black"/>
<path d="M92.25 123.75H81.75L81.75 134.25H92.25V123.75Z" fill="black"/>
<path d="M102.75 123.75H92.25V134.25H102.75V123.75Z" fill="black"/>
<path d="M123.75 123.75H113.25V134.25H123.75V123.75Z" fill="black"/>
<path d="M165.75 123.75H155.25V134.25H165.75V123.75Z" fill="black"/>
<path d="M176.25 123.75H165.75V134.25H176.25L176.25 123.75Z" fill="black"/>
<path d="M186.75 123.75H176.25L176.25 134.25H186.75V123.75Z" fill="black"/>
<path d="M197.25 123.75H186.75V134.25H197.25V123.75Z" fill="black"/>
<path d="M239.25 123.75H228.75V134.25H239.25V123.75Z" fill="black"/>
<path d="M249.75 123.75H239.25V134.25H249.75V123.75Z" fill="black"/>
<path d="M270.75 123.75H260.25V134.25H270.75V123.75Z" fill="black"/>
<path d="M281.25 123.75H270.75V134.25H281.25V123.75Z" fill="black"/>
<path d="M50.25 134.25H39.75V144.75H50.25V134.25Z" fill="black"/>
<path d="M60.75 134.25H50.25V144.75H60.75V134.25Z" fill="black"/>
<path d="M71.25 134.25H60.75V144.75H71.25V134.25Z" fill="black"/>
<path d="M102.75 134.25H92.25V144.75H102.75V134.25Z" fill="black"/>
<path d="M144.75 134.25H134.25V144.75H144.75V134.25Z" fill="black"/>
<path d="M165.75 134.25H155.25V144.75H165.75V134.25Z" fill="black"/>
<path d="M186.75 134.25H176.25L176.25 144.75H186.75V134.25Z" fill="black"/>
<path d="M207.75 134.25H197.25V144.75H207.75V134.25Z" fill="black"/>
<path d="M218.25 134.25H207.75V144.75H218.25V134.25Z" fill="black"/>
<path d="M239.25 134.25H228.75V144.75H239.25V134.25Z" fill="black"/>
<path d="M249.75 134.25H239.25V144.75H249.75V134.25Z" fill="black"/>
<path d="M270.75 134.25H260.25V144.75H270.75V134.25Z" fill="black"/>
<path d="M29.25 144.75H18.75V155.25H29.25V144.75Z" fill="black"/>
<path d="M39.75 144.75H29.25V155.25H39.75V144.75Z" fill="black"/>
<path d="M50.25 144.75H39.75V155.25H50.25V144.75Z" fill="black"/>
<path d="M81.75 144.75H71.25V155.25H81.75V144.75Z" fill="black"/>
<path d="M92.25 144.75H81.75V155.25H92.25V144.75Z" fill="black"/>
<path d="M113.25 144.75H102.75V155.25H113.25V144.75Z" fill="black"/>
<path d="M123.75 144.75H113.25V155.25H123.75V144.75Z" fill="black"/>
<path d="M144.75 144.75H134.25V155.25H144.75V144.75Z" fill="black"/>
<path d="M197.25 144.75H186.75V155.25H197.25V144.75Z" fill="black"/>
<path d="M207.75 144.75H197.25V155.25H207.75V144.75Z" fill="black"/>
<path d="M218.25 144.75H207.75V155.25H218.25V144.75Z" fill="black"/>
<path d="M228.75 144.75H218.25V155.25H228.75V144.75Z" fill="black"/>
<path d="M281.25 144.75H270.75V155.25H281.25V144.75Z" fill="black"/>
<path d="M39.75 155.25H29.25V165.75H39.75V155.25Z" fill="black"/>
<path d="M60.75 155.25H50.25V165.75H60.75V155.25Z" fill="black"/>
<path d="M71.25 155.25H60.75V165.75H71.25V155.25Z" fill="black"/>
<path d="M123.75 155.25H113.25V165.75H123.75V155.25Z" fill="black"/>
<path d="M144.75 155.25H134.25V165.75H144.75V155.25Z" fill="black"/>
<path d="M176.25 155.25H165.75V165.75H176.25V155.25Z" fill="black"/>
<path d="M207.75 155.25H197.25V165.75H207.75V155.25Z" fill="black"/>
<path d="M228.75 155.25H218.25V165.75H228.75V155.25Z" fill="black"/>
<path d="M260.25 155.25H249.75V165.75H260.25V155.25Z" fill="black"/>
<path d="M29.25 165.75H18.75V176.25H29.25V165.75Z" fill="black"/>
<path d="M81.75 165.75H71.25V176.25H81.75V165.75Z" fill="black"/>
<path d="M92.25 165.75H81.75V176.25H92.25V165.75Z" fill="black"/>
<path d="M134.25 165.75H123.75V176.25H134.25V165.75Z" fill="black"/>
<path d="M144.75 165.75H134.25V176.25H144.75V165.75Z" fill="black"/>
<path d="M155.25 165.75H144.75V176.25H155.25V165.75Z" fill="black"/>
<path d="M165.75 165.75H155.25V176.25H165.75V165.75Z" fill="black"/>
<path d="M218.25 165.75H207.75V176.25H218.25V165.75Z" fill="black"/>
<path d="M228.75 165.75H218.25V176.25H228.75V165.75Z" fill="black"/>
<path d="M239.25 165.75H228.75V176.25H239.25V165.75Z" fill="black"/>
<path d="M249.75 165.75H239.25V176.25H249.75V165.75Z" fill="black"/>
<path d="M50.25 176.25H39.75V186.75H50.25V176.25Z" fill="black"/>
<path d="M81.75 176.25H71.25V186.75H81.75V176.25Z" fill="black"/>
<path d="M102.75 176.25L92.25 176.25V186.75H102.75V176.25Z" fill="black"/>
<path d="M123.75 176.25L113.25 176.25V186.75H123.75V176.25Z" fill="black"/>
<path d="M134.25 176.25H123.75V186.75H134.25V176.25Z" fill="black"/>
<path d="M155.25 176.25H144.75V186.75H155.25V176.25Z" fill="black"/>
<path d="M165.75 176.25H155.25V186.75H165.75V176.25Z" fill="black"/>
<path d="M186.75 176.25H176.25V186.75H186.75V176.25Z" fill="black"/>
<path d="M197.25 176.25H186.75V186.75H197.25V176.25Z" fill="black"/>
<path d="M218.25 176.25H207.75V186.75H218.25V176.25Z" fill="black"/>
<path d="M260.25 176.25L249.75 176.25V186.75H260.25V176.25Z" fill="black"/>
<path d="M270.75 176.25H260.25V186.75H270.75V176.25Z" fill="black"/>
<path d="M281.25 176.25H270.75V186.75H281.25V176.25Z" fill="black"/>
<path d="M60.75 186.75H50.25V197.25H60.75V186.75Z" fill="black"/>
<path d="M71.25 186.75H60.75V197.25H71.25V186.75Z" fill="black"/>
<path d="M81.75 186.75H71.25V197.25H81.75V186.75Z" fill="black"/>
<path d="M92.25 186.75H81.75V197.25H92.25V186.75Z" fill="black"/>
<path d="M113.25 186.75H102.75V197.25H113.25V186.75Z" fill="black"/>
<path d="M123.75 186.75H113.25V197.25H123.75V186.75Z" fill="black"/>
<path d="M134.25 186.75H123.75V197.25H134.25V186.75Z" fill="black"/>
<path d="M144.75 186.75H134.25V197.25H144.75V186.75Z" fill="black"/>
<path d="M155.25 186.75H144.75V197.25H155.25V186.75Z" fill="black"/>
<path d="M197.25 186.75H186.75V197.25H197.25V186.75Z" fill="black"/>
<path d="M207.75 186.75H197.25V197.25H207.75V186.75Z" fill="black"/>
<path d="M218.25 186.75H207.75V197.25H218.25V186.75Z" fill="black"/>
<path d="M228.75 186.75H218.25V197.25H228.75V186.75Z" fill="black"/>
<path d="M239.25 186.75H228.75V197.25H239.25V186.75Z" fill="black"/>
<path d="M260.25 186.75H249.75V197.25H260.25V186.75Z" fill="black"/>
<path d="M270.75 186.75H260.25V197.25H270.75V186.75Z" fill="black"/>
<path d="M281.25 186.75H270.75V197.25H281.25V186.75Z" fill="black"/>
<path d="M123.75 197.25H113.25V207.75H123.75V197.25Z" fill="black"/>
<path d="M134.25 197.25H123.75V207.75H134.25V197.25Z" fill="black"/>
<path d="M144.75 197.25H134.25V207.75H144.75V197.25Z" fill="black"/>
<path d="M155.25 197.25H144.75V207.75H155.25V197.25Z" fill="black"/>
<path d="M197.25 197.25H186.75V207.75H197.25V197.25Z" fill="black"/>
<path d="M239.25 197.25H228.75V207.75H239.25V197.25Z" fill="black"/>
<path d="M29.25 207.75H18.75V218.25H29.25V207.75Z" fill="black"/>
<path d="M39.75 207.75H29.25V218.25H39.75V207.75Z" fill="black"/>
<path d="M50.25 207.75H39.75V218.25H50.25V207.75Z" fill="black"/>
<path d="M60.75 207.75H50.25V218.25H60.75V207.75Z" fill="black"/>
<path d="M71.25 207.75H60.75V218.25H71.25V207.75Z" fill="black"/>
<path d="M81.75 207.75H71.25V218.25H81.75V207.75Z" fill="black"/>
<path d="M92.25 207.75H81.75V218.25H92.25V207.75Z" fill="black"/>
<path d="M123.75 207.75H113.25V218.25H123.75V207.75Z" fill="black"/>
<path d="M144.75 207.75H134.25V218.25H144.75V207.75Z" fill="black"/>
<path d="M155.25 207.75H144.75V218.25H155.25V207.75Z" fill="black"/>
<path d="M165.75 207.75H155.25V218.25H165.75V207.75Z" fill="black"/>
<path d="M176.25 207.75H165.75V218.25H176.25V207.75Z" fill="black"/>
<path d="M186.75 207.75H176.25V218.25H186.75V207.75Z" fill="black"/>
<path d="M197.25 207.75H186.75V218.25H197.25V207.75Z" fill="black"/>
<path d="M218.25 207.75H207.75V218.25H218.25V207.75Z" fill="black"/>
<path d="M239.25 207.75H228.75V218.25H239.25V207.75Z" fill="black"/>
<path d="M270.75 207.75H260.25V218.25H270.75V207.75Z" fill="black"/>
<path d="M281.25 207.75H270.75V218.25H281.25V207.75Z" fill="black"/>
<path d="M29.25 218.25H18.75V228.75H29.25V218.25Z" fill="black"/>
<path d="M92.25 218.25H81.75L81.75 228.75H92.25V218.25Z" fill="black"/>
<path d="M134.25 218.25H123.75V228.75H134.25V218.25Z" fill="black"/>
<path d="M144.75 218.25H134.25V228.75H144.75V218.25Z" fill="black"/>
<path d="M176.25 218.25H165.75V228.75H176.25V218.25Z" fill="black"/>
<path d="M186.75 218.25H176.25V228.75H186.75V218.25Z" fill="black"/>
<path d="M197.25 218.25H186.75V228.75H197.25V218.25Z" fill="black"/>
<path d="M239.25 218.25H228.75V228.75H239.25V218.25Z" fill="black"/>
<path d="M249.75 218.25H239.25V228.75H249.75V218.25Z" fill="black"/>
<path d="M260.25 218.25H249.75V228.75H260.25V218.25Z" fill="black"/>
<path d="M270.75 218.25H260.25V228.75H270.75V218.25Z" fill="black"/>
<path d="M29.25 228.75H18.75V239.25H29.25V228.75Z" fill="black"/>
<path d="M50.25 228.75H39.75V239.25H50.25V228.75Z" fill="black"/>
<path d="M60.75 228.75H50.25V239.25H60.75V228.75Z" fill="black"/>
<path d="M71.25 228.75H60.75V239.25H71.25V228.75Z" fill="black"/>
<path d="M92.25 228.75H81.75V239.25H92.25V228.75Z" fill="black"/>
<path d="M113.25 228.75H102.75V239.25H113.25V228.75Z" fill="black"/>
<path d="M134.25 228.75H123.75V239.25H134.25V228.75Z" fill="black"/>
<path d="M144.75 228.75H134.25V239.25H144.75V228.75Z" fill="black"/>
<path d="M176.25 228.75H165.75V239.25H176.25V228.75Z" fill="black"/>
<path d="M197.25 228.75H186.75V239.25H197.25V228.75Z" fill="black"/>
<path d="M207.75 228.75H197.25V239.25H207.75V228.75Z" fill="black"/>
<path d="M218.25 228.75H207.75V239.25H218.25V228.75Z" fill="black"/>
<path d="M228.75 228.75H218.25V239.25H228.75V228.75Z" fill="black"/>
<path d="M239.25 228.75H228.75V239.25H239.25V228.75Z" fill="black"/>
<path d="M260.25 228.75H249.75V239.25H260.25V228.75Z" fill="black"/>
<path d="M281.25 228.75H270.75V239.25H281.25V228.75Z" fill="black"/>
<path d="M29.25 239.25H18.75V249.75H29.25V239.25Z" fill="black"/>
<path d="M50.25 239.25H39.75V249.75H50.25V239.25Z" fill="black"/>
<path d="M60.75 239.25H50.25V249.75H60.75V239.25Z" fill="black"/>
<path d="M71.25 239.25H60.75V249.75H71.25V239.25Z" fill="black"/>
<path d="M92.25 239.25H81.75V249.75H92.25V239.25Z" fill="black"/>
<path d="M155.25 239.25H144.75V249.75H155.25V239.25Z" fill="black"/>
<path d="M165.75 239.25H155.25V249.75H165.75V239.25Z" fill="black"/>
<path d="M218.25 239.25H207.75V249.75H218.25V239.25Z" fill="black"/>
<path d="M239.25 239.25H228.75V249.75H239.25V239.25Z" fill="black"/>
<path d="M260.25 239.25H249.75V249.75H260.25V239.25Z" fill="black"/>
<path d="M270.75 239.25H260.25V249.75H270.75V239.25Z" fill="black"/>
<path d="M29.25 249.75H18.75V260.25H29.25V249.75Z" fill="black"/>
<path d="M50.25 249.75H39.75V260.25H50.25V249.75Z" fill="black"/>
<path d="M60.75 249.75H50.25V260.25H60.75V249.75Z" fill="black"/>
<path d="M71.25 249.75H60.75V260.25H71.25V249.75Z" fill="black"/>
<path d="M92.25 249.75H81.75V260.25H92.25V249.75Z" fill="black"/>
<path d="M134.25 249.75H123.75V260.25H134.25V249.75Z" fill="black"/>
<path d="M218.25 249.75H207.75V260.25H218.25V249.75Z" fill="black"/>
<path d="M29.25 260.25H18.75V270.75H29.25V260.25Z" fill="black"/>
<path d="M92.25 260.25H81.75V270.75H92.25V260.25Z" fill="black"/>
<path d="M113.25 260.25H102.75V270.75H113.25V260.25Z" fill="black"/>
<path d="M123.75 260.25H113.25V270.75H123.75V260.25Z" fill="black"/>
<path d="M134.25 260.25H123.75V270.75H134.25V260.25Z" fill="black"/>
<path d="M144.75 260.25H134.25V270.75H144.75V260.25Z" fill="black"/>
<path d="M155.25 260.25H144.75V270.75H155.25V260.25Z" fill="black"/>
<path d="M165.75 260.25H155.25V270.75H165.75V260.25Z" fill="black"/>
<path d="M176.25 260.25H165.75V270.75H176.25V260.25Z" fill="black"/>
<path d="M207.75 260.25H197.25V270.75H207.75V260.25Z" fill="black"/>
<path d="M218.25 260.25H207.75V270.75H218.25V260.25Z" fill="black"/>
<path d="M228.75 260.25H218.25V270.75H228.75V260.25Z" fill="black"/>
<path d="M239.25 260.25H228.75V270.75H239.25V260.25Z" fill="black"/>
<path d="M249.75 260.25H239.25V270.75H249.75V260.25Z" fill="black"/>
<path d="M270.75 260.25H260.25V270.75H270.75V260.25Z" fill="black"/>
<path d="M281.25 260.25H270.75V270.75H281.25V260.25Z" fill="black"/>
<path d="M29.25 270.75H18.75V281.25H29.25V270.75Z" fill="black"/>
<path d="M39.75 270.75H29.25V281.25H39.75V270.75Z" fill="black"/>
<path d="M50.25 270.75H39.75V281.25H50.25V270.75Z" fill="black"/>
<path d="M60.75 270.75H50.25V281.25H60.75V270.75Z" fill="black"/>
<path d="M71.25 270.75H60.75V281.25H71.25V270.75Z" fill="black"/>
<path d="M81.75 270.75H71.25V281.25H81.75L81.75 270.75Z" fill="black"/>
<path d="M92.25 270.75H81.75L81.75 281.25H92.25V270.75Z" fill="black"/>
<path d="M123.75 270.75H113.25V281.25H123.75V270.75Z" fill="black"/>
<path d="M134.25 270.75H123.75V281.25H134.25V270.75Z" fill="black"/>
<path d="M144.75 270.75H134.25V281.25H144.75V270.75Z" fill="black"/>
<path d="M165.75 270.75H155.25V281.25H165.75V270.75Z" fill="black"/>
<path d="M176.25 270.75H165.75V281.25H176.25V270.75Z" fill="black"/>
<path d="M197.25 270.75H186.75V281.25H197.25V270.75Z" fill="black"/>
<path d="M218.25 270.75H207.75V281.25H218.25V270.75Z" fill="black"/>
<path d="M228.75 270.75H218.25V281.25H228.75V270.75Z" fill="black"/>
<path d="M260.25 270.75H249.75V281.25H260.25V270.75Z" fill="black"/>
<path d="M281.25 270.75H270.75V281.25H281.25V270.75Z" fill="black"/>
</g>
<defs>
<clipPath id="clip0_5_1481">
<rect width="300" height="300" rx="20" fill="white"/>
</clipPath>
</defs>
</svg>
