<svg width="56" height="56" viewBox="0 0 56 56" fill="none" xmlns="http://www.w3.org/2000/svg">
<rect width="56" height="56" rx="16" fill="#F14825" fill-opacity="0.08"/>
<path fill-rule="evenodd" clip-rule="evenodd" d="M23.67 17.9992H32.34C35.73 17.9992 38 20.3792 38 23.9192V32.0902C38 35.6202 35.73 37.9992 32.34 37.9992H23.67C20.28 37.9992 18 35.6202 18 32.0902V23.9192C18 20.3792 20.28 17.9992 23.67 17.9992ZM31.01 30.9992C31.35 30.6602 31.35 30.1102 31.01 29.7702L29.23 27.9902L31.01 26.2092C31.35 25.8702 31.35 25.3102 31.01 24.9702C30.67 24.6292 30.12 24.6292 29.77 24.9702L28 26.7492L26.22 24.9702C25.87 24.6292 25.32 24.6292 24.98 24.9702C24.64 25.3102 24.64 25.8702 24.98 26.2092L26.76 27.9902L24.98 29.7602C24.64 30.1102 24.64 30.6602 24.98 30.9992C25.15 31.1692 25.38 31.2602 25.6 31.2602C25.83 31.2602 26.05 31.1692 26.22 30.9992L28 29.2302L29.78 30.9992C29.95 31.1802 30.17 31.2602 30.39 31.2602C30.62 31.2602 30.84 31.1692 31.01 30.9992Z" fill="#F14825"/>
</svg>
