<svg width="380" height="156" viewBox="0 0 380 156" fill="none" xmlns="http://www.w3.org/2000/svg">
<g filter="url(#filter0_d_10_1945)">
<g clip-path="url(#clip0_10_1945)">
<rect width="380" height="156" rx="16" fill="url(#paint0_linear_10_1945)"/>
<g opacity="0.5">
<g opacity="0.25">
<path d="M151.45 164.248C151.215 164.046 150.981 163.833 150.746 163.631C150.707 163.372 150.746 163.081 150.629 162.856C149.092 159.926 149.04 157.153 152.192 155.02C154.758 153.279 157.65 153.268 160.242 154.997C163.421 157.119 163.369 159.892 161.871 162.822C161.753 163.058 161.779 163.339 161.74 163.597C161.493 163.821 161.245 164.035 160.998 164.259C157.806 165.371 154.628 165.337 151.45 164.248Z" fill="white"/>
<path d="M182.96 159.51C182.947 162.486 179.782 165.101 176.343 164.967C173.06 164.832 170.233 162.283 170.246 159.465C170.259 156.49 173.438 153.874 176.864 154.009C180.146 154.144 182.973 156.704 182.96 159.51Z" fill="white"/>
<path d="M135.883 154.043C139.309 154.054 142.331 156.782 142.175 159.713C142.019 162.519 139.075 164.956 135.831 164.933C132.406 164.922 129.383 162.194 129.54 159.263C129.696 156.457 132.653 154.032 135.883 154.043Z" fill="white"/>
<path d="M151.932 150.585C151.554 153.886 149.639 155.738 145.966 155.682C142.305 155.626 140.221 153.773 140.26 150.63C140.312 147.475 142.461 145.69 146.122 145.712C149.847 145.735 151.593 147.711 151.932 150.585Z" fill="white"/>
<path d="M172.318 150.765C171.979 153.852 170.09 155.626 166.456 155.738C162.991 155.839 160.308 153.437 160.581 150.45C160.881 147.341 163.004 145.623 166.599 145.701C170.247 145.78 172.057 147.7 172.318 150.765Z" fill="white"/>
<path d="M156.152 137.315C159.292 137.629 161.415 139.077 161.48 141.851C161.532 144.612 159.526 146.397 156.335 146.454C153.13 146.51 151.059 144.77 150.981 142.019C150.903 139.246 152.987 137.741 156.152 137.315Z" fill="white"/>
<path d="M130.999 150.641C130.647 153.325 128.98 155.155 125.788 155.211C122.597 155.267 120.526 153.538 120.46 150.81C120.382 148.07 122.388 146.285 125.567 146.207C128.758 146.139 130.504 147.913 130.999 150.641Z" fill="white"/>
<path d="M186.712 146.061C189.864 146.386 192.013 147.835 192.078 150.608C192.144 153.381 190.111 155.188 186.907 155.244C183.689 155.312 181.605 153.549 181.514 150.798C181.436 148.014 183.533 146.51 186.712 146.061Z" fill="white"/>
<path d="M197.055 164.136C193.902 163.81 191.766 162.351 191.701 159.578C191.649 156.805 193.681 155.008 196.872 154.941C200.09 154.885 202.174 156.636 202.252 159.398C202.33 162.182 200.233 163.698 197.055 164.136Z" fill="white"/>
<path d="M120.825 159.353C120.461 162.104 118.793 163.934 115.602 163.99C112.41 164.046 110.339 162.317 110.274 159.589C110.196 156.839 112.215 155.065 115.38 154.997C118.585 154.919 120.304 156.715 120.825 159.353Z" fill="white"/>
<path d="M176.603 137.73C179.691 137.932 181.488 139.324 181.41 142.03C181.345 144.747 179.482 146.162 176.382 146.083C173.49 146.004 171.836 144.534 171.797 142.041C171.745 139.324 173.516 137.932 176.603 137.73Z" fill="white"/>
<path d="M140.703 142.097C140.351 144.747 138.645 146.195 135.545 146.049C132.405 145.892 130.868 144.208 131.077 141.57C131.272 139.089 133.057 137.753 135.935 137.797C139.088 137.854 140.56 139.459 140.703 142.097Z" fill="white"/>
<path d="M166.286 129.433C168.657 129.568 170.389 130.623 170.624 132.757C170.884 135.103 169.308 136.652 166.638 136.776C163.941 136.899 162.222 135.462 162.183 133.127C162.157 131.005 163.746 129.781 166.286 129.433Z" fill="white"/>
<path d="M150.355 133.082C150.16 135.148 148.883 136.619 146.421 136.787C143.712 136.967 141.927 135.586 141.823 133.273C141.732 130.949 143.425 129.49 146.135 129.501C148.61 129.512 149.99 130.904 150.355 133.082Z" fill="white"/>
<path d="M196.611 138.572C199.347 138.684 200.832 139.751 200.806 141.985C200.78 143.995 199.464 145.173 197.132 145.218C194.579 145.275 193.16 144.073 193.146 141.862C193.146 139.818 194.579 138.841 196.611 138.572Z" fill="white"/>
<path d="M206.824 147.329C209.546 147.441 211.044 148.519 211.018 150.765C210.992 152.785 209.676 153.976 207.319 154.02C204.752 154.077 203.307 152.864 203.307 150.641C203.307 148.587 204.74 147.587 206.824 147.329Z" fill="white"/>
<path d="M119.314 142.008C119.08 143.995 117.881 145.196 115.524 145.185C112.931 145.174 111.577 143.86 111.733 141.671C111.876 139.661 113.361 138.595 115.693 138.684C118.038 138.763 119.171 140.009 119.314 142.008Z" fill="white"/>
<path d="M190.424 133.037C190.229 134.856 189.121 136.113 187.024 136.203C184.679 136.304 183.207 135.08 183.233 133.06C183.26 131.241 184.653 130.096 186.764 130.084C188.913 130.062 190.059 131.263 190.424 133.037Z" fill="white"/>
<path d="M129.279 133.161C128.967 134.935 127.859 136.17 125.762 136.181C123.457 136.192 122.011 134.924 122.154 132.936C122.271 131.174 123.691 130.029 125.801 130.107C127.899 130.175 128.993 131.387 129.279 133.161Z" fill="white"/>
<path d="M105.441 154.032C102.888 153.796 101.494 152.752 101.52 150.72C101.546 148.486 103.084 147.329 105.624 147.464C107.955 147.599 109.167 148.878 109.076 150.888C108.971 152.954 107.434 153.841 105.441 154.032Z" fill="white"/>
<path d="M138.593 124.381C138.385 125.729 137.538 126.649 135.949 126.66C134.125 126.672 133.057 125.695 133.2 124.134C133.318 122.798 134.399 121.968 136.001 122.046C137.59 122.136 138.411 123.034 138.593 124.381Z" fill="white"/>
<path d="M159.292 124.37C159.031 126.267 157.807 127.121 155.84 126.952C154.055 126.795 153.104 125.762 153.222 124.224C153.352 122.439 154.654 121.619 156.634 121.777C158.432 121.923 159.24 122.989 159.292 124.37Z" fill="white"/>
<path d="M179.403 124.28C179.078 125.964 178.062 126.862 176.277 126.694C174.753 126.548 173.789 125.65 173.893 124.28C174.011 122.731 175.157 121.889 176.929 122.035C178.505 122.158 179.208 123.158 179.403 124.28Z" fill="white"/>
</g>
<g opacity="0.25">
<path d="M-14.2216 116.905C-17.2046 118.622 -20.2528 118.959 -23.2097 116.983C-26.1537 115.018 -26.4272 112.346 -25.2939 109.057C-29.1497 109.775 -32.6277 109.753 -34.9203 106.789C-36.8742 104.252 -36.4053 101.759 -34.4774 99.368C-34.243 99.1659 -33.9954 98.9638 -33.7609 98.7617C-32.3801 97.9085 -30.778 97.0777 -29.1758 97.3584C-26.2449 97.8636 -26.7789 96.696 -26.6226 94.9109C-26.4012 92.4522 -26.7138 91.4418 -29.9052 91.8347C-31.0646 91.9807 -32.4062 91.0824 -33.6697 90.667C-34.0084 90.3751 -34.3471 90.0833 -34.6858 89.7914C-36.3792 87.3439 -36.9003 84.8403 -34.8421 82.3703C-32.5625 79.6197 -29.332 79.3839 -25.3721 80.3046C-26.3751 76.9365 -26.2318 73.9838 -22.7929 72.0303C-19.862 70.3575 -16.9702 70.7841 -14.2087 72.4344C-13.9742 72.6365 -13.7397 72.8499 -13.5052 73.0519C-12.9451 74.242 -11.7207 75.5331 -11.9291 76.6221C-12.5023 79.5411 -10.887 79.0135 -8.54224 79.1819C-5.71556 79.3839 -5.48112 78.7215 -5.55928 76.6446C-5.59836 75.4657 -4.53016 74.2644 -3.957 73.0744C-3.7095 72.8498 -3.46208 72.6365 -3.21458 72.412C-0.257637 70.6157 2.79051 70.3125 5.76048 72.266C8.71742 74.2083 9.06918 76.8691 7.92287 80.1362C11.6874 79.5748 15.2045 79.4401 17.4971 82.4265C19.451 84.9638 19.0081 87.4449 17.1454 89.87C16.8588 90.117 16.5722 90.3527 16.2857 90.5997C14.8788 91.0712 13.4068 92.048 12.0912 91.9133C9.22543 91.6326 9.25153 92.5083 9.2906 94.6077C9.32968 96.6398 9.18635 97.6166 12.0912 97.3359C13.4199 97.2124 14.8788 98.1891 16.2857 98.6607C16.5722 98.9077 16.8718 99.1547 17.1584 99.4129C19.1384 101.961 19.5292 104.589 17.2496 107.126C14.9961 109.641 11.9479 110.045 8.13125 108.967C8.91283 112.358 8.78258 115.456 5.13525 117.41C2.34764 118.903 -0.426929 118.499 -3.08427 117.028C-3.449 116.714 -3.80073 116.411 -4.16547 116.096C-5.57229 114.3 -5.93702 112.301 -5.54624 110.213C-9.54528 109.82 -12.867 109.921 -12.4631 114.491C-12.411 115.041 -13.1144 115.636 -13.4791 116.208C-13.7006 116.444 -13.9611 116.68 -14.2216 116.905ZM4.93982 106.385C2.64722 105.184 7.46692 101.411 2.34763 101.4C-0.270638 101.389 -0.869869 102.164 -0.856842 104.241C-0.817764 108.608 3.49392 104.476 4.93982 106.385ZM-22.2197 106.441C-20.8129 104.779 -15.6936 108.709 -16.5794 103.331C-17.2828 99.0536 -20.4482 102.422 -22.1807 101.322C-21.4773 103.095 -22.2328 104.589 -22.2197 106.441ZM5.10917 82.9654C-0.948006 83.5042 -0.804695 83.5267 -0.974033 84.7392C-1.57324 88.9494 2.11319 87.5123 4.99198 88.1747C4.13225 86.2212 4.79654 84.6269 5.10917 82.9654ZM-22.2718 82.7408C-21.9331 84.6382 -21.7248 86.2773 -22.0634 88.1073C-20.3961 86.8162 -17.0484 90.0047 -16.4752 85.7609C-15.7848 80.5179 -20.9171 84.6831 -22.2718 82.7408ZM-11.0303 94.3158C-10.9261 95.4385 -11.903 97.0215 -9.25867 96.5837C-7.91697 96.3592 -6.1845 97.1787 -6.41897 94.7762C-6.57528 93.1483 -6.66645 92.5083 -8.84182 92.6318C-10.4701 92.7104 -11.6425 92.5756 -11.0303 94.3158Z" fill="white"/>
<path d="M17.1844 99.4132C16.8979 99.1662 16.5983 98.9192 16.3117 98.6609C14.97 95.9777 14.9961 93.2832 16.3117 90.6C16.5983 90.353 16.8848 90.1173 17.1714 89.8703C18.1874 89.6008 19.1775 89.264 20.2196 89.0844C23.1635 88.6016 25.7035 89.2191 27.3969 91.4757C28.947 93.5415 28.9471 95.7083 27.41 97.774C25.7296 100.042 23.1895 100.659 20.2456 100.177C19.1904 100.019 18.2005 99.6827 17.1844 99.4132Z" fill="white"/>
<path d="M28.2309 112.1C28.309 115.075 25.1958 117.758 21.7438 117.702C18.4743 117.646 15.5434 115.131 15.4783 112.313C15.4001 109.327 18.5003 106.655 21.9653 106.722C25.2348 106.767 28.1527 109.27 28.2309 112.1Z" fill="white"/>
<path d="M21.4965 82.5615C18.0446 82.3706 15.1788 79.5077 15.5175 76.5887C15.8562 73.7595 18.9694 71.4355 22.1999 71.6152C25.6519 71.806 28.5307 74.6689 28.179 77.5879C27.8403 80.4171 24.727 82.7299 21.4965 82.5615Z" fill="white"/>
<path d="M18.0181 68.3254C18.005 71.3006 14.8396 73.9165 11.4007 73.7817C8.11813 73.647 5.29146 71.0985 5.30449 68.2805C5.31751 65.3054 8.49593 62.6895 11.9218 62.8242C15.2044 62.9589 18.0311 65.5187 18.0181 68.3254Z" fill="white"/>
<path d="M18.0182 120.913C18.0703 123.877 14.944 126.537 11.5051 126.459C8.2355 126.38 5.34368 123.865 5.3046 121.047C5.2525 118.072 8.36575 115.423 11.8177 115.501C15.1003 115.58 17.9791 118.095 18.0182 120.913Z" fill="white"/>
<path d="M32.0346 108.529C28.4524 108.26 26.3552 106.643 26.1728 103.511C26.0035 100.524 28.8171 98.1444 32.2821 98.3689C35.9034 98.6047 37.9485 100.423 37.8834 103.533C37.8183 106.666 35.6037 108.271 32.0346 108.529Z" fill="white"/>
<path d="M7.40167 129.703C7.14115 132.768 5.31745 134.7 1.67012 134.789C-1.93813 134.879 -4.08742 133.139 -4.40005 130.029C-4.69965 127.043 -1.97714 124.595 1.50085 124.696C5.14819 124.82 7.03694 126.605 7.40167 129.703Z" fill="white"/>
<path d="M31.9433 90.9704C28.3481 90.6448 26.2899 88.9944 26.1727 85.8621C26.0685 82.8757 28.9343 80.5405 32.3992 80.81C36.0205 81.1019 38.0135 82.9655 37.8962 86.0642C37.753 89.1965 35.4865 90.7571 31.9433 90.9704Z" fill="white"/>
<path d="M7.37584 59.5798C7.03716 62.6672 5.14837 64.441 1.51406 64.5533C-1.9509 64.6543 -4.63423 62.2518 -4.36068 59.2654C-4.06108 56.1555 -1.93782 54.4378 1.65741 54.5164C5.30474 54.595 7.11532 56.5148 7.37584 59.5798Z" fill="white"/>
<path d="M42.5983 90.016C45.4511 90.409 47.392 91.891 47.5613 94.6528C47.7176 97.1452 44.7216 99.5814 41.8819 99.2446C38.7556 98.8741 36.9189 97.2013 36.8798 94.4395C36.8538 92.0818 39.6284 89.9487 42.5983 90.016Z" fill="white"/>
<path d="M27.2407 129.849C26.7196 132.589 24.9611 134.396 21.7306 134.318C18.5392 134.239 16.4941 132.443 16.5722 129.67C16.6504 126.919 18.7476 125.168 21.9651 125.224C25.1956 125.28 26.8759 127.132 27.2407 129.849Z" fill="white"/>
<path d="M21.7697 54.8757C24.922 55.2013 27.0713 56.6496 27.1365 59.4226C27.2016 62.1957 25.1695 64.0032 21.965 64.0594C18.7476 64.1267 16.6634 62.3641 16.5722 59.6135C16.494 56.8292 18.5913 55.3248 21.7697 54.8757Z" fill="white"/>
<path d="M32.1126 72.9509C28.9603 72.6253 26.8239 71.1658 26.7588 68.3927C26.7067 65.6197 28.7388 63.8233 31.9302 63.756C35.1477 63.6998 37.2319 65.4513 37.31 68.2131C37.3882 70.9974 35.291 72.513 32.1126 72.9509Z" fill="white"/>
<path d="M37.4532 121.081C36.9451 123.776 35.2257 125.448 32.0213 125.583C29.1164 125.707 26.3158 123.124 26.7066 120.666C27.1494 117.971 29.1033 116.265 32.2948 116.411C35.4471 116.545 37.1145 118.387 37.4532 121.081Z" fill="white"/>
<path d="M42.3772 72.8614C45.5035 73.142 47.21 74.624 47.0537 77.3185C46.8973 80.0466 44.9174 81.4051 41.8301 81.2479C38.9253 81.102 37.3361 79.5414 37.3752 77.049C37.4273 74.3097 39.29 72.9961 42.3772 72.8614Z" fill="white"/>
<path d="M42.3638 116.467C39.1073 116.208 37.3226 114.816 37.3617 112.144C37.4138 109.472 39.2114 107.979 42.2986 108.013C45.3988 108.046 47.1053 109.607 47.0923 112.268C47.0793 114.974 45.1644 116.231 42.3638 116.467Z" fill="white"/>
<path d="M11.6618 46.5451C14.749 46.7472 16.5466 48.1394 16.4685 50.8451C16.4033 53.562 14.5405 54.9766 11.4403 54.898C8.54847 54.8194 6.8942 53.3487 6.85512 50.8563C6.80302 48.1394 8.57458 46.7472 11.6618 46.5451Z" fill="white"/>
<path d="M16.5855 138.539C16.2207 141.391 14.4752 142.85 11.362 142.704C8.1966 142.547 6.63349 140.841 6.84191 138.18C7.0373 135.676 8.84796 134.329 11.7398 134.363C14.9442 134.408 16.364 136.092 16.5855 138.539Z" fill="white"/>
<path d="M52.3816 107.238C49.594 106.767 47.8745 105.453 48.122 103.14C48.3564 100.895 50.1541 99.4917 52.8635 99.7274C55.2864 99.9407 56.8235 101.389 56.7453 103.511C56.6411 105.835 54.8044 106.958 52.3816 107.238Z" fill="white"/>
<path d="M1.34424 38.2484C3.715 38.3831 5.44751 39.4384 5.68198 41.5715C5.9425 43.918 4.36634 45.4673 1.69597 45.5908C-1.00045 45.7143 -2.71988 44.2773 -2.75896 41.942C-2.78501 39.8201 -1.19587 38.5964 1.34424 38.2484Z" fill="white"/>
<path d="M56.81 85.7385C56.5495 87.9727 55.1818 89.5332 52.4984 89.5781C49.828 89.623 48.1346 88.1411 48.0955 85.8395C48.0695 83.7176 49.6847 82.2918 52.0946 82.1571C54.791 81.9887 56.302 83.437 56.81 85.7385Z" fill="white"/>
<path d="M1.48812 151.08C-1.13014 150.788 -2.86267 149.542 -2.79754 147.251C-2.73241 144.972 -0.986911 143.558 1.67043 143.647C4.0933 143.726 5.69553 145.118 5.74763 147.218C5.81276 149.508 4.13244 150.754 1.48812 151.08Z" fill="white"/>
<path d="M42.1815 133.128C39.6675 132.948 38.2606 131.78 38.3779 129.558C38.4821 127.525 39.8889 126.414 42.2336 126.436C44.8258 126.459 46.1805 127.75 46.0763 129.962C45.9851 131.994 44.5392 132.993 42.1815 133.128Z" fill="white"/>
<path d="M31.6698 47.387C34.4053 47.4993 35.8902 48.5659 35.8642 50.8C35.8381 52.8097 34.5225 53.9885 32.1908 54.0334C29.6377 54.0896 28.2179 52.8883 28.2048 50.6766C28.2048 48.6332 29.6377 47.6565 31.6698 47.387Z" fill="white"/>
<path d="M32.0865 135.182C34.4442 135.362 35.851 136.395 35.8901 138.438C35.9292 140.661 34.5224 141.896 31.9432 141.874C29.5985 141.851 28.2307 140.695 28.1786 138.663C28.1265 136.417 29.5854 135.306 32.0865 135.182Z" fill="white"/>
<path d="M41.8821 56.1442C44.6045 56.2565 46.1025 57.3342 46.0765 59.5796C46.0504 61.6005 44.7347 62.7905 42.377 62.8355C39.8108 62.8916 38.365 61.6791 38.365 59.4561C38.365 57.4016 39.7979 56.4024 41.8821 56.1442Z" fill="white"/>
<path d="M25.4821 41.8521C25.2867 43.6708 24.1795 44.9283 22.0823 45.0181C19.7376 45.1191 18.2655 43.8954 18.2916 41.8745C18.3177 40.0558 19.7115 38.9106 21.8217 38.8994C23.971 38.8769 25.1173 40.0782 25.4821 41.8521Z" fill="white"/>
<path d="M52.381 124.157C50.1405 123.877 48.6816 122.832 48.7988 120.789C48.903 118.982 50.2707 117.836 52.394 117.859C54.7387 117.893 56.1195 119.128 56.0153 121.148C55.9241 122.99 54.5173 123.944 52.381 124.157Z" fill="white"/>
<path d="M52.1855 71.4579C50.0101 71.065 48.5903 69.9647 48.8508 67.9551C49.0723 66.2037 50.4921 65.0698 52.5893 65.2157C54.8819 65.3617 56.2236 66.6528 55.9761 68.6512C55.7677 70.4138 54.3218 71.3456 52.1855 71.4579Z" fill="white"/>
<path d="M21.6133 144.13C24.0622 144.433 25.5342 145.455 25.43 147.476C25.3388 149.261 23.9841 150.417 21.8999 150.406C19.5943 150.395 18.2005 149.16 18.2656 147.161C18.3177 145.343 19.8287 144.478 21.6133 144.13Z" fill="white"/>
<path d="M65.8113 94.5741C65.6029 96.3592 64.5347 97.3808 62.5678 97.3696C60.6008 97.3471 59.4285 96.3142 59.4415 94.619C59.4676 92.9237 60.666 91.9132 62.6329 91.9245C64.6129 91.9357 65.6159 93.0135 65.8113 94.5741Z" fill="white"/>
<path d="M14.4624 155.795C14.3972 157.4 13.5766 158.332 12.0005 158.456C10.2029 158.602 9.00441 157.782 8.93928 156.188C8.87415 154.605 9.96836 153.718 11.8051 153.741C13.4464 153.763 14.1758 154.717 14.4624 155.795Z" fill="white"/>
<path d="M14.4616 33.0953C14.1359 34.7793 13.1199 35.6775 11.3353 35.5091C9.81128 35.3631 8.84732 34.465 8.95153 33.0953C9.06877 31.5459 10.2151 30.7039 11.9867 30.8499C13.5628 30.9734 14.2662 31.9726 14.4616 33.0953Z" fill="white"/>
<path d="M65.4206 76.8356C65.2903 78.5646 64.3916 79.474 62.5549 79.474C60.9657 79.474 59.9626 78.6993 59.8324 77.3521C59.6891 75.8252 60.5749 74.8148 62.3986 74.7025C64.2613 74.579 65.147 75.5333 65.4206 76.8356Z" fill="white"/>
<path d="M65.4073 112.144C65.29 113.671 64.3912 114.581 62.5675 114.592C60.9783 114.592 59.9753 113.817 59.8451 112.47C59.7018 110.943 60.5875 109.921 62.4112 109.82C64.2218 109.719 65.1989 110.584 65.4073 112.144Z" fill="white"/>
</g>
<g opacity="0.25">
<path d="M330.264 49.0479C325.293 51.9102 320.214 52.4714 315.287 49.1789C310.382 45.9051 309.926 41.4527 311.814 35.9714C305.389 37.1687 299.594 37.1314 295.774 32.1926C292.518 27.9647 293.299 23.8116 296.512 19.8269C296.902 19.4901 297.315 19.1534 297.706 18.8167C300.006 17.3949 302.676 16.0106 305.346 16.4783C310.23 17.3201 309.34 15.3745 309.6 12.4C309.969 8.3031 309.448 6.61945 304.13 7.2742C302.199 7.5174 299.963 6.02073 297.858 5.32856C297.293 4.84216 296.729 4.35582 296.164 3.86943C293.343 -0.208803 292.475 -4.3806 295.904 -8.49625C299.702 -13.0796 305.085 -13.4724 311.684 -11.9384C310.013 -17.5507 310.251 -22.4707 315.982 -25.7258C320.865 -28.5132 325.684 -27.8024 330.285 -25.0524C330.676 -24.7157 331.067 -24.3602 331.458 -24.0234C332.391 -22.0404 334.431 -19.8891 334.084 -18.0745C333.129 -13.2105 335.82 -14.0898 339.727 -13.8092C344.437 -13.4724 344.828 -14.5762 344.698 -18.0371C344.633 -20.0014 346.413 -22.0031 347.368 -23.986C347.78 -24.3602 348.192 -24.7156 348.605 -25.0898C353.532 -28.083 358.611 -28.5881 363.56 -25.333C368.487 -22.0966 369.073 -17.6629 367.163 -12.219C373.436 -13.1544 379.296 -13.3789 383.117 -8.40268C386.372 -4.17479 385.634 -0.0404224 382.531 4.00039C382.053 4.41196 381.576 4.80475 381.098 5.21631C378.754 6.00203 376.301 7.62966 374.109 7.40517C369.334 6.93748 369.377 8.3966 369.442 11.8949C369.507 15.281 369.268 16.9085 374.109 16.4408C376.323 16.235 378.754 17.8626 381.098 18.6483C381.576 19.0598 382.075 19.4715 382.552 19.9018C385.851 24.1484 386.503 28.5259 382.704 32.7538C378.949 36.9443 373.87 37.6178 367.51 35.8218C368.813 41.4715 368.596 46.6347 362.518 49.8898C357.873 52.3779 353.25 51.7045 348.822 49.2538C348.214 48.73 347.628 48.2249 347.02 47.7011C344.676 44.7079 344.068 41.3779 344.72 37.8984C338.056 37.2436 332.521 37.412 333.194 45.0259C333.281 45.9426 332.109 46.934 331.501 47.8881C331.132 48.2809 330.698 48.6738 330.264 49.0479ZM362.192 31.519C358.372 29.5173 366.403 23.2316 357.873 23.2129C353.51 23.1942 352.512 24.4851 352.534 27.946C352.599 35.2232 359.783 28.3388 362.192 31.519ZM316.937 31.6127C319.281 28.844 327.811 35.3915 326.335 26.4307C325.163 19.3031 319.888 24.9154 317.002 23.0821C318.174 26.0378 316.915 28.5259 316.937 31.6127ZM362.475 -7.50476C352.382 -6.6068 352.62 -6.56935 352.338 -4.54894C351.34 2.46637 357.482 0.071806 362.279 1.17555C360.847 -2.07956 361.954 -4.73605 362.475 -7.50476ZM316.85 -7.87887C317.414 -4.7173 317.761 -1.98601 317.197 1.06331C319.975 -1.08805 325.554 4.22488 326.509 -2.84655C327.659 -11.5829 319.107 -4.64248 316.85 -7.87887ZM335.582 11.4085C335.755 13.2792 334.127 15.917 338.534 15.1874C340.769 14.8133 343.656 16.179 343.265 12.1756C343.005 9.46297 342.853 8.39658 339.228 8.60236C336.515 8.73332 334.561 8.50883 335.582 11.4085Z" fill="white"/>
<path d="M382.596 19.9022C382.118 19.4907 381.619 19.079 381.141 18.6488C378.906 14.1777 378.949 9.68788 381.141 5.21679C381.619 4.80522 382.096 4.41243 382.574 4.00087C384.267 3.55189 385.917 2.99064 387.653 2.69132C392.559 1.8869 396.791 2.91582 399.613 6.67603C402.196 10.1182 402.196 13.7287 399.634 17.1709C396.834 20.9498 392.602 21.9788 387.696 21.1743C385.938 20.9124 384.289 20.3512 382.596 19.9022Z" fill="white"/>
<path d="M347.086 47.7012C347.693 48.225 348.279 48.7488 348.887 49.2539C349.213 50.3015 349.538 51.3492 349.864 52.4155C351.231 56.8866 350.406 60.8713 345.805 63.6213C341.572 66.1468 337.036 66.0906 332.868 63.4716C328.354 60.628 327.637 56.6247 329.135 52.191C329.482 51.1434 329.873 50.0957 330.242 49.0481C330.676 48.6552 331.11 48.2811 331.566 47.8882C336.71 46.0174 341.876 46.0736 347.086 47.7012Z" fill="white"/>
<path d="M297.727 18.8357C297.336 19.1724 296.924 19.5091 296.533 19.8459C290.325 21.5482 284.096 23.0823 279.473 17.3204C276.781 13.9717 276.716 10.305 279.299 6.86285C283.705 0.969992 289.957 2.2796 296.229 3.90715C296.794 4.39355 297.358 4.87988 297.922 5.36628C299.941 9.85607 299.746 14.3459 297.727 18.8357Z" fill="white"/>
<path d="M401.002 41.0415C401.133 45.999 395.945 50.4701 390.193 50.3765C384.745 50.283 379.861 46.0925 379.753 41.397C379.622 36.4208 384.788 31.9684 390.562 32.0807C396.01 32.1555 400.872 36.3272 401.002 41.0415Z" fill="white"/>
<path d="M288.611 50.283C282.925 50.3392 277.802 45.8494 277.997 40.9667C278.171 36.2899 283.011 32.1929 288.438 32.1368C294.125 32.0806 299.225 36.5704 299.052 41.453C298.878 46.1299 294.038 50.2456 288.611 50.283Z" fill="white"/>
<path d="M316.068 55.5212C316.285 60.4225 311.228 64.9497 305.497 64.9497C300.093 64.9497 295.166 60.8529 294.949 56.176C294.732 51.2746 299.811 46.7473 305.519 46.7473C310.924 46.7473 315.851 50.8256 316.068 55.5212Z" fill="white"/>
<path d="M383.985 55.7265C384.072 60.6653 378.862 65.099 373.132 64.968C367.684 64.8371 362.865 60.6466 362.8 55.951C362.713 50.9935 367.901 46.5786 373.653 46.7095C379.123 46.8405 383.92 51.0309 383.985 55.7265Z" fill="white"/>
<path d="M312.66 69.9444C313.507 64.7999 316.893 62.0312 322.905 62.0873C328.657 62.1434 332.868 66.3526 332.13 71.3288C331.371 76.5295 327.594 79.1485 321.647 78.7743C315.569 78.4189 312.834 75.0142 312.66 69.9444Z" fill="white"/>
<path d="M281.296 26.4869C280.84 31.6502 277.802 34.8118 271.659 34.8493C265.581 34.8867 262.022 31.9309 261.956 26.6741C261.891 21.436 265.343 18.3867 271.442 18.2932C277.563 18.237 280.71 21.3237 281.296 26.4869Z" fill="white"/>
<path d="M366.295 70.3748C365.861 75.4819 362.822 78.6997 356.744 78.8493C350.732 78.999 347.151 76.0992 346.63 70.9172C346.13 65.9411 350.667 61.8628 356.462 62.0312C362.54 62.237 365.687 65.2115 366.295 70.3748Z" fill="white"/>
<path d="M271.941 -11.0778C277.91 -10.4417 281.383 -7.59816 281.144 -2.36006C280.905 2.89674 277.215 5.75899 271.181 5.59062C265.082 5.40355 261.761 2.22328 261.956 -2.99611C262.152 -8.29033 265.95 -10.7971 271.941 -11.0778Z" fill="white"/>
<path d="M288.785 78.1756C283.445 77.6518 279.886 75.2385 279.777 70.6365C279.669 66.0345 283.033 63.06 288.329 62.9478C293.669 62.8355 297.12 65.7352 297.272 70.3185C297.424 74.9206 293.929 77.4086 288.785 78.1756Z" fill="white"/>
<path d="M339.597 92.8424C334.345 92.3186 330.763 89.8866 330.655 85.2659C330.546 80.6451 333.932 77.6332 339.25 77.521C344.611 77.4087 348.084 80.3271 348.236 84.9292C348.388 89.5873 344.893 92.0941 339.597 92.8424Z" fill="white"/>
<path d="M263.498 11.8949C262.629 16.6279 259.721 19.5838 254.381 19.4528C249.085 19.3219 245.743 16.3473 245.873 11.7827C246.003 7.21808 249.454 4.35586 254.772 4.4494C260.133 4.54294 262.803 7.66705 263.498 11.8949Z" fill="white"/>
<path d="M271.463 48.169C276.955 48.8986 280.384 51.4054 280.254 56.0074C280.124 60.5721 276.673 63.453 271.377 63.3408C266.102 63.2472 262.76 60.2728 262.846 55.6895C262.933 51.0687 266.558 48.7676 271.463 48.169Z" fill="white"/>
<path d="M254.251 48.1687C249.128 47.6636 246.328 45.2129 246.611 40.7605C246.914 36.252 250.17 34.0445 255.271 34.3438C260.068 34.6244 262.651 37.1875 262.564 41.3218C262.456 45.849 259.352 47.9629 254.251 48.1687Z" fill="white"/>
<path d="M381.597 85.0973C380.99 89.849 378.081 92.281 372.893 92.0378C367.619 91.7759 365.014 88.9323 365.362 84.4987C365.687 80.3269 368.704 78.0821 373.523 78.1382C378.863 78.213 381.228 81.0191 381.597 85.0973Z" fill="white"/>
<path d="M305.779 92.1317C300.288 91.7201 297.336 89.3817 297.51 84.8732C297.662 80.346 300.809 78.0262 305.975 78.1946C310.793 78.3629 313.485 80.8324 313.55 85.0041C313.615 89.5875 310.49 91.7201 305.779 92.1317Z" fill="white"/>
<path d="M237.625 32.6976C233.284 32.3047 230.505 30.2469 230.614 26.3744C230.701 22.8387 233.349 20.5752 237.451 20.5564C241.944 20.5377 244.679 22.9136 244.571 26.7861C244.505 30.3218 241.836 32.286 237.625 32.6976Z" fill="white"/>
<path d="M237.407 -8.79559C241.314 -8.58981 244.158 -6.86868 244.548 -3.31426C244.961 0.558194 242.4 3.12115 237.972 3.32694C233.5 3.53272 230.679 1.17552 230.614 -2.69693C230.57 -6.23265 233.153 -8.25308 237.407 -8.79559Z" fill="white"/>
<path d="M329.743 99.596C329.287 103.3 326.987 105.844 322.537 105.863C318.109 105.882 315.331 103.45 315.352 99.6147C315.352 96.0977 318.022 93.778 322.038 93.591C326.487 93.3852 328.983 95.761 329.743 99.596Z" fill="white"/>
<path d="M356.441 105.994C352.078 105.507 349.191 103.431 349.3 99.6146C349.408 95.817 352.317 93.4598 356.745 93.6095C360.782 93.7404 363.452 96.0601 363.539 99.5584C363.647 103.375 360.847 105.451 356.441 105.994Z" fill="white"/>
<path d="M254.815 64.9497C258.679 65.3239 260.958 67.1012 260.893 70.5059C260.806 74.2848 258.201 76.1743 253.947 75.9124C250.018 75.6692 248 73.4804 248.217 70.113C248.477 66.6896 250.93 65.0994 254.815 64.9497Z" fill="white"/>
<path d="M271.529 79.5786C275.414 79.8218 277.824 81.5056 277.867 84.9291C277.932 88.6706 275.501 90.6909 271.182 90.5599C267.231 90.429 265.126 88.3524 265.213 84.9664C265.3 81.5429 267.644 79.8405 271.529 79.5786Z" fill="white"/>
<path d="M237.147 50.6382C240.902 50.9937 243.311 52.5651 243.463 55.5583C243.615 58.8695 241.228 60.9835 237.386 60.9086C233.935 60.8525 231.742 58.8322 231.721 55.8203C231.699 52.7522 234.152 51.2743 237.147 50.6382Z" fill="white"/>
<path d="M294.58 99.9323C293.951 102.888 292.041 104.871 288.481 104.834C284.965 104.796 282.642 102.869 282.621 99.8388C282.599 96.4714 285.051 94.4324 288.958 94.6194C292.431 94.8065 294.276 96.9204 294.58 99.9323Z" fill="white"/>
<path d="M378.06 113.851C377.951 116.526 376.584 118.079 373.958 118.284C370.962 118.528 368.965 117.162 368.857 114.506C368.748 111.868 370.571 110.39 373.632 110.427C376.367 110.465 377.582 112.055 378.06 113.851Z" fill="white"/>
<path d="M334.235 114.449C334.713 111.288 336.645 109.754 339.901 109.978C343.222 110.221 344.871 112.148 344.524 114.936C344.22 117.405 342.288 118.846 339.358 118.79C335.994 118.696 334.518 116.863 334.235 114.449Z" fill="white"/>
<path d="M310.099 114.337C309.774 116.825 308.233 118.378 305.216 118.266C302.611 118.153 300.983 116.713 300.983 114.449C300.983 111.868 302.785 110.371 305.78 110.483C308.406 110.558 309.774 112.055 310.099 114.337Z" fill="white"/>
<path d="M225.643 11.9697C225.426 14.7197 223.712 16.3285 220.347 16.2162C217.374 16.1227 215.681 14.5887 215.659 12.0445C215.637 9.14485 217.547 7.5921 220.89 7.68563C223.885 7.76046 225.405 9.33197 225.643 11.9697Z" fill="white"/>
<path d="M225.187 41.3032C224.775 43.5481 223.364 45.0634 220.716 45.0447C217.677 45.0259 215.919 43.3796 216.201 40.7793C216.461 38.5718 218.263 37.1874 220.954 37.3558C223.559 37.5429 224.948 39.0396 225.187 41.3032Z" fill="white"/>
</g>
</g>
<path d="M31.36 62.52C29.4133 62.52 27.6 62.14 25.92 61.38C24.2533 60.62 22.8 59.5733 21.56 58.24C20.32 56.8933 19.3467 55.3467 18.64 53.6C17.9467 51.84 17.6 49.96 17.6 47.96C17.6 45.8533 17.9733 43.92 18.72 42.16C19.48 40.4 20.5133 38.8733 21.82 37.58C23.1267 36.2867 24.6067 35.2867 26.26 34.58C27.9267 33.8733 29.66 33.52 31.46 33.52C33.4733 33.52 35.4267 33.9933 37.32 34.94C39.2267 35.8733 40.9067 37.32 42.36 39.28L38 41.62C37.1067 40.5267 36.08 39.7133 34.92 39.18C33.7733 38.6333 32.6 38.36 31.4 38.36C30.2267 38.36 29.1 38.6 28.02 39.08C26.9533 39.56 26 40.24 25.16 41.12C24.3333 41.9867 23.68 43.0133 23.2 44.2C22.72 45.3733 22.48 46.66 22.48 48.06C22.48 49.38 22.7133 50.6267 23.18 51.8C23.6467 52.96 24.2867 53.98 25.1 54.86C25.9267 55.7267 26.88 56.4067 27.96 56.9C29.04 57.3933 30.2 57.64 31.44 57.64C32.2667 57.64 33.0733 57.5133 33.86 57.26C34.66 56.9933 35.4067 56.6133 36.1 56.12C36.8067 55.6267 37.4333 55.0267 37.98 54.32C38.54 53.6133 39.0067 52.8133 39.38 51.92H34.28V47.66H45.12C45.1733 49.7 44.8533 51.6133 44.16 53.4C43.4667 55.1867 42.4867 56.7667 41.22 58.14C39.9533 59.5133 38.48 60.5867 36.8 61.36C35.12 62.1333 33.3067 62.52 31.36 62.52ZM57.3172 62.52C55.4772 62.52 53.7972 62.0467 52.2772 61.1C50.7705 60.1533 49.5639 58.88 48.6572 57.28C47.7639 55.68 47.3172 53.9133 47.3172 51.98C47.3172 50.5267 47.5772 49.1667 48.0972 47.9C48.6172 46.62 49.3305 45.5 50.2372 44.54C51.1572 43.5667 52.2239 42.8067 53.4372 42.26C54.6505 41.7133 55.9439 41.44 57.3172 41.44C58.8772 41.44 60.3039 41.7733 61.5972 42.44C62.9039 43.0933 64.0105 43.9933 64.9172 45.14C65.8239 46.2867 66.4839 47.5933 66.8972 49.06C67.3105 50.5267 67.4039 52.06 67.1772 53.66H52.5572C52.7439 54.4067 53.0505 55.08 53.4772 55.68C53.9039 56.2667 54.4439 56.74 55.0972 57.1C55.7505 57.4467 56.4905 57.6267 57.3172 57.64C58.1705 57.6533 58.9439 57.4533 59.6372 57.04C60.3439 56.6133 60.9305 56.04 61.3972 55.32L66.3772 56.48C65.5639 58.2533 64.3505 59.7067 62.7372 60.84C61.1239 61.96 59.3172 62.52 57.3172 62.52ZM52.3972 50H62.2372C62.0905 49.2 61.7772 48.48 61.2972 47.84C60.8305 47.1867 60.2505 46.6667 59.5572 46.28C58.8639 45.8933 58.1172 45.7 57.3172 45.7C56.5172 45.7 55.7772 45.8933 55.0972 46.28C54.4172 46.6533 53.8372 47.1667 53.3572 47.82C52.8905 48.46 52.5705 49.1867 52.3972 50ZM81.1513 46.88H77.2713V62H72.3913V46.88H69.4313V42H72.3913V35.72H77.2713V42H81.1513V46.88Z" fill="white"/>
<path d="M26.62 88.4V90.596H22.768V101H20.572V90.596H16.72V88.4H26.62ZM36.6619 95.312V101H34.4659V95.888C34.4659 95.534 34.3789 95.213 34.2049 94.925C34.0309 94.631 33.7969 94.4 33.5029 94.232C33.2149 94.058 32.8939 93.971 32.5399 93.971C32.1859 93.971 31.8619 94.058 31.5679 94.232C31.2799 94.4 31.0489 94.631 30.8749 94.925C30.7069 95.213 30.6229 95.534 30.6229 95.888V101H28.4269L28.4179 87.5H30.6139L30.6229 92.801C30.9289 92.477 31.2949 92.222 31.7209 92.036C32.1469 91.844 32.6059 91.748 33.0979 91.748C33.7519 91.748 34.3489 91.91 34.8889 92.234C35.4289 92.552 35.8579 92.981 36.1759 93.521C36.4999 94.055 36.6619 94.652 36.6619 95.312ZM42.2392 101.234C41.4112 101.234 40.6552 101.021 39.9712 100.595C39.2932 100.169 38.7502 99.596 38.3422 98.876C37.9402 98.156 37.7392 97.361 37.7392 96.491C37.7392 95.837 37.8562 95.225 38.0902 94.655C38.3242 94.079 38.6452 93.575 39.0532 93.143C39.4672 92.705 39.9472 92.363 40.4932 92.117C41.0392 91.871 41.6212 91.748 42.2392 91.748C42.9412 91.748 43.5832 91.898 44.1652 92.198C44.7532 92.492 45.2512 92.897 45.6592 93.413C46.0672 93.929 46.3642 94.517 46.5502 95.177C46.7362 95.837 46.7782 96.527 46.6762 97.247H40.0972C40.1812 97.583 40.3192 97.886 40.5112 98.156C40.7032 98.42 40.9462 98.633 41.2402 98.795C41.5342 98.951 41.8672 99.032 42.2392 99.038C42.6232 99.044 42.9712 98.954 43.2832 98.768C43.6012 98.576 43.8652 98.318 44.0752 97.994L46.3162 98.516C45.9502 99.314 45.4042 99.968 44.6782 100.478C43.9522 100.982 43.1392 101.234 42.2392 101.234ZM40.0252 95.6H44.4532C44.3872 95.24 44.2462 94.916 44.0302 94.628C43.8202 94.334 43.5592 94.1 43.2472 93.926C42.9352 93.752 42.5992 93.665 42.2392 93.665C41.8792 93.665 41.5462 93.752 41.2402 93.926C40.9342 94.094 40.6732 94.325 40.4572 94.619C40.2472 94.907 40.1032 95.234 40.0252 95.6ZM59.4797 87.5H61.6757V101H59.4797V99.875C59.1917 100.277 58.8287 100.604 58.3907 100.856C57.9527 101.108 57.4457 101.234 56.8697 101.234C56.2157 101.234 55.6037 101.111 55.0337 100.865C54.4637 100.619 53.9597 100.28 53.5217 99.848C53.0897 99.41 52.7507 98.906 52.5047 98.336C52.2587 97.766 52.1357 97.154 52.1357 96.5C52.1357 95.846 52.2587 95.234 52.5047 94.664C52.7507 94.094 53.0897 93.593 53.5217 93.161C53.9597 92.723 54.4637 92.381 55.0337 92.135C55.6037 91.889 56.2157 91.766 56.8697 91.766C57.4457 91.766 57.9527 91.892 58.3907 92.144C58.8287 92.39 59.1917 92.717 59.4797 93.125V87.5ZM56.8967 99.119C57.3647 99.119 57.7787 99.002 58.1387 98.768C58.4987 98.534 58.7807 98.219 58.9847 97.823C59.1887 97.421 59.2907 96.98 59.2907 96.5C59.2907 96.014 59.1887 95.573 58.9847 95.177C58.7807 94.775 58.4957 94.457 58.1297 94.223C57.7697 93.989 57.3587 93.872 56.8967 93.872C56.4347 93.872 56.0117 93.992 55.6277 94.232C55.2497 94.466 54.9467 94.781 54.7187 95.177C54.4967 95.573 54.3857 96.014 54.3857 96.5C54.3857 96.986 54.4997 97.427 54.7277 97.823C54.9557 98.219 55.2587 98.534 55.6367 98.768C56.0207 99.002 56.4407 99.119 56.8967 99.119ZM67.6572 101.234C66.8292 101.234 66.0732 101.021 65.3892 100.595C64.7112 100.169 64.1682 99.596 63.7602 98.876C63.3582 98.156 63.1572 97.361 63.1572 96.491C63.1572 95.837 63.2742 95.225 63.5082 94.655C63.7422 94.079 64.0632 93.575 64.4712 93.143C64.8852 92.705 65.3652 92.363 65.9112 92.117C66.4572 91.871 67.0392 91.748 67.6572 91.748C68.3592 91.748 69.0012 91.898 69.5832 92.198C70.1712 92.492 70.6692 92.897 71.0772 93.413C71.4852 93.929 71.7822 94.517 71.9682 95.177C72.1542 95.837 72.1962 96.527 72.0942 97.247H65.5152C65.5992 97.583 65.7372 97.886 65.9292 98.156C66.1212 98.42 66.3642 98.633 66.6582 98.795C66.9522 98.951 67.2852 99.032 67.6572 99.038C68.0412 99.044 68.3892 98.954 68.7012 98.768C69.0192 98.576 69.2832 98.318 69.4932 97.994L71.7342 98.516C71.3682 99.314 70.8222 99.968 70.0962 100.478C69.3702 100.982 68.5572 101.234 67.6572 101.234ZM65.4432 95.6H69.8712C69.8052 95.24 69.6642 94.916 69.4482 94.628C69.2382 94.334 68.9772 94.1 68.6652 93.926C68.3532 93.752 68.0172 93.665 67.6572 93.665C67.2972 93.665 66.9642 93.752 66.6582 93.926C66.3522 94.094 66.0912 94.325 65.8752 94.619C65.6652 94.907 65.5212 95.234 65.4432 95.6ZM80.3797 92H82.5757V101H80.3797L80.2807 99.884C80.0347 100.286 79.7077 100.613 79.2997 100.865C78.8977 101.111 78.4207 101.234 77.8687 101.234C77.2027 101.234 76.5787 101.108 75.9967 100.856C75.4147 100.604 74.9017 100.256 74.4577 99.812C74.0197 99.368 73.6747 98.855 73.4227 98.273C73.1767 97.691 73.0537 97.067 73.0537 96.401C73.0537 95.759 73.1707 95.156 73.4047 94.592C73.6447 94.028 73.9777 93.533 74.4037 93.107C74.8297 92.681 75.3217 92.348 75.8797 92.108C76.4377 91.868 77.0377 91.748 77.6797 91.748C78.2737 91.748 78.8047 91.88 79.2727 92.144C79.7467 92.408 80.1487 92.744 80.4787 93.152L80.3797 92ZM77.8147 99.119C78.2827 99.119 78.6967 99.002 79.0567 98.768C79.4167 98.534 79.6987 98.219 79.9027 97.823C80.1067 97.421 80.2087 96.98 80.2087 96.5C80.2087 96.014 80.1067 95.573 79.9027 95.177C79.6987 94.775 79.4137 94.457 79.0477 94.223C78.6877 93.989 78.2767 93.872 77.8147 93.872C77.3527 93.872 76.9297 93.992 76.5457 94.232C76.1677 94.466 75.8647 94.781 75.6367 95.177C75.4147 95.573 75.3037 96.014 75.3037 96.5C75.3037 96.986 75.4177 97.427 75.6457 97.823C75.8737 98.219 76.1767 98.534 76.5547 98.768C76.9387 99.002 77.3587 99.119 77.8147 99.119ZM84.4218 101V87.5H86.6178V101H84.4218ZM91.4362 101.162C90.9682 101.132 90.5152 101.039 90.0772 100.883C89.6452 100.721 89.2612 100.502 88.9252 100.226C88.5892 99.95 88.3312 99.62 88.1512 99.236L90.0052 98.444C90.0772 98.564 90.1942 98.693 90.3562 98.831C90.5182 98.963 90.7102 99.074 90.9322 99.164C91.1602 99.254 91.4092 99.299 91.6792 99.299C91.9072 99.299 92.1232 99.269 92.3272 99.209C92.5372 99.143 92.7052 99.044 92.8312 98.912C92.9632 98.78 93.0292 98.609 93.0292 98.399C93.0292 98.177 92.9512 98.006 92.7952 97.886C92.6452 97.76 92.4532 97.667 92.2192 97.607C91.9912 97.541 91.7692 97.481 91.5532 97.427C90.9832 97.313 90.4522 97.136 89.9602 96.896C89.4742 96.656 89.0812 96.347 88.7812 95.969C88.4872 95.585 88.3402 95.123 88.3402 94.583C88.3402 93.989 88.4962 93.476 88.8082 93.044C89.1262 92.612 89.5372 92.279 90.0412 92.045C90.5512 91.811 91.1002 91.694 91.6882 91.694C92.4022 91.694 93.0562 91.844 93.6502 92.144C94.2502 92.438 94.7242 92.855 95.0722 93.395L93.3352 94.421C93.2512 94.277 93.1342 94.145 92.9842 94.025C92.8342 93.899 92.6632 93.797 92.4712 93.719C92.2792 93.635 92.0782 93.587 91.8682 93.575C91.5982 93.563 91.3522 93.587 91.1302 93.647C90.9082 93.707 90.7282 93.809 90.5902 93.953C90.4582 94.097 90.3922 94.289 90.3922 94.529C90.3922 94.757 90.4822 94.928 90.6622 95.042C90.8422 95.15 91.0582 95.234 91.3102 95.294C91.5682 95.354 91.8142 95.42 92.0482 95.492C92.5762 95.666 93.0712 95.879 93.5332 96.131C94.0012 96.383 94.3762 96.692 94.6582 97.058C94.9402 97.424 95.0752 97.862 95.0632 98.372C95.0632 98.954 94.8892 99.464 94.5412 99.902C94.1932 100.334 93.7432 100.664 93.1912 100.892C92.6452 101.12 92.0602 101.21 91.4362 101.162ZM107.102 92H109.433L104.51 105.5H102.179L103.808 101L100.568 92H102.971L104.906 97.994L107.102 92ZM114.292 101.234C113.464 101.234 112.708 101.021 112.024 100.595C111.346 100.169 110.803 99.599 110.395 98.885C109.993 98.165 109.792 97.37 109.792 96.5C109.792 95.84 109.909 95.225 110.143 94.655C110.377 94.079 110.698 93.575 111.106 93.143C111.52 92.705 112 92.363 112.546 92.117C113.092 91.871 113.674 91.748 114.292 91.748C115.12 91.748 115.873 91.961 116.551 92.387C117.235 92.813 117.778 93.386 118.18 94.106C118.588 94.826 118.792 95.624 118.792 96.5C118.792 97.154 118.675 97.766 118.441 98.336C118.207 98.906 117.883 99.41 117.469 99.848C117.061 100.28 116.584 100.619 116.038 100.865C115.498 101.111 114.916 101.234 114.292 101.234ZM114.292 99.038C114.73 99.038 115.123 98.921 115.471 98.687C115.819 98.453 116.092 98.144 116.29 97.76C116.494 97.376 116.596 96.956 116.596 96.5C116.596 96.032 116.491 95.606 116.281 95.222C116.077 94.832 115.798 94.523 115.444 94.295C115.096 94.061 114.712 93.944 114.292 93.944C113.86 93.944 113.47 94.061 113.122 94.295C112.774 94.529 112.498 94.841 112.294 95.231C112.09 95.621 111.988 96.044 111.988 96.5C111.988 96.974 112.093 97.403 112.303 97.787C112.513 98.171 112.792 98.477 113.14 98.705C113.494 98.927 113.878 99.038 114.292 99.038ZM119.64 97.67V92H121.836V97.094C121.836 97.448 121.923 97.772 122.097 98.066C122.271 98.354 122.502 98.585 122.79 98.759C123.084 98.927 123.405 99.011 123.753 99.011C124.113 99.011 124.437 98.927 124.725 98.759C125.013 98.585 125.244 98.354 125.418 98.066C125.592 97.772 125.679 97.448 125.679 97.094V92H127.875L127.884 101H125.688L125.679 100.181C125.367 100.505 124.998 100.763 124.572 100.955C124.146 101.141 123.69 101.234 123.204 101.234C122.55 101.234 121.953 101.075 121.413 100.757C120.873 100.433 120.441 100.004 120.117 99.47C119.799 98.93 119.64 98.33 119.64 97.67ZM138.654 101H136.476L133.47 92H135.621L137.574 97.823L139.518 92H141.687L143.631 97.823L145.584 92H147.735L144.729 101H142.551L140.598 95.15L138.654 101ZM155.509 92H157.705V101H155.509L155.41 99.884C155.164 100.286 154.837 100.613 154.429 100.865C154.027 101.111 153.55 101.234 152.998 101.234C152.332 101.234 151.708 101.108 151.126 100.856C150.544 100.604 150.031 100.256 149.587 99.812C149.149 99.368 148.804 98.855 148.552 98.273C148.306 97.691 148.183 97.067 148.183 96.401C148.183 95.759 148.3 95.156 148.534 94.592C148.774 94.028 149.107 93.533 149.533 93.107C149.959 92.681 150.451 92.348 151.009 92.108C151.567 91.868 152.167 91.748 152.809 91.748C153.403 91.748 153.934 91.88 154.402 92.144C154.876 92.408 155.278 92.744 155.608 93.152L155.509 92ZM152.944 99.119C153.412 99.119 153.826 99.002 154.186 98.768C154.546 98.534 154.828 98.219 155.032 97.823C155.236 97.421 155.338 96.98 155.338 96.5C155.338 96.014 155.236 95.573 155.032 95.177C154.828 94.775 154.543 94.457 154.177 94.223C153.817 93.989 153.406 93.872 152.944 93.872C152.482 93.872 152.059 93.992 151.675 94.232C151.297 94.466 150.994 94.781 150.766 95.177C150.544 95.573 150.433 96.014 150.433 96.5C150.433 96.986 150.547 97.427 150.775 97.823C151.003 98.219 151.306 98.534 151.684 98.768C152.068 99.002 152.488 99.119 152.944 99.119ZM167.742 95.312V101H165.546V95.888C165.546 95.534 165.459 95.213 165.285 94.925C165.111 94.631 164.877 94.4 164.583 94.232C164.295 94.058 163.974 93.971 163.62 93.971C163.266 93.971 162.942 94.058 162.648 94.232C162.36 94.4 162.129 94.631 161.955 94.925C161.787 95.213 161.703 95.534 161.703 95.888V101H159.507L159.498 92H161.694L161.703 92.801C162.009 92.477 162.375 92.222 162.801 92.036C163.227 91.844 163.686 91.748 164.178 91.748C164.832 91.748 165.429 91.91 165.969 92.234C166.509 92.552 166.938 92.981 167.256 93.521C167.58 94.055 167.742 94.652 167.742 95.312ZM174.359 94.196H172.613V101H170.417V94.196H169.085V92H170.417V89.174H172.613V92H174.359V94.196Z" fill="white"/>
<path d="M18.484 129L16.336 120.6H17.374L19.066 127.23L20.752 120.6H21.658L23.35 127.23L25.036 120.6H26.074L23.938 129H22.762L21.208 122.916L19.654 129H18.484ZM26.8927 123H27.9007V129H26.8927V123ZM27.4087 122.022C27.2487 122.022 27.1147 121.97 27.0067 121.866C26.8987 121.762 26.8447 121.632 26.8447 121.476C26.8447 121.32 26.8987 121.19 27.0067 121.086C27.1147 120.982 27.2467 120.93 27.4027 120.93C27.5587 120.93 27.6907 120.982 27.7987 121.086C27.9067 121.19 27.9607 121.32 27.9607 121.476C27.9607 121.632 27.9067 121.762 27.7987 121.866C27.6947 121.97 27.5647 122.022 27.4087 122.022ZM32.6499 124.008H31.2879L31.2819 129H30.2739L30.2799 124.008H29.2479V123H30.2799L30.2739 121.116H31.2819L31.2879 123H32.6499V124.008ZM39.2295 125.268V129H38.2215V125.49C38.2215 125.186 38.1475 124.91 37.9995 124.662C37.8515 124.414 37.6535 124.218 37.4055 124.074C37.1575 123.926 36.8815 123.852 36.5775 123.852C36.2775 123.852 36.0015 123.926 35.7495 124.074C35.5015 124.218 35.3035 124.414 35.1555 124.662C35.0075 124.91 34.9335 125.186 34.9335 125.49V129H33.9255V120H34.9335V123.75C35.1455 123.47 35.4135 123.248 35.7375 123.084C36.0615 122.916 36.4135 122.832 36.7935 122.832C37.2415 122.832 37.6495 122.942 38.0175 123.162C38.3895 123.378 38.6835 123.67 38.8995 124.038C39.1195 124.406 39.2295 124.816 39.2295 125.268ZM43.1522 129.156C42.6002 129.156 42.0962 129.014 41.6402 128.73C41.1882 128.446 40.8262 128.066 40.5542 127.59C40.2862 127.11 40.1522 126.58 40.1522 126C40.1522 125.56 40.2302 125.15 40.3862 124.77C40.5422 124.386 40.7562 124.05 41.0282 123.762C41.3042 123.47 41.6242 123.242 41.9882 123.078C42.3522 122.914 42.7402 122.832 43.1522 122.832C43.7042 122.832 44.2062 122.974 44.6582 123.258C45.1142 123.542 45.4762 123.924 45.7442 124.404C46.0162 124.884 46.1522 125.416 46.1522 126C46.1522 126.436 46.0742 126.844 45.9182 127.224C45.7622 127.604 45.5462 127.94 45.2702 128.232C44.9982 128.52 44.6802 128.746 44.3162 128.91C43.9562 129.074 43.5682 129.156 43.1522 129.156ZM43.1522 128.148C43.5282 128.148 43.8662 128.05 44.1662 127.854C44.4702 127.654 44.7082 127.392 44.8802 127.068C45.0562 126.74 45.1442 126.384 45.1442 126C45.1442 125.608 45.0542 125.248 44.8742 124.92C44.6982 124.592 44.4602 124.33 44.1602 124.134C43.8602 123.938 43.5242 123.84 43.1522 123.84C42.7762 123.84 42.4382 123.94 42.1382 124.14C41.8382 124.336 41.6002 124.598 41.4242 124.926C41.2482 125.254 41.1602 125.612 41.1602 126C41.1602 126.4 41.2502 126.764 41.4302 127.092C41.6102 127.416 41.8522 127.674 42.1562 127.866C42.4602 128.054 42.7922 128.148 43.1522 128.148ZM47.023 126.72V123H48.031V126.498C48.031 126.802 48.105 127.078 48.253 127.326C48.401 127.574 48.599 127.772 48.847 127.92C49.099 128.064 49.375 128.136 49.675 128.136C49.979 128.136 50.253 128.064 50.497 127.92C50.745 127.772 50.943 127.574 51.091 127.326C51.239 127.078 51.313 126.802 51.313 126.498V123H52.321L52.327 129H51.319L51.313 128.238C51.101 128.518 50.833 128.742 50.509 128.91C50.185 129.074 49.835 129.156 49.459 129.156C49.011 129.156 48.601 129.048 48.229 128.832C47.861 128.612 47.567 128.318 47.347 127.95C47.131 127.582 47.023 127.172 47.023 126.72ZM56.8405 124.008H55.4785L55.4725 129H54.4645L54.4705 124.008H53.4385V123H54.4705L54.4645 121.116H55.4725L55.4785 123H56.8405V124.008ZM61.1989 129V123H62.2069V123.75C62.4189 123.47 62.6869 123.248 63.0109 123.084C63.3349 122.916 63.6869 122.832 64.0669 122.832C64.2989 122.832 64.5229 122.862 64.7389 122.922L64.3309 123.93C64.1669 123.878 64.0069 123.852 63.8509 123.852C63.5509 123.852 63.2749 123.926 63.0229 124.074C62.7749 124.218 62.5769 124.414 62.4289 124.662C62.2809 124.91 62.2069 125.186 62.2069 125.49V129H61.1989ZM65.6762 123H66.6842V129H65.6762V123ZM66.1922 122.022C66.0322 122.022 65.8982 121.97 65.7902 121.866C65.6822 121.762 65.6282 121.632 65.6282 121.476C65.6282 121.32 65.6822 121.19 65.7902 121.086C65.8982 120.982 66.0302 120.93 66.1862 120.93C66.3422 120.93 66.4742 120.982 66.5822 121.086C66.6902 121.19 66.7442 121.32 66.7442 121.476C66.7442 121.632 66.6902 121.762 66.5822 121.866C66.4782 121.97 66.3482 122.022 66.1922 122.022ZM70.0969 129.114C69.7729 129.102 69.4569 129.042 69.1489 128.934C68.8449 128.822 68.5769 128.672 68.3449 128.484C68.1169 128.292 67.9509 128.072 67.8469 127.824L68.7109 127.452C68.7709 127.588 68.8789 127.716 69.0349 127.836C69.1909 127.956 69.3709 128.052 69.5749 128.124C69.7789 128.196 69.9849 128.232 70.1929 128.232C70.4129 128.232 70.6189 128.198 70.8109 128.13C71.0029 128.062 71.1589 127.962 71.2789 127.83C71.4029 127.694 71.4649 127.532 71.4649 127.344C71.4649 127.144 71.3969 126.988 71.2609 126.876C71.1289 126.76 70.9609 126.67 70.7569 126.606C70.5569 126.538 70.3529 126.474 70.1449 126.414C69.7329 126.31 69.3649 126.186 69.0409 126.042C68.7169 125.894 68.4609 125.708 68.2729 125.484C68.0889 125.256 67.9969 124.966 67.9969 124.614C67.9969 124.242 68.0989 123.92 68.3029 123.648C68.5109 123.376 68.7829 123.166 69.1189 123.018C69.4549 122.87 69.8149 122.796 70.1989 122.796C70.6829 122.796 71.1249 122.9 71.5249 123.108C71.9249 123.316 72.2229 123.598 72.4189 123.954L71.6089 124.428C71.5409 124.284 71.4369 124.158 71.2969 124.05C71.1569 123.938 70.9969 123.85 70.8169 123.786C70.6369 123.722 70.4529 123.688 70.2649 123.684C70.0329 123.676 69.8149 123.706 69.6109 123.774C69.4109 123.842 69.2489 123.946 69.1249 124.086C69.0049 124.222 68.9449 124.392 68.9449 124.596C68.9449 124.796 69.0089 124.948 69.1369 125.052C69.2689 125.156 69.4389 125.24 69.6469 125.304C69.8589 125.364 70.0889 125.434 70.3369 125.514C70.7009 125.63 71.0409 125.764 71.3569 125.916C71.6729 126.068 71.9269 126.258 72.1189 126.486C72.3149 126.714 72.4109 126.996 72.4069 127.332C72.4069 127.7 72.2969 128.022 72.0769 128.298C71.8569 128.57 71.5709 128.778 71.2189 128.922C70.8709 129.066 70.4969 129.13 70.0969 129.114ZM78.5008 129H77.3428L75.7468 126.246L74.6428 127.566V129H73.6348V120H74.6428V126L77.1568 123H78.4708L76.4308 125.43L78.5008 129ZM79.7645 123H80.7725V129H79.7645V123ZM80.2805 122.022C80.1205 122.022 79.9865 121.97 79.8785 121.866C79.7705 121.762 79.7165 121.632 79.7165 121.476C79.7165 121.32 79.7705 121.19 79.8785 121.086C79.9865 120.982 80.1185 120.93 80.2745 120.93C80.4305 120.93 80.5625 120.982 80.6705 121.086C80.7785 121.19 80.8325 121.32 80.8325 121.476C80.8325 121.632 80.7785 121.762 80.6705 121.866C80.5665 121.97 80.4365 122.022 80.2805 122.022ZM87.6826 125.268V129H86.6746V125.49C86.6746 125.186 86.6006 124.91 86.4526 124.662C86.3046 124.414 86.1066 124.218 85.8586 124.074C85.6106 123.926 85.3346 123.852 85.0306 123.852C84.7306 123.852 84.4546 123.926 84.2026 124.074C83.9546 124.218 83.7566 124.414 83.6086 124.662C83.4606 124.91 83.3866 125.186 83.3866 125.49V129H82.3786V123H83.3866V123.75C83.5986 123.47 83.8666 123.248 84.1906 123.084C84.5146 122.916 84.8666 122.832 85.2466 122.832C85.6946 122.832 86.1026 122.942 86.4706 123.162C86.8426 123.378 87.1366 123.67 87.3526 124.038C87.5726 124.406 87.6826 124.816 87.6826 125.268ZM93.6513 123H94.6593V129.192C94.6593 129.588 94.5733 129.956 94.4013 130.296C94.2333 130.64 94.0053 130.938 93.7173 131.19C93.4293 131.446 93.1013 131.644 92.7333 131.784C92.3653 131.928 91.9813 132 91.5813 132C91.1653 132 90.7633 131.906 90.3753 131.718C89.9873 131.534 89.6473 131.286 89.3553 130.974C89.0673 130.666 88.8593 130.32 88.7313 129.936L89.6553 129.516C89.7313 129.792 89.8673 130.04 90.0633 130.26C90.2633 130.484 90.4953 130.66 90.7593 130.788C91.0273 130.92 91.3013 130.986 91.5813 130.986C91.8453 130.986 92.0993 130.94 92.3433 130.848C92.5913 130.756 92.8133 130.628 93.0093 130.464C93.2093 130.304 93.3653 130.114 93.4773 129.894C93.5933 129.678 93.6513 129.444 93.6513 129.192V127.998C93.4473 128.342 93.1773 128.622 92.8413 128.838C92.5093 129.05 92.1213 129.156 91.6773 129.156C91.2533 129.156 90.8553 129.074 90.4833 128.91C90.1113 128.746 89.7853 128.52 89.5053 128.232C89.2253 127.94 89.0053 127.604 88.8453 127.224C88.6853 126.844 88.6053 126.436 88.6053 126C88.6053 125.564 88.6853 125.156 88.8453 124.776C89.0053 124.392 89.2253 124.056 89.5053 123.768C89.7853 123.476 90.1113 123.248 90.4833 123.084C90.8553 122.92 91.2533 122.838 91.6773 122.838C92.1213 122.838 92.5093 122.944 92.8413 123.156C93.1773 123.368 93.4473 123.648 93.6513 123.996V123ZM91.6833 128.178C92.0713 128.178 92.4073 128.078 92.6913 127.878C92.9793 127.678 93.2013 127.412 93.3573 127.08C93.5133 126.748 93.5913 126.388 93.5913 126C93.5913 125.6 93.5113 125.236 93.3513 124.908C93.1953 124.576 92.9733 124.312 92.6853 124.116C92.4013 123.916 92.0673 123.816 91.6833 123.816C91.3073 123.816 90.9633 123.914 90.6513 124.11C90.3393 124.306 90.0913 124.57 89.9073 124.902C89.7273 125.23 89.6373 125.596 89.6373 126C89.6373 126.404 89.7293 126.772 89.9133 127.104C90.1013 127.432 90.3493 127.694 90.6573 127.89C90.9693 128.082 91.3113 128.178 91.6833 128.178ZM103.495 123H104.563L101.281 132H100.213L101.299 129L99.1448 123H100.249L101.803 127.614L103.495 123ZM108.178 129.156C107.626 129.156 107.122 129.014 106.666 128.73C106.214 128.446 105.852 128.066 105.58 127.59C105.312 127.11 105.178 126.58 105.178 126C105.178 125.56 105.256 125.15 105.412 124.77C105.568 124.386 105.782 124.05 106.054 123.762C106.33 123.47 106.65 123.242 107.014 123.078C107.378 122.914 107.766 122.832 108.178 122.832C108.73 122.832 109.232 122.974 109.684 123.258C110.14 123.542 110.502 123.924 110.77 124.404C111.042 124.884 111.178 125.416 111.178 126C111.178 126.436 111.1 126.844 110.944 127.224C110.788 127.604 110.572 127.94 110.296 128.232C110.024 128.52 109.706 128.746 109.342 128.91C108.982 129.074 108.594 129.156 108.178 129.156ZM108.178 128.148C108.554 128.148 108.892 128.05 109.192 127.854C109.496 127.654 109.734 127.392 109.906 127.068C110.082 126.74 110.17 126.384 110.17 126C110.17 125.608 110.08 125.248 109.9 124.92C109.724 124.592 109.486 124.33 109.186 124.134C108.886 123.938 108.55 123.84 108.178 123.84C107.802 123.84 107.464 123.94 107.164 124.14C106.864 124.336 106.626 124.598 106.45 124.926C106.274 125.254 106.186 125.612 106.186 126C106.186 126.4 106.276 126.764 106.456 127.092C106.636 127.416 106.878 127.674 107.182 127.866C107.486 128.054 107.818 128.148 108.178 128.148ZM112.049 126.72V123H113.057V126.498C113.057 126.802 113.131 127.078 113.279 127.326C113.427 127.574 113.625 127.772 113.873 127.92C114.125 128.064 114.401 128.136 114.701 128.136C115.005 128.136 115.279 128.064 115.523 127.92C115.771 127.772 115.969 127.574 116.117 127.326C116.265 127.078 116.339 126.802 116.339 126.498V123H117.347L117.353 129H116.345L116.339 128.238C116.127 128.518 115.859 128.742 115.535 128.91C115.211 129.074 114.861 129.156 114.485 129.156C114.037 129.156 113.627 129.048 113.255 128.832C112.887 128.612 112.593 128.318 112.373 127.95C112.157 127.582 112.049 127.172 112.049 126.72ZM118.758 129V123H119.766V123.75C119.978 123.47 120.246 123.248 120.57 123.084C120.894 122.916 121.246 122.832 121.626 122.832C121.858 122.832 122.082 122.862 122.298 122.922L121.89 123.93C121.726 123.878 121.566 123.852 121.41 123.852C121.11 123.852 120.834 123.926 120.582 124.074C120.334 124.218 120.136 124.414 119.988 124.662C119.84 124.91 119.766 125.186 119.766 125.49V129H118.758ZM127.432 132H126.424V123H127.432V124.026C127.636 123.674 127.908 123.39 128.248 123.174C128.588 122.954 128.992 122.844 129.46 122.844C129.896 122.844 130.304 122.926 130.684 123.09C131.068 123.254 131.404 123.482 131.692 123.774C131.98 124.062 132.206 124.396 132.37 124.776C132.534 125.156 132.616 125.564 132.616 126C132.616 126.436 132.534 126.846 132.37 127.23C132.206 127.614 131.98 127.952 131.692 128.244C131.404 128.532 131.068 128.758 130.684 128.922C130.304 129.086 129.896 129.168 129.46 129.168C128.992 129.168 128.588 129.06 128.248 128.844C127.908 128.624 127.636 128.338 127.432 127.986V132ZM129.448 123.822C129.06 123.822 128.72 123.92 128.428 124.116C128.136 124.312 127.91 124.574 127.75 124.902C127.594 125.23 127.516 125.596 127.516 126C127.516 126.4 127.594 126.766 127.75 127.098C127.91 127.43 128.134 127.694 128.422 127.89C128.714 128.086 129.056 128.184 129.448 128.184C129.836 128.184 130.192 128.088 130.516 127.896C130.84 127.7 131.1 127.438 131.296 127.11C131.492 126.778 131.59 126.408 131.59 126C131.59 125.6 131.494 125.236 131.302 124.908C131.11 124.576 130.852 124.312 130.528 124.116C130.204 123.92 129.844 123.822 129.448 123.822ZM133.819 129V123H134.827V123.75C135.039 123.47 135.307 123.248 135.631 123.084C135.955 122.916 136.307 122.832 136.687 122.832C136.919 122.832 137.143 122.862 137.359 122.922L136.951 123.93C136.787 123.878 136.627 123.852 136.471 123.852C136.171 123.852 135.895 123.926 135.643 124.074C135.395 124.218 135.197 124.414 135.049 124.662C134.901 124.91 134.827 125.186 134.827 125.49V129H133.819ZM138.297 123H139.305V129H138.297V123ZM138.813 122.022C138.653 122.022 138.519 121.97 138.411 121.866C138.303 121.762 138.249 121.632 138.249 121.476C138.249 121.32 138.303 121.19 138.411 121.086C138.519 120.982 138.651 120.93 138.807 120.93C138.963 120.93 139.095 120.982 139.203 121.086C139.311 121.19 139.365 121.32 139.365 121.476C139.365 121.632 139.311 121.762 139.203 121.866C139.099 121.97 138.969 122.022 138.813 122.022ZM143.96 129H142.67L140.48 122.988H141.554L143.312 127.83L145.07 122.988H146.144L143.96 129ZM151.911 123H152.919V129H151.911L151.869 127.986C151.681 128.334 151.421 128.616 151.089 128.832C150.761 129.048 150.369 129.156 149.913 129.156C149.473 129.156 149.061 129.074 148.677 128.91C148.293 128.742 147.953 128.512 147.657 128.22C147.365 127.924 147.137 127.584 146.973 127.2C146.809 126.816 146.727 126.402 146.727 125.958C146.727 125.53 146.807 125.126 146.967 124.746C147.127 124.366 147.349 124.034 147.633 123.75C147.921 123.462 148.253 123.238 148.629 123.078C149.005 122.914 149.409 122.832 149.841 122.832C150.313 122.832 150.727 122.944 151.083 123.168C151.439 123.388 151.727 123.674 151.947 124.026L151.911 123ZM149.895 128.178C150.291 128.178 150.633 128.082 150.921 127.89C151.213 127.694 151.437 127.43 151.593 127.098C151.753 126.766 151.833 126.4 151.833 126C151.833 125.592 151.753 125.224 151.593 124.896C151.433 124.564 151.207 124.302 150.915 124.11C150.627 123.914 150.287 123.816 149.895 123.816C149.499 123.816 149.139 123.914 148.815 124.11C148.491 124.306 148.233 124.57 148.041 124.902C147.853 125.23 147.759 125.596 147.759 126C147.759 126.404 147.857 126.772 148.053 127.104C148.249 127.432 148.509 127.694 148.833 127.89C149.157 128.082 149.511 128.178 149.895 128.178ZM158.335 127.416L159.235 127.902C158.963 128.282 158.617 128.586 158.197 128.814C157.781 129.042 157.329 129.156 156.841 129.156C156.289 129.156 155.785 129.014 155.329 128.73C154.877 128.446 154.515 128.066 154.243 127.59C153.975 127.11 153.841 126.58 153.841 126C153.841 125.56 153.919 125.15 154.075 124.77C154.231 124.386 154.445 124.05 154.717 123.762C154.993 123.47 155.313 123.242 155.677 123.078C156.041 122.914 156.429 122.832 156.841 122.832C157.329 122.832 157.781 122.946 158.197 123.174C158.617 123.402 158.963 123.708 159.235 124.092L158.335 124.578C158.143 124.342 157.915 124.16 157.651 124.032C157.387 123.904 157.117 123.84 156.841 123.84C156.469 123.84 156.131 123.94 155.827 124.14C155.527 124.336 155.289 124.598 155.113 124.926C154.937 125.254 154.849 125.612 154.849 126C154.849 126.388 154.937 126.746 155.113 127.074C155.293 127.398 155.533 127.658 155.833 127.854C156.137 128.05 156.473 128.148 156.841 128.148C157.137 128.148 157.415 128.08 157.675 127.944C157.935 127.808 158.155 127.632 158.335 127.416ZM164.359 123H165.427L162.145 132H161.077L162.163 129L160.009 123H161.113L162.667 127.614L164.359 123ZM169.787 126.48V120.6H170.657V126.48H169.787ZM170.225 129.156C170.069 129.156 169.937 129.102 169.829 128.994C169.721 128.886 169.667 128.754 169.667 128.598C169.667 128.446 169.721 128.318 169.829 128.214C169.937 128.106 170.069 128.052 170.225 128.052C170.373 128.052 170.499 128.106 170.603 128.214C170.711 128.318 170.765 128.446 170.765 128.598C170.765 128.754 170.711 128.886 170.603 128.994C170.499 129.102 170.373 129.156 170.225 129.156Z" fill="white"/>
<path d="M367.562 65.088L368 61.7279L344.431 58.6601L253.261 46.8001L229.692 43.7322L229.253 47.0923C229.509 47.1133 229.758 47.186 229.986 47.3061C230.213 47.4261 230.413 47.591 230.575 47.7907C230.736 47.9904 230.856 48.2209 230.926 48.4681C230.995 48.7152 231.015 48.9741 230.982 49.2288C230.949 49.4836 230.864 49.729 230.734 49.9503C230.603 50.1715 230.429 50.3639 230.222 50.516C230.015 50.668 229.779 50.7764 229.529 50.8347C229.279 50.893 229.019 50.8999 228.766 50.855L228.404 53.6443C228.659 53.6661 228.908 53.7394 229.134 53.8598C229.361 53.9802 229.561 54.1453 229.722 54.345C229.883 54.5448 230.001 54.7751 230.071 55.0221C230.14 55.269 230.159 55.5275 230.126 55.7819C230.093 56.0363 230.009 56.2813 229.878 56.5022C229.748 56.7231 229.574 56.9153 229.367 57.0672C229.16 57.2191 228.925 57.3275 228.675 57.3859C228.425 57.4444 228.166 57.4516 227.914 57.4071L227.551 60.1964C227.807 60.2181 228.055 60.2914 228.282 60.4119C228.508 60.5323 228.708 60.6974 228.869 60.8971C229.03 61.0969 229.149 61.3272 229.218 61.5741C229.288 61.8211 229.307 62.0795 229.273 62.3339C229.24 62.5883 229.156 62.8334 229.026 63.0543C228.895 63.2752 228.721 63.4674 228.515 63.6193C228.308 63.7712 228.072 63.8796 227.823 63.938C227.573 63.9964 227.314 64.0036 227.061 63.9592L226.657 67.065L226.685 67.0684C229.402 67.4394 231.863 68.8703 233.529 71.0488C235.195 73.2273 235.932 75.9765 235.578 78.6962C235.224 81.4158 233.809 83.8852 231.641 85.565C229.473 87.2449 226.729 87.999 224.007 87.6625L223.979 87.6586L223.531 91.1054C223.786 91.1271 224.035 91.2004 224.261 91.3208C224.488 91.4412 224.688 91.6063 224.849 91.8061C225.01 92.0058 225.128 92.2361 225.198 92.4831C225.267 92.73 225.286 92.9885 225.253 93.2429C225.22 93.4973 225.136 93.7423 225.005 93.9632C224.875 94.1842 224.701 94.3763 224.494 94.5282C224.287 94.6801 224.052 94.7885 223.802 94.8469C223.552 94.9054 223.293 94.9126 223.041 94.8681L222.678 97.6574C222.935 97.6773 223.185 97.7494 223.414 97.8692C223.642 97.989 223.844 98.1541 224.006 98.3543C224.169 98.5546 224.289 98.7858 224.359 99.034C224.429 99.2821 224.448 99.542 224.414 99.7977C224.381 100.053 224.296 100.3 224.164 100.521C224.032 100.743 223.857 100.935 223.648 101.087C223.439 101.239 223.202 101.346 222.951 101.403C222.699 101.46 222.439 101.465 222.185 101.418L221.822 104.208C222.078 104.229 222.327 104.301 222.555 104.421C222.782 104.541 222.982 104.706 223.144 104.906C223.305 105.106 223.425 105.336 223.494 105.583C223.564 105.831 223.583 106.089 223.551 106.344C223.518 106.599 223.433 106.844 223.303 107.066C223.172 107.287 222.998 107.479 222.791 107.631C222.584 107.783 222.348 107.892 222.098 107.95C221.848 108.008 221.588 108.015 221.335 107.97L220.942 110.992L244.511 114.06L335.677 125.923L359.249 128.991L359.642 125.971C359.387 125.949 359.139 125.875 358.913 125.754C358.687 125.634 358.488 125.469 358.328 125.269C358.167 125.069 358.049 124.839 357.98 124.593C357.91 124.346 357.892 124.088 357.925 123.834C357.958 123.58 358.042 123.336 358.172 123.115C358.302 122.895 358.475 122.703 358.681 122.551C358.888 122.399 359.122 122.29 359.372 122.231C359.621 122.172 359.879 122.164 360.132 122.208L360.494 119.419C360.239 119.398 359.99 119.324 359.764 119.204C359.538 119.084 359.338 118.919 359.177 118.719C359.016 118.52 358.897 118.289 358.827 118.043C358.758 117.796 358.739 117.538 358.772 117.283C358.804 117.029 358.889 116.784 359.019 116.563C359.149 116.342 359.322 116.15 359.529 115.998C359.735 115.846 359.971 115.737 360.22 115.678C360.47 115.619 360.729 115.612 360.981 115.656L361.345 112.867C361.089 112.846 360.841 112.772 360.614 112.652C360.388 112.532 360.188 112.367 360.027 112.167C359.866 111.968 359.747 111.737 359.677 111.491C359.608 111.244 359.589 110.985 359.622 110.731C359.655 110.477 359.739 110.232 359.869 110.011C359.999 109.79 360.173 109.598 360.379 109.446C360.586 109.293 360.821 109.185 361.07 109.126C361.32 109.067 361.579 109.06 361.832 109.104L362.28 105.658L362.252 105.654C360.9 105.478 359.596 105.038 358.414 104.358C357.232 103.678 356.195 102.772 355.364 101.691C354.532 100.611 353.921 99.3768 353.566 98.0602C353.211 96.7437 353.119 95.3701 353.295 94.0179C353.471 92.6657 353.911 91.3614 354.591 90.1794C355.271 88.9974 356.177 87.9609 357.258 87.1292C358.338 86.2974 359.572 85.6865 360.888 85.3315C362.205 84.9766 363.578 84.8844 364.931 85.0602L364.959 85.0636L365.363 81.9578C365.107 81.9368 364.858 81.864 364.631 81.744C364.404 81.6239 364.203 81.4591 364.042 81.2593C363.88 81.0596 363.761 80.8292 363.691 80.582C363.621 80.3348 363.602 80.076 363.635 79.8212C363.668 79.5665 363.752 79.321 363.883 79.0998C364.013 78.8786 364.187 78.6861 364.394 78.5341C364.602 78.3821 364.837 78.2736 365.088 78.2154C365.338 78.1571 365.597 78.1502 365.85 78.195L366.213 75.4057C365.957 75.3847 365.708 75.312 365.481 75.1919C365.254 75.0719 365.054 74.907 364.892 74.7073C364.73 74.5075 364.611 74.2771 364.541 74.0299C364.471 73.7827 364.452 73.5239 364.485 73.2692C364.518 73.0144 364.602 72.769 364.733 72.5477C364.864 72.3265 365.038 72.134 365.245 71.982C365.452 71.83 365.688 71.7216 365.938 71.6633C366.188 71.605 366.447 71.5981 366.7 71.6429L367.063 68.8536C366.807 68.8319 366.559 68.7586 366.332 68.6382C366.106 68.5178 365.906 68.3527 365.745 68.1529C365.584 67.9532 365.465 67.7229 365.396 67.4759C365.326 67.229 365.307 66.9705 365.341 66.7161C365.374 66.4617 365.458 66.2167 365.589 65.9958C365.719 65.7748 365.893 65.5826 366.1 65.4308C366.306 65.2789 366.542 65.1705 366.791 65.112C367.041 65.0536 367.3 65.0464 367.553 65.0909L367.562 65.088Z" fill="#FBB65C"/>
<path d="M346.117 121.441C346.089 121.443 346.062 121.443 346.035 121.441L235.641 107.075C235.588 107.068 235.537 107.051 235.491 107.025C235.445 106.999 235.405 106.963 235.372 106.921C235.34 106.879 235.316 106.831 235.302 106.78C235.288 106.729 235.285 106.675 235.291 106.622L242.447 51.6327C242.461 51.5264 242.517 51.43 242.602 51.3646C242.687 51.2992 242.794 51.2702 242.9 51.284L353.294 65.6494C353.347 65.6563 353.398 65.6734 353.444 65.6999C353.49 65.7264 353.53 65.7617 353.563 65.8038C353.595 65.8459 353.619 65.894 353.633 65.9453C353.647 65.9966 353.65 66.0501 353.643 66.1028L346.489 121.091C346.476 121.184 346.433 121.269 346.365 121.332C346.297 121.396 346.209 121.434 346.117 121.441ZM236.146 106.324L345.739 120.585L352.788 66.3984L243.197 52.1377L236.146 106.324Z" fill="#FBB65C"/>
<path d="M284.476 149.195C284.199 149.188 283.936 149.071 283.744 148.87C283.553 148.669 283.45 148.401 283.457 148.124L283.944 129.099C283.951 128.821 284.068 128.558 284.269 128.367C284.471 128.175 284.74 128.072 285.017 128.079C285.295 128.086 285.558 128.203 285.75 128.404C285.941 128.606 286.045 128.875 286.038 129.153L285.551 148.177C285.547 148.315 285.516 148.45 285.46 148.576C285.404 148.701 285.324 148.814 285.224 148.909C285.124 149.003 285.007 149.077 284.878 149.126C284.75 149.175 284.613 149.199 284.476 149.195Z" fill="#FCAB4C"/>
<path d="M319.168 140.565C319.031 140.562 318.896 140.531 318.77 140.475C318.645 140.419 318.532 140.339 318.438 140.24L305.328 126.443C305.14 126.241 305.039 125.974 305.048 125.698C305.056 125.422 305.173 125.161 305.373 124.971C305.573 124.781 305.84 124.678 306.116 124.684C306.391 124.689 306.654 124.804 306.846 125.002L319.953 138.798C320.096 138.948 320.191 139.137 320.226 139.341C320.261 139.545 320.235 139.755 320.151 139.944C320.067 140.133 319.929 140.293 319.754 140.404C319.579 140.514 319.375 140.57 319.168 140.565Z" fill="#FCAB4C"/>
<path d="M250.271 138.8C250.064 138.795 249.864 138.728 249.695 138.609C249.526 138.489 249.396 138.322 249.321 138.129C249.247 137.936 249.232 137.725 249.277 137.523C249.323 137.322 249.427 137.138 249.577 136.995L263.374 123.888C263.473 123.79 263.59 123.713 263.719 123.661C263.849 123.609 263.987 123.583 264.126 123.585C264.265 123.587 264.403 123.617 264.53 123.673C264.658 123.729 264.773 123.81 264.869 123.911C264.965 124.012 265.04 124.131 265.089 124.261C265.138 124.391 265.161 124.53 265.156 124.669C265.151 124.808 265.118 124.945 265.06 125.071C265.001 125.198 264.918 125.311 264.815 125.405L251.019 138.513C250.919 138.607 250.802 138.682 250.674 138.731C250.545 138.78 250.409 138.804 250.271 138.8Z" fill="#FCAB4C"/>
<path d="M295.529 5.00464C295.805 5.03055 296.06 5.16515 296.237 5.37885C296.414 5.59254 296.499 5.86782 296.473 6.14413L294.689 25.0913C294.66 25.365 294.525 25.6163 294.312 25.7906C294.099 25.9649 293.825 26.0483 293.551 26.0227C293.277 25.9971 293.024 25.8645 292.847 25.6537C292.67 25.4429 292.584 25.1709 292.606 24.8965L294.389 5.94983C294.402 5.81288 294.442 5.67976 294.506 5.5581C294.57 5.43643 294.657 5.32861 294.763 5.24081C294.869 5.15301 294.991 5.08695 295.122 5.04642C295.254 5.0059 295.392 4.9917 295.529 5.00464Z" fill="#FCAB4C"/>
<path d="M260.329 11.249C260.466 11.2616 260.599 11.3012 260.72 11.3655C260.842 11.4298 260.949 11.5174 261.037 11.6234L273.173 26.281C273.35 26.4947 273.435 26.77 273.409 27.0463C273.383 27.3225 273.248 27.5771 273.035 27.754C272.821 27.931 272.546 28.0158 272.269 27.9897C271.993 27.9637 271.738 27.829 271.561 27.6153L259.425 12.9577C259.293 12.7983 259.211 12.6034 259.19 12.3975C259.169 12.1917 259.209 11.9841 259.306 11.8012C259.403 11.6183 259.551 11.4681 259.734 11.3697C259.916 11.2713 260.123 11.2291 260.329 11.2485V11.249Z" fill="#FCAB4C"/>
<path d="M328.946 17.7095C329.152 17.7284 329.349 17.8083 329.51 17.9391C329.671 18.0699 329.79 18.2456 329.851 18.4439C329.912 18.6422 329.912 18.8542 329.852 19.053C329.793 19.2517 329.675 19.4281 329.515 19.5599L314.857 31.696C314.752 31.7836 314.63 31.8495 314.498 31.89C314.367 31.9304 314.229 31.9446 314.092 31.9317C313.955 31.9188 313.822 31.8791 313.701 31.8148C313.58 31.7506 313.472 31.663 313.384 31.5572C313.297 31.4514 313.231 31.3293 313.19 31.198C313.15 31.0667 313.136 30.9287 313.149 30.7919C313.162 30.6552 313.201 30.5222 313.265 30.4008C313.33 30.2794 313.417 30.1718 313.523 30.0842L328.181 17.9481C328.286 17.8599 328.408 17.7934 328.539 17.7525C328.671 17.7115 328.809 17.6969 328.946 17.7095Z" fill="#FCAB4C"/>
<path d="M357.887 46.784L358.139 43.2852L333.581 41.518L238.6 34.683L214.043 32.9159L213.791 36.4142C214.05 36.4313 214.302 36.4994 214.534 36.6144C214.766 36.7295 214.974 36.8893 215.144 37.0847C215.314 37.2801 215.444 37.5072 215.526 37.7529C215.608 37.9986 215.64 38.2581 215.622 38.5165C215.603 38.7749 215.534 39.027 215.417 39.2585C215.301 39.4899 215.14 39.696 214.943 39.865C214.747 40.034 214.519 40.1625 214.273 40.2431C214.027 40.3237 213.767 40.3548 213.509 40.3347L213.3 43.2404C213.559 43.2572 213.811 43.325 214.044 43.4399C214.276 43.5548 214.484 43.7145 214.654 43.9099C214.825 44.1053 214.955 44.3325 215.037 44.5784C215.119 44.8243 215.152 45.0841 215.133 45.3427C215.115 45.6013 215.045 45.8537 214.929 46.0853C214.812 46.3169 214.651 46.5231 214.454 46.6921C214.257 46.8612 214.029 46.9896 213.783 47.0701C213.536 47.1505 213.276 47.1814 213.018 47.161L212.809 50.0667C213.067 50.0834 213.32 50.1512 213.553 50.2661C213.785 50.381 213.992 50.5407 214.163 50.7362C214.333 50.9316 214.463 51.1588 214.546 51.4047C214.628 51.6506 214.661 51.9103 214.642 52.1689C214.623 52.4275 214.554 52.6799 214.437 52.9115C214.321 53.1431 214.159 53.3494 213.963 53.5184C213.766 53.6874 213.538 53.8158 213.292 53.8963C213.045 53.9767 212.785 54.0076 212.527 53.9872L212.294 57.223H212.323C215.165 57.4314 217.809 58.7594 219.673 60.9154C221.537 63.0715 222.469 65.8792 222.264 68.7219C222.06 71.5646 220.735 74.2099 218.582 76.0768C216.428 77.9436 213.622 78.8794 210.779 78.6786H210.75L210.491 82.269C210.75 82.2857 211.003 82.3535 211.235 82.4684C211.468 82.5833 211.675 82.743 211.845 82.9385C212.016 83.1339 212.146 83.3611 212.228 83.607C212.31 83.8529 212.343 84.1126 212.324 84.3712C212.306 84.6298 212.236 84.8822 212.12 85.1138C212.003 85.3454 211.842 85.5517 211.645 85.7207C211.449 85.8897 211.221 86.0181 210.974 86.0986C210.728 86.179 210.468 86.2099 210.209 86.1895L210 89.0952C210.259 89.1123 210.511 89.1804 210.743 89.2954C210.975 89.4105 211.183 89.5703 211.353 89.7657C211.523 89.9611 211.653 90.1882 211.735 90.4339C211.817 90.6796 211.849 90.9391 211.831 91.1975C211.812 91.4559 211.743 91.708 211.626 91.9395C211.51 92.1709 211.349 92.377 211.152 92.546C210.956 92.715 210.728 92.8435 210.482 92.9241C210.236 93.0047 209.976 93.0358 209.718 93.0157L209.509 95.9214C209.768 95.9382 210.02 96.0059 210.253 96.1208C210.485 96.2358 210.693 96.3955 210.863 96.5909C211.034 96.7863 211.164 97.0135 211.246 97.2594C211.328 97.5053 211.361 97.7651 211.342 98.0237C211.324 98.2823 211.254 98.5347 211.138 98.7663C211.021 98.9979 210.86 99.2041 210.663 99.3731C210.466 99.5422 210.238 99.6706 209.992 99.751C209.745 99.8315 209.485 99.8624 209.227 99.8419L209 102.99L233.557 104.757L328.537 111.592L353.095 113.359L353.321 110.211C353.063 110.194 352.81 110.126 352.578 110.011C352.346 109.896 352.139 109.736 351.969 109.541C351.799 109.345 351.669 109.118 351.587 108.873C351.505 108.627 351.472 108.367 351.491 108.109C351.51 107.851 351.579 107.598 351.695 107.367C351.812 107.136 351.973 106.929 352.169 106.761C352.366 106.592 352.593 106.463 352.84 106.382C353.086 106.302 353.346 106.271 353.604 106.291L353.813 103.385C353.554 103.368 353.302 103.3 353.07 103.185C352.838 103.07 352.63 102.91 352.46 102.715C352.29 102.519 352.16 102.292 352.078 102.046C351.996 101.801 351.964 101.541 351.982 101.283C352.001 101.024 352.07 100.772 352.187 100.541C352.303 100.309 352.464 100.103 352.661 99.9343C352.857 99.7653 353.085 99.6368 353.331 99.5562C353.577 99.4756 353.837 99.4445 354.095 99.4646L354.304 96.5589C354.045 96.5421 353.792 96.4743 353.56 96.3594C353.328 96.2445 353.12 96.0848 352.95 95.8894C352.779 95.6939 352.649 95.4668 352.567 95.2209C352.485 94.975 352.452 94.7152 352.471 94.4566C352.489 94.198 352.559 93.9456 352.675 93.714C352.792 93.4824 352.953 93.2762 353.15 93.1071C353.346 92.9381 353.575 92.8097 353.821 92.7292C354.068 92.6488 354.328 92.6179 354.586 92.6383L354.845 89.048H354.815C351.97 88.8432 349.323 87.5165 347.456 85.3599C345.589 83.2032 344.655 80.3931 344.859 77.5479C345.064 74.7026 346.391 72.0552 348.548 70.1881C350.704 68.321 353.514 67.3872 356.36 67.5919H356.389L356.622 64.3561C356.102 64.3187 355.618 64.0763 355.277 63.6823C354.936 63.2883 354.765 62.7749 354.802 62.2551C354.84 61.7352 355.082 61.2516 355.476 60.9104C355.87 60.5693 356.384 60.3986 356.903 60.436L357.113 57.5298C356.855 57.5113 356.604 57.4423 356.374 57.3267C356.143 57.2111 355.937 57.0512 355.768 56.8561C355.599 56.661 355.47 56.4345 355.389 56.1896C355.308 55.9448 355.275 55.6862 355.294 55.4288C355.312 55.1714 355.381 54.9202 355.497 54.6895C355.613 54.4588 355.772 54.2531 355.968 54.0842C356.163 53.9153 356.389 53.7864 356.634 53.705C356.879 53.6236 357.137 53.5913 357.395 53.6098L357.604 50.7036C357.346 50.6851 357.095 50.616 356.864 50.5004C356.634 50.3847 356.428 50.2248 356.259 50.0297C356.09 49.8346 355.961 49.6081 355.88 49.3632C355.799 49.1183 355.766 48.8598 355.785 48.6024C355.803 48.345 355.873 48.0938 355.988 47.863C356.104 47.6323 356.264 47.4267 356.459 47.2578C356.654 47.0889 356.88 46.9601 357.125 46.8787C357.37 46.7973 357.629 46.765 357.886 46.7836L357.887 46.784Z" fill="#FCAB4C"/>
<path d="M338.985 106.337L223.971 98.0582C223.916 98.0545 223.862 98.04 223.813 98.0155C223.763 97.991 223.719 97.957 223.683 97.9154C223.647 97.8738 223.619 97.8255 223.602 97.7732C223.584 97.7209 223.577 97.6656 223.581 97.6107L227.704 40.3215C227.708 40.2665 227.722 40.2128 227.747 40.1634C227.771 40.114 227.805 40.0699 227.847 40.0337C227.888 39.9975 227.937 39.9698 227.989 39.9524C228.041 39.9349 228.097 39.928 228.152 39.932L343.165 48.2103C343.22 48.214 343.274 48.2284 343.323 48.2529C343.373 48.2774 343.417 48.3115 343.453 48.3531C343.489 48.3946 343.517 48.443 343.534 48.4953C343.552 48.5476 343.559 48.6028 343.555 48.6578L339.432 105.947C339.428 106.002 339.414 106.056 339.389 106.105C339.365 106.154 339.331 106.198 339.289 106.234C339.248 106.271 339.2 106.298 339.147 106.316C339.095 106.333 339.04 106.34 338.985 106.337ZM224.449 97.2547L338.628 105.471L342.69 49.0211L228.511 40.8022L224.449 97.2547Z" fill="white"/>
<path d="M247.41 64.3765C246.895 64.3159 246.374 64.3847 245.893 64.5767C245.412 64.7688 244.986 65.0779 244.655 65.4761C243.965 66.2922 243.564 67.4694 243.453 69.0075C243.223 72.2091 244.31 73.8964 246.712 74.0695C247.97 74.1112 249.226 73.9447 250.43 73.5767L250.246 76.1298C248.956 76.5451 247.596 76.6991 246.245 76.5827C244.157 76.4324 242.605 75.6839 241.589 74.3373C240.574 72.9907 240.152 71.1324 240.323 68.7626C240.39 67.4072 240.765 66.0849 241.42 64.8961C242 63.8547 242.881 63.013 243.948 62.4817C245.083 61.9423 246.342 61.7208 247.593 61.8409C249.051 61.9615 250.463 62.411 251.723 63.1557L250.563 65.5598C250.053 65.2702 249.529 65.0084 248.991 64.7753C248.49 64.5541 247.955 64.4192 247.41 64.3765Z" fill="white"/>
<path d="M266.811 70.6296C266.639 73.006 265.918 74.7902 264.648 75.9823C263.378 77.1744 261.643 77.6911 259.443 77.5323C257.243 77.3739 255.6 76.6141 254.513 75.2528C253.427 73.8916 252.969 72.016 253.141 69.626C253.313 67.2363 254.035 65.4539 255.308 64.2787C256.581 63.1035 258.32 62.5951 260.526 62.7535C262.734 62.9122 264.376 63.6688 265.452 65.0232C266.528 66.3776 266.981 68.2464 266.811 70.6296ZM256.332 69.8753C256.216 71.4794 256.434 72.7093 256.984 73.565C257.276 73.9979 257.67 74.3528 258.13 74.5989C258.591 74.8451 259.105 74.9749 259.627 74.9772C262.056 75.1522 263.387 73.6264 263.62 70.3998C263.852 67.1654 262.76 65.461 260.345 65.2867C259.826 65.215 259.297 65.2709 258.804 65.4496C258.311 65.6283 257.869 65.9244 257.517 66.3122C256.842 67.0832 256.447 68.2709 256.332 69.8753Z" fill="white"/>
<path d="M281.988 64.5251L281.32 73.8153C281.271 74.7943 280.955 75.7412 280.407 76.5535C279.865 77.3258 279.1 77.9147 278.215 78.2418C277.183 78.6166 276.08 78.7564 274.987 78.6509C273.141 78.5184 271.741 77.9423 270.788 76.9226C270.306 76.3854 269.944 75.7509 269.728 75.062C269.512 74.3732 269.447 73.646 269.536 72.9295L270.201 63.6773L273.236 63.8954L272.605 72.6875C272.526 73.7939 272.69 74.6217 273.098 75.171C273.505 75.7203 274.223 76.032 275.252 76.106C275.645 76.1709 276.048 76.1486 276.432 76.0406C276.816 75.9327 277.171 75.7417 277.473 75.4812C277.96 74.9943 278.243 74.1935 278.322 73.079L278.955 64.3093L281.988 64.5251Z" fill="white"/>
<path d="M295.1 69.9702C294.989 71.5155 294.421 72.6625 293.396 73.4111C292.371 74.1597 290.969 74.4704 289.191 74.3432L287.885 74.2492L287.517 79.356L284.473 79.1368L285.506 64.7792L290.092 65.1094C291.834 65.2344 293.131 65.7051 293.984 66.5216C294.837 67.3381 295.209 68.4876 295.1 69.9702ZM288.062 71.754L289.063 71.8261C289.803 71.9345 290.557 71.7924 291.206 71.4224C291.455 71.2439 291.659 71.009 291.8 70.737C291.942 70.465 292.017 70.1634 292.02 69.8568C292.065 69.5683 292.046 69.2735 291.965 68.993C291.884 68.7126 291.742 68.4534 291.549 68.2337C291.047 67.8123 290.41 67.5845 289.754 67.5914L288.37 67.4941L288.062 71.754Z" fill="white"/>
<path d="M310.65 73.7841C310.479 76.1612 309.758 77.9454 308.488 79.1368C307.218 80.3282 305.482 80.8451 303.283 80.6873C301.083 80.5292 299.44 79.7692 298.353 78.4073C297.265 77.0455 296.809 75.1699 296.982 72.7805C297.154 70.3908 297.876 68.6084 299.148 67.4332C300.421 66.258 302.16 65.7497 304.367 65.9085C306.574 66.0672 308.216 66.8238 309.292 68.1782C310.369 69.5326 310.821 71.4013 310.65 73.7841ZM300.172 73.0284C300.056 74.6324 300.273 75.8622 300.824 76.7176C301.116 77.1505 301.509 77.5054 301.97 77.7516C302.43 77.9977 302.944 78.1275 303.466 78.1298C305.895 78.3048 307.226 76.7789 307.459 73.5523C307.692 70.3186 306.601 68.6142 304.185 68.4392C303.665 68.3675 303.136 68.4234 302.644 68.6021C302.151 68.7808 301.709 69.0769 301.357 69.4648C300.681 70.2378 300.285 71.4256 300.172 73.0284Z" fill="white"/>
<path d="M325.845 82.1136L321.975 81.8351L316.51 70.5239L316.421 70.5176C316.407 72.4444 316.371 73.8171 316.312 74.6359L315.825 81.3924L313.105 81.1977L314.138 66.8401L317.978 67.1162L323.44 78.3187L323.509 78.3236C323.545 76.4508 323.591 75.128 323.646 74.3554L324.133 67.5593L326.874 67.7565L325.845 82.1136Z" fill="white"/>
</g>
</g>
<defs>
<filter id="filter0_d_10_1945" x="-60" y="-56" width="500" height="276" filterUnits="userSpaceOnUse" color-interpolation-filters="sRGB">
<feFlood flood-opacity="0" result="BackgroundImageFix"/>
<feColorMatrix in="SourceAlpha" type="matrix" values="0 0 0 0 0 0 0 0 0 0 0 0 0 0 0 0 0 0 127 0" result="hardAlpha"/>
<feOffset dy="4"/>
<feGaussianBlur stdDeviation="30"/>
<feComposite in2="hardAlpha" operator="out"/>
<feColorMatrix type="matrix" values="0 0 0 0 0.0156863 0 0 0 0 0.0235294 0 0 0 0 0.0588235 0 0 0 0.05 0"/>
<feBlend mode="normal" in2="BackgroundImageFix" result="effect1_dropShadow_10_1945"/>
<feBlend mode="normal" in="SourceGraphic" in2="effect1_dropShadow_10_1945" result="shape"/>
</filter>
<linearGradient id="paint0_linear_10_1945" x1="0" y1="0" x2="109.611" y2="267.002" gradientUnits="userSpaceOnUse">
<stop stop-color="#FEAC2F"/>
<stop offset="1" stop-color="#DE4313"/>
</linearGradient>
<clipPath id="clip0_10_1945">
<rect width="380" height="156" rx="16" fill="white"/>
</clipPath>
</defs>
</svg>
