<svg width="200" height="239" viewBox="0 0 200 239" fill="none" xmlns="http://www.w3.org/2000/svg">
<g clip-path="url(#clip0_33_1901)">
<path d="M77.4619 195.624C73.4823 191.519 67.7154 189.166 61.6397 189.166L61.4053 189.166C57.4035 189.168 53.473 188.106 50.0159 186.09L49.6562 185.881L49.9459 185.582C51.5146 183.959 52.8243 182.105 53.8294 180.084C53.1156 180.75 52.2642 181.25 51.3355 181.55C50.4068 181.85 49.4235 181.942 48.4553 181.82C47.433 181.698 46.4516 181.347 45.5847 180.791C44.7178 180.236 43.9879 179.492 43.4497 178.614C41.3262 175.169 38.7949 170.28 38.7949 166.556C38.7982 163.408 39.4574 160.295 40.7303 157.416C42.0033 154.536 43.8621 151.954 46.1883 149.833C47.661 148.505 48.8373 146.882 49.6406 145.069C50.4438 143.256 50.8559 141.294 50.8501 139.311L50.8489 139.029C50.8485 136.418 51.1675 133.817 51.7989 131.284L51.863 131.028L52.1262 131.037C53.8234 131.095 55.5215 130.953 57.1855 130.613C55.6247 130.422 54.0978 130.016 52.6481 129.407L52.365 129.292L52.4611 129.002C59.0849 124.901 74.0368 127.024 82.7154 107.169C89.7525 91.0681 114.582 121.461 114.582 139.029C114.582 140.821 112.808 143.19 114.136 144.375C128.492 157.183 118.586 165.407 115.463 173.683C114.722 175.646 116.329 177.802 116.329 179.926C116.329 180.287 116.32 180.659 116.302 181.032L116.274 181.606L115.795 181.288C114.848 180.667 113.971 179.947 113.177 179.14C114 181.035 114.388 183.09 114.312 185.154C114.237 187.219 113.699 189.24 112.739 191.069C111.234 193.908 109.779 195.941 108.413 197.111C104.037 200.855 98.3952 202.787 92.6421 202.511C86.889 202.234 81.4588 199.771 77.4619 195.624H77.4619Z" fill="#E6E6E6"/>
<path d="M101.497 238.344C101.595 238.344 101.689 238.308 101.763 238.244C101.837 238.18 101.885 238.091 101.899 237.995C101.916 237.873 103.609 225.669 102.089 209.45C100.685 194.471 96.1783 172.895 82.6766 155.176C82.6443 155.134 82.6039 155.098 82.5577 155.071C82.5116 155.044 82.4605 155.026 82.4076 155.019C82.3546 155.012 82.3008 155.015 82.2491 155.029C82.1974 155.043 82.149 155.066 82.1065 155.099C82.0639 155.131 82.0283 155.172 82.0014 155.218C81.9745 155.264 81.957 155.315 81.9499 155.368C81.9428 155.421 81.9462 155.475 81.9599 155.526C81.9736 155.578 81.9973 155.627 82.0298 155.669C95.4148 173.235 99.8856 194.652 101.279 209.526C102.79 225.651 101.111 237.759 101.094 237.88C101.086 237.938 101.09 237.996 101.107 238.052C101.123 238.108 101.152 238.16 101.19 238.204C101.228 238.248 101.275 238.283 101.328 238.307C101.381 238.331 101.439 238.344 101.497 238.344V238.344Z" fill="#F14825"/>
<path d="M90.479 180.17C90.5649 180.17 90.6486 180.143 90.7182 180.093C90.7877 180.042 90.8394 179.971 90.866 179.889C90.8926 179.808 90.8926 179.72 90.8661 179.638C90.8396 179.556 90.7879 179.485 90.7184 179.434C86.8712 176.83 82.7152 174.715 78.346 173.136C71.5199 170.637 61.1397 168.372 50.4536 171.773C50.4026 171.789 50.3553 171.815 50.3144 171.849C50.2734 171.884 50.2397 171.926 50.2151 171.973C50.1905 172.021 50.1755 172.072 50.1709 172.126C50.1664 172.179 50.1724 172.233 50.1886 172.284C50.2048 172.335 50.2309 172.382 50.2654 172.423C50.2999 172.464 50.3421 172.497 50.3897 172.522C50.4372 172.546 50.4891 172.561 50.5424 172.566C50.5957 172.57 50.6493 172.564 50.7002 172.547C61.1674 169.216 71.3594 171.444 78.0663 173.9C82.3654 175.451 86.4547 177.532 90.2403 180.092C90.3096 180.143 90.3932 180.17 90.479 180.17Z" fill="#F14825"/>
<path d="M109.09 133.818C109.096 133.732 109.075 133.647 109.029 133.574C108.984 133.501 108.917 133.444 108.837 133.412C108.758 133.379 108.67 133.373 108.587 133.394C108.503 133.414 108.429 133.461 108.373 133.526C105.499 137.176 103.089 141.169 101.2 145.413C98.2161 152.041 95.2089 162.231 97.8315 173.135C97.8439 173.187 97.8665 173.236 97.8979 173.279C97.9292 173.322 97.9688 173.359 98.0144 173.387C98.06 173.415 98.1106 173.433 98.1634 173.442C98.2161 173.45 98.2701 173.448 98.322 173.435C98.374 173.423 98.423 173.4 98.4662 173.369C98.5094 173.337 98.546 173.298 98.5738 173.252C98.6017 173.207 98.6203 173.156 98.6286 173.103C98.6369 173.05 98.6347 172.997 98.6221 172.945C96.0534 162.265 99.0097 152.26 101.942 145.747C103.799 141.571 106.168 137.642 108.995 134.05C109.05 133.985 109.083 133.904 109.09 133.818Z" fill="#F14825"/>
<path d="M187.522 237.913H155.152L155.013 237.661C154.599 236.91 154.199 236.115 153.826 235.298C150.491 228.159 149.082 219.995 147.839 212.792L146.902 207.362C146.789 206.705 146.874 206.028 147.148 205.42C147.421 204.811 147.87 204.298 148.436 203.945C149.003 203.593 149.662 203.418 150.329 203.443C150.996 203.467 151.64 203.69 152.179 204.083C157.099 207.662 162.02 211.239 166.943 214.811C168.807 216.168 170.936 217.738 172.975 219.434C173.172 218.479 173.378 217.52 173.583 216.575C173.725 215.923 174.059 215.328 174.541 214.866C175.023 214.404 175.632 214.096 176.29 213.983C176.948 213.869 177.625 213.954 178.234 214.227C178.843 214.501 179.357 214.949 179.71 215.516L183.497 221.601C186.259 226.045 188.697 230.424 188.201 235.146C188.203 235.204 188.199 235.261 188.188 235.318C188.088 236.093 187.904 236.856 187.638 237.591L187.522 237.913Z" fill="#F0F0F0"/>
<path d="M172.441 110.653L166.193 87.5306C165.926 86.5517 165.284 85.7173 164.407 85.2074C163.529 84.6975 162.487 84.553 161.504 84.8051C160.995 84.9355 160.519 85.1681 160.103 85.4887C159.687 85.8094 159.341 86.2113 159.086 86.67C158.831 87.1287 158.672 87.6346 158.618 88.1568C158.565 88.6791 158.618 89.2067 158.776 89.7076L166.001 113.528L169.782 128.187C169.231 128.607 168.823 129.187 168.614 129.847C168.404 130.507 168.403 131.216 168.61 131.877C168.817 132.538 169.223 133.119 169.772 133.542C170.321 133.964 170.987 134.207 171.679 134.238C172.371 134.269 173.056 134.086 173.64 133.714C174.225 133.343 174.68 132.8 174.946 132.16C175.211 131.52 175.273 130.814 175.123 130.137C174.973 129.461 174.618 128.847 174.107 128.38L172.441 110.653Z" fill="#A0616A"/>
<path d="M119.872 105.673L138.853 91.0653C139.656 90.4441 140.181 89.5322 140.317 88.5266C140.453 87.521 140.189 86.5022 139.58 85.6902C139.265 85.2701 138.868 84.9185 138.413 84.6568C137.958 84.3952 137.454 84.229 136.933 84.1683C136.411 84.1077 135.883 84.1539 135.38 84.3041C134.877 84.4543 134.41 84.7054 134.007 85.042L114.755 100.821L102.653 109.915C102.054 109.567 101.362 109.412 100.672 109.47C99.9818 109.529 99.3263 109.798 98.7946 110.242C98.2629 110.686 97.8808 111.283 97.7002 111.952C97.5196 112.621 97.5492 113.329 97.7851 113.981C98.021 114.632 98.4517 115.195 99.0187 115.593C99.5856 115.991 100.261 116.205 100.954 116.206C101.647 116.206 102.323 115.994 102.891 115.596C103.458 115.199 103.89 114.637 104.127 113.986L119.872 105.673Z" fill="#A0616A"/>
<path d="M135.343 109.032L134.506 127.718L160.777 122.008C158.541 114.5 157.02 113.219 158.7 107.993L135.343 109.032Z" fill="#A0616A"/>
<path d="M151.496 74.7743H142.742L138.983 81.207L137.192 81.1081C136.316 81.0598 135.439 81.1906 134.615 81.4925C133.791 81.7945 133.038 82.2613 132.4 82.8644C131.763 83.4675 131.256 84.1942 130.909 85.0001C130.562 85.806 130.383 86.6742 130.383 87.5517L132.59 90.9724C132.59 90.9724 128.643 97.8512 134.328 101.235C134.328 101.235 133.314 107.611 134.328 107.543C135.343 107.474 137.678 106.177 135.343 107.474C133.007 108.772 133.181 108.946 133.483 109.248L133.785 109.551L158.346 113.675C158.346 113.675 159.065 108.913 159.142 108.064C159.22 107.215 158.7 109.291 159.22 107.215C159.739 105.139 160.517 105.917 159.739 105.139C158.96 104.36 164.783 94.714 162.391 90.9724L166.227 87.2308C166.227 83.6417 160.463 80.7322 156.873 80.7322H156.414L151.496 74.7743Z" fill="#E6E6E6"/>
<path d="M130.405 230.709H126.862L125.176 217.043L130.405 217.044L130.405 230.709Z" fill="#A0616A"/>
<path d="M119.712 235.937C119.713 236.334 119.871 236.714 120.152 236.995C120.432 237.276 120.812 237.435 121.209 237.437H127.879L128.085 237.009L129.029 235.063L129.394 237.009L129.475 237.437H131.99L131.954 237.006L131.284 228.962L130.406 228.908L126.615 228.683L125.683 228.627V231.028C124.976 231.78 119.43 234.622 119.712 235.937Z" fill="#F14825"/>
<path d="M183.06 221.429L180.081 223.346L171.27 212.765L175.667 209.936L183.06 221.429Z" fill="#A0616A"/>
<path d="M176.895 231.611C177.112 231.944 177.45 232.178 177.838 232.263C178.226 232.347 178.631 232.276 178.966 232.063L184.576 228.454L184.518 227.983L184.258 225.835L185.618 227.274L185.918 227.591L188.034 226.23L187.77 225.887L182.854 219.484L182.087 219.914L178.777 221.776L177.962 222.232L179.262 224.252C179.074 225.267 175.947 230.658 176.895 231.611Z" fill="#F14825"/>
<path d="M199.588 238.163L89.8799 238.27C89.7704 238.269 89.6656 238.226 89.5884 238.148C89.5111 238.07 89.4678 237.965 89.4678 237.856C89.4678 237.746 89.5111 237.641 89.5884 237.564C89.6656 237.486 89.7704 237.442 89.8799 237.442L199.588 237.335C199.697 237.335 199.802 237.379 199.879 237.457C199.957 237.534 200 237.639 200 237.749C200 237.858 199.957 237.963 199.879 238.041C199.802 238.119 199.697 238.162 199.588 238.163Z" fill="#CACACA"/>
<path d="M160.365 119.897C160.365 119.897 143.572 128.78 134.69 122.72C134.69 122.72 132.747 132.13 131.969 132.909C131.19 133.687 129.95 134.026 130.829 134.895C131.709 135.763 132.199 136.936 130.527 138.426C128.854 139.916 127.187 139.443 128.799 140.977C130.412 142.511 123.923 180.143 123.923 180.143C123.923 180.143 124.961 215.14 123.923 216.198C122.885 217.257 121.498 217.494 122.84 218.803C124.183 220.111 124.183 219.096 124.183 220.902V222.707L124.797 224.501H133.224C133.224 224.501 135.257 222.139 133.224 220.087C131.19 218.035 133.843 217.474 134.463 215.548C135.083 213.623 136.121 215.699 135.083 213.623C134.045 211.547 133.546 211.942 133.536 210.577C133.526 209.211 148.838 155.747 148.838 155.747L150.693 185.339L173.001 217.746L179.567 212.822C179.567 212.822 174.787 206.092 175.905 205.167C177.023 204.241 172.61 203.081 174.001 202.037C175.393 200.994 172.043 199.942 173.305 198.558C174.568 197.175 171.566 193.688 169.827 193.688C168.087 193.688 165.646 187.876 165.646 187.876L169.29 141.957L160.365 119.897Z" fill="#F14825"/>
<path d="M142.566 55.8861C142.447 56.0421 141.501 55.9581 140.362 55.7918C138.111 55.4631 137.804 55.8537 136.121 57.3845C133.683 59.602 135.069 73.1273 133.871 76.0579L133.484 76.343C134.252 76.1964 135.006 75.9854 135.738 75.7123C136.152 74.4072 136.567 73.0979 136.984 71.7939C137.378 72.8085 137.626 73.8741 137.72 74.9585C138.3 74.73 138.876 74.1713 141.297 73.4221C142.516 72.5949 151.338 71.7632 152.472 71.3993C155.35 61.6068 150.712 57.6467 142.566 55.8861Z" fill="#000"/>
<path d="M145.544 70.9863C150.2 70.9863 153.974 67.2122 153.974 62.5566C153.974 57.9011 150.2 54.127 145.544 54.127C140.889 54.127 137.115 57.9011 137.115 62.5566C137.115 67.2122 140.889 70.9863 145.544 70.9863Z" fill="#A0616A"/>
<path d="M150.852 55.1431C150.377 55.073 149.919 54.9127 149.504 54.6708C149.299 54.5466 149.132 54.3671 149.024 54.1528C148.915 53.9384 148.869 53.6979 148.891 53.4586C148.995 52.8597 149.672 52.502 150.279 52.5385C150.883 52.6256 151.457 52.8579 151.952 53.2154C151.897 52.6366 151.65 52.0928 151.249 51.6715C150.849 51.2501 150.318 50.9756 149.743 50.892C150.541 50.849 151.371 50.811 152.109 51.118C152.847 51.4249 153.462 52.1849 153.329 52.973C154.569 52.8132 155.793 53.6777 156.305 54.8189C156.817 55.9602 156.716 57.3004 156.306 58.4825C156.266 58.6636 156.187 58.8338 156.075 58.9817C155.963 59.1296 155.821 59.2517 155.658 59.3398C155.24 59.4983 154.791 59.2325 154.429 58.9706C152.539 57.6022 150.819 56.0136 149.305 54.2383" fill="#000"/>
<path d="M154.527 71.5187C154.17 71.6869 154.356 72.3128 154.078 72.5931C153.957 72.7118 153.812 72.8023 153.652 72.8579C153.611 72.3355 153.489 71.8225 153.292 71.337C153.255 71.2488 153.196 71.1502 153.102 71.1579C152.993 71.1709 152.965 71.3137 152.962 71.4201C152.94 71.9479 152.823 72.4675 152.617 72.9539C152.614 72.9591 152.612 72.9669 152.609 72.9721C152.529 72.9695 152.446 72.9669 152.368 72.9643C151.766 72.9409 150.432 71.3941 150.136 71.9184C151.179 70.0679 152.451 67.2857 152.645 65.1705C152.713 64.7277 152.68 64.2754 152.549 63.8469C152.481 63.6337 152.353 63.4446 152.181 63.302C152.008 63.1594 151.798 63.0693 151.576 63.0424C151.466 63.0374 151.357 63.0567 151.256 63.0988C151.155 63.141 151.064 63.2051 150.99 63.2864C150.917 63.3678 150.862 63.4644 150.83 63.5694C150.798 63.6743 150.789 63.7851 150.805 63.8936L150.655 63.8729C149.258 62.7361 150.463 60.7611 148.838 59.9799C148.288 59.7152 144.919 60.6002 144.325 60.4444C144.312 59.8184 144.184 59.1999 143.948 58.6199C143.912 58.5317 143.852 58.4331 143.759 58.4409C143.65 58.4538 143.621 58.5966 143.619 58.703C143.597 59.2308 143.48 59.7504 143.274 60.2368C142.45 60.12 141.612 60.1641 140.805 60.3666C140.094 60.5534 139.42 60.8753 138.706 61.0466C138.353 61.1547 137.982 61.1897 137.615 61.1496C137.248 61.1094 136.894 60.9949 136.573 60.813C135.667 60.2057 135.508 58.8613 135.96 57.8699C136.287 57.2337 136.729 56.6635 137.263 56.1881C137.67 55.7936 138.093 55.4147 138.516 55.0358C138.895 54.6958 139.274 54.3558 139.653 54.0158C140.13 53.5669 140.638 53.1523 141.174 52.7752C142.029 52.2147 142.99 51.8348 143.997 51.659C145.005 51.4831 146.037 51.515 147.032 51.7527C148.226 52.0382 149.822 51.6359 150.914 52.1939C151.485 52.4872 152.749 53.6109 153.25 54.0106C154.532 55.0306 153.665 54.1995 155.067 54.7892C158.411 56.1954 156.932 70.3865 154.527 71.5187Z" fill="#000"/>
<path d="M61.1915 133.046C90.0636 133.046 113.469 109.64 113.469 80.7684C113.469 51.8963 90.0636 28.4909 61.1915 28.4909C32.3195 28.4909 8.91406 51.8963 8.91406 80.7684C8.91406 109.64 32.3195 133.046 61.1915 133.046Z" fill="white"/>
<path d="M61.1919 133.568C32.0783 133.568 8.39258 109.882 8.39258 80.7683C8.39258 51.6548 32.0783 27.969 61.1919 27.969C90.3054 27.969 113.991 51.6548 113.991 80.7683C113.991 109.882 90.3054 133.568 61.1919 133.568ZM61.1919 29.0127C32.6538 29.0127 9.43623 52.2302 9.43623 80.7683C9.43623 109.306 32.6538 132.524 61.1919 132.524C89.73 132.524 112.948 109.306 112.948 80.7683C112.948 52.2302 89.7299 29.0127 61.1919 29.0127Z" fill="#101010"/>
<path d="M54.06 107.976C53.1573 107.976 52.2669 107.766 51.4595 107.362C50.6521 106.959 49.9499 106.372 49.4084 105.65L35.1463 86.6334C34.6881 86.0225 34.3548 85.3273 34.1653 84.5876C33.9758 83.8478 33.9338 83.078 34.0419 82.322C34.1499 81.566 34.4057 80.8388 34.7948 80.1817C35.1839 79.5246 35.6986 78.9506 36.3096 78.4924C36.9205 78.0343 37.6157 77.7009 38.3554 77.5114C39.0952 77.3219 39.865 77.28 40.621 77.388C41.3769 77.496 42.1042 77.7519 42.7613 78.141C43.4184 78.5301 43.9924 79.0448 44.4505 79.6557L53.7813 92.0958L77.7461 56.149C78.6021 54.8668 79.9322 53.9769 81.444 53.675C82.9559 53.3731 84.5257 53.6839 85.8085 54.5391C87.0912 55.3943 87.9819 56.7238 88.2847 58.2355C88.5875 59.7471 88.2777 61.3172 87.4233 62.6004L58.8991 105.387C58.3831 106.161 57.6891 106.799 56.8753 107.25C56.0615 107.7 55.1516 107.948 54.2219 107.975C54.1679 107.975 54.114 107.976 54.06 107.976Z" fill="#000"/>
<path d="M115.053 31.7572C115.198 30.7577 114.151 29.778 112.714 29.569C111.278 29.36 109.995 30.0007 109.85 31.0002C109.704 31.9997 110.751 32.9794 112.188 33.1884C113.625 33.3975 114.907 32.7567 115.053 31.7572Z" fill="#E6E6E6"/>
<path d="M132.159 30.0881C132.304 29.0886 131.257 28.109 129.82 27.8999C128.384 27.6909 127.101 28.3316 126.956 29.3311C126.81 30.3306 127.857 31.3103 129.294 31.5193C130.731 31.7283 132.013 31.0876 132.159 30.0881Z" fill="#F14825"/>
<path d="M110.369 17.9086C110.514 16.9091 109.467 15.9295 108.03 15.7204C106.594 15.5114 105.311 16.1521 105.166 17.1516C105.02 18.1511 106.067 19.1308 107.504 19.3398C108.941 19.5489 110.223 18.9081 110.369 17.9086Z" fill="#FF6584"/>
<path d="M102.936 12.236C102.943 11.3184 102.431 10.5707 101.793 10.5658C101.154 10.561 100.631 11.3009 100.624 12.2185C100.617 13.136 101.129 13.8838 101.768 13.8886C102.406 13.8934 102.929 13.1535 102.936 12.236Z" fill="#E6E6E6"/>
<path d="M100.415 1.67014C100.422 0.752585 99.91 0.00484333 99.2717 1.66492e-05C98.6334 -0.00481003 98.1103 0.735106 98.1034 1.65266C98.0964 2.57022 98.6083 3.31796 99.2466 3.32279C99.8849 3.32761 100.408 2.5877 100.415 1.67014Z" fill="#F14825"/>
<path d="M120.016 20.2652C120.023 19.3477 119.512 18.5999 118.873 18.5951C118.235 18.5903 117.712 19.3302 117.705 20.2478C117.698 21.1653 118.21 21.9131 118.848 21.9179C119.486 21.9227 120.009 21.1828 120.016 20.2652Z" fill="#E6E6E6"/>
<path d="M111.75 24.3926C111.757 23.475 111.245 22.7273 110.607 22.7224C109.969 22.7176 109.446 23.4575 109.439 24.3751C109.432 25.2926 109.944 26.0404 110.582 26.0452C111.22 26.05 111.743 25.3101 111.75 24.3926Z" fill="#FF6584"/>
<path d="M123.257 32.0209C123.264 31.1033 122.752 30.3556 122.114 30.3508C121.476 30.3459 120.953 31.0858 120.946 32.0034C120.939 32.921 121.451 33.6687 122.089 33.6735C122.727 33.6783 123.25 32.9384 123.257 32.0209Z" fill="#F14825"/>
<path d="M16.9491 155.604C17.0946 154.605 16.0477 153.625 14.611 153.416C13.1742 153.207 11.8916 153.848 11.7462 154.847C11.6008 155.847 12.6476 156.826 14.0844 157.035C15.5211 157.244 16.8037 156.604 16.9491 155.604Z" fill="#E6E6E6"/>
<path d="M34.0556 153.935C34.201 152.935 33.1542 151.956 31.7174 151.747C30.2807 151.538 28.9981 152.178 28.8527 153.178C28.7072 154.177 29.7541 155.157 31.1908 155.366C32.6275 155.575 33.9101 154.934 34.0556 153.935Z" fill="#F14825"/>
<path d="M12.265 141.755C12.4105 140.756 11.3636 139.776 9.9269 139.567C8.49016 139.358 7.20755 139.999 7.06213 140.998C6.91671 141.998 7.96354 142.978 9.40029 143.187C10.837 143.396 12.1196 142.755 12.265 141.755Z" fill="#FF6584"/>
<path d="M4.83236 136.083C4.8393 135.165 4.32748 134.418 3.68918 134.413C3.05088 134.408 2.5278 135.148 2.52086 136.065C2.51393 136.983 3.02575 137.731 3.66405 137.736C4.30235 137.74 4.82542 137 4.83236 136.083Z" fill="#E6E6E6"/>
<path d="M2.31135 125.517C2.31829 124.599 1.80647 123.852 1.16817 123.847C0.529873 123.842 0.00680609 124.582 -0.000132272 125.5C-0.00707064 126.417 0.504747 127.165 1.14305 127.17C1.78135 127.175 2.30441 126.435 2.31135 125.517Z" fill="#F14825"/>
<path d="M21.9134 144.112C21.9203 143.195 21.4085 142.447 20.7702 142.442C20.1319 142.437 19.6089 143.177 19.6019 144.095C19.595 145.012 20.1068 145.76 20.7451 145.765C21.3834 145.77 21.9065 145.03 21.9134 144.112Z" fill="#E6E6E6"/>
<path d="M13.6468 148.239C13.6538 147.322 13.1419 146.574 12.5036 146.569C11.8653 146.565 11.3423 147.304 11.3353 148.222C11.3284 149.14 11.8402 149.887 12.4785 149.892C13.1168 149.897 13.6399 149.157 13.6468 148.239Z" fill="#FF6584"/>
<path d="M25.1536 155.868C25.1606 154.95 24.6487 154.202 24.0104 154.198C23.3721 154.193 22.8491 154.933 22.8422 155.85C22.8352 156.768 23.347 157.516 23.9853 157.52C24.6236 157.525 25.1467 156.785 25.1536 155.868Z" fill="#F14825"/>
</g>
<defs>
<clipPath id="clip0_33_1901">
<rect width="200" height="238.344" fill="white"/>
</clipPath>
</defs>
</svg>
