<svg width="24" height="25" viewBox="0 0 24 25" fill="none" xmlns="http://www.w3.org/2000/svg">
<path fill-rule="evenodd" clip-rule="evenodd" d="M7.67 2.49989H16.34C19.73 2.49989 22 4.87989 22 8.41989V16.5909C22 20.1199 19.73 22.4999 16.34 22.4999H7.67C4.28 22.4999 2 20.1199 2 16.5909V8.41989C2 4.87989 4.28 2.49989 7.67 2.49989ZM11.43 15.4899L16.18 10.7399C16.52 10.3999 16.52 9.84989 16.18 9.49989C15.84 9.15989 15.28 9.15989 14.94 9.49989L10.81 13.6299L9.06 11.8799C8.72 11.5399 8.16 11.5399 7.82 11.8799C7.48 12.2199 7.48 12.7699 7.82 13.1199L10.2 15.4899C10.37 15.6599 10.59 15.7399 10.81 15.7399C11.04 15.7399 11.26 15.6599 11.43 15.4899Z" fill="#F14825"/>
</svg>
