<svg width="120%" height="59" viewBox="0 0 276 59" fill="none" xmlns="http://www.w3.org/2000/svg">
<g clip-path="url(#clip0_10_1553)">
<rect y="0.5" width="276" height="58" rx="16" fill="#F9AF9F"/>
<path fill-rule="evenodd" clip-rule="evenodd" d="M64.2998 26.4166L59.5748 21.9166C58.9665 21.8333 58.2832 21.7916 57.5332 21.7916C52.2915 21.7916 50.5415 23.7249 50.5415 29.4999C50.5415 35.2833 52.2915 37.2083 57.5332 37.2083C62.7832 37.2083 64.5332 35.2833 64.5332 29.4999C64.5332 28.3166 64.4582 27.2916 64.2998 26.4166Z" stroke="white" stroke-width="1.5" stroke-linecap="round" stroke-linejoin="round"/>
<path d="M59.1118 21.8605V24.078C59.1118 25.6263 60.3668 26.8805 61.9152 26.8805H64.3743" stroke="white" stroke-width="1.5" stroke-linecap="round" stroke-linejoin="round"/>
<path d="M57.217 32.8477V27.8135" stroke="white" stroke-width="1.5" stroke-linecap="round" stroke-linejoin="round"/>
<path d="M55.2622 30.8852L57.2164 32.8477L59.1705 30.8852" stroke="white" stroke-width="1.5" stroke-linecap="round" stroke-linejoin="round"/>
<g filter="url(#filter0_d_10_1553)">
<path d="M84.8663 35.5V24.3H88.5783C89.3516 24.3 90.0743 24.4467 90.7463 24.74C91.4236 25.028 92.0183 25.4307 92.5303 25.948C93.0476 26.46 93.4503 27.0547 93.7383 27.732C94.0316 28.404 94.1783 29.1267 94.1783 29.9C94.1783 30.6733 94.0316 31.3987 93.7383 32.076C93.4503 32.748 93.0476 33.3427 92.5303 33.86C92.0183 34.372 91.4236 34.7747 90.7463 35.068C90.0743 35.356 89.3516 35.5 88.5783 35.5H84.8663ZM86.8183 33.548H88.5783C89.0743 33.548 89.5409 33.4547 89.9783 33.268C90.4209 33.076 90.8103 32.8147 91.1463 32.484C91.4823 32.148 91.7463 31.7613 91.9383 31.324C92.1303 30.8813 92.2263 30.4067 92.2263 29.9C92.2263 29.3933 92.1303 28.9213 91.9383 28.484C91.7463 28.0467 91.4823 27.66 91.1463 27.324C90.8103 26.988 90.4236 26.7267 89.9863 26.54C89.5489 26.348 89.0796 26.252 88.5783 26.252H86.8183V33.548ZM99.0862 35.708C98.3502 35.708 97.6782 35.5187 97.0703 35.14C96.4676 34.7613 95.9849 34.2547 95.6222 33.62C95.2649 32.98 95.0862 32.2733 95.0862 31.5C95.0862 30.9133 95.1902 30.3667 95.3982 29.86C95.6062 29.348 95.8916 28.9 96.2542 28.516C96.6222 28.1267 97.0489 27.8227 97.5343 27.604C98.0196 27.3853 98.5369 27.276 99.0862 27.276C99.8222 27.276 100.492 27.4653 101.094 27.844C101.702 28.2227 102.185 28.732 102.542 29.372C102.905 30.012 103.086 30.7213 103.086 31.5C103.086 32.0813 102.982 32.6253 102.774 33.132C102.566 33.6387 102.278 34.0867 101.91 34.476C101.548 34.86 101.124 35.1613 100.638 35.38C100.158 35.5987 99.6409 35.708 99.0862 35.708ZM99.0862 33.756C99.4756 33.756 99.8249 33.652 100.134 33.444C100.444 33.236 100.686 32.9613 100.862 32.62C101.044 32.2787 101.134 31.9053 101.134 31.5C101.134 31.084 101.041 30.7053 100.854 30.364C100.673 30.0173 100.425 29.7427 100.11 29.54C99.8009 29.332 99.4596 29.228 99.0862 29.228C98.7023 29.228 98.3556 29.332 98.0462 29.54C97.7369 29.748 97.4916 30.0253 97.3103 30.372C97.1289 30.7187 97.0382 31.0947 97.0382 31.5C97.0382 31.9213 97.1316 32.3027 97.3182 32.644C97.5049 32.9853 97.7529 33.2573 98.0622 33.46C98.3769 33.6573 98.7182 33.756 99.0862 33.756ZM108.285 35.5H106.349L103.677 27.5H105.589L107.325 32.676L109.053 27.5H110.981L112.709 32.676L114.445 27.5H116.357L113.685 35.5H111.749L110.013 30.3L108.285 35.5ZM125.075 30.444V35.5H123.123V30.956C123.123 30.6413 123.046 30.356 122.891 30.1C122.737 29.8387 122.529 29.6333 122.267 29.484C122.011 29.3293 121.726 29.252 121.411 29.252C121.097 29.252 120.809 29.3293 120.547 29.484C120.291 29.6333 120.086 29.8387 119.931 30.1C119.782 30.356 119.707 30.6413 119.707 30.956V35.5H117.755L117.747 27.5H119.699L119.707 28.212C119.979 27.924 120.305 27.6973 120.683 27.532C121.062 27.3613 121.47 27.276 121.907 27.276C122.489 27.276 123.019 27.42 123.499 27.708C123.979 27.9907 124.361 28.372 124.643 28.852C124.931 29.3267 125.075 29.8573 125.075 30.444ZM126.916 35.5V23.5H128.868V35.5H126.916ZM134.386 35.708C133.65 35.708 132.978 35.5187 132.37 35.14C131.768 34.7613 131.285 34.2547 130.922 33.62C130.565 32.98 130.386 32.2733 130.386 31.5C130.386 30.9133 130.49 30.3667 130.698 29.86C130.906 29.348 131.192 28.9 131.554 28.516C131.922 28.1267 132.349 27.8227 132.834 27.604C133.32 27.3853 133.837 27.276 134.386 27.276C135.122 27.276 135.792 27.4653 136.394 27.844C137.002 28.2227 137.485 28.732 137.842 29.372C138.205 30.012 138.386 30.7213 138.386 31.5C138.386 32.0813 138.282 32.6253 138.074 33.132C137.866 33.6387 137.578 34.0867 137.21 34.476C136.848 34.86 136.424 35.1613 135.938 35.38C135.458 35.5987 134.941 35.708 134.386 35.708ZM134.386 33.756C134.776 33.756 135.125 33.652 135.434 33.444C135.744 33.236 135.986 32.9613 136.162 32.62C136.344 32.2787 136.434 31.9053 136.434 31.5C136.434 31.084 136.341 30.7053 136.154 30.364C135.973 30.0173 135.725 29.7427 135.41 29.54C135.101 29.332 134.76 29.228 134.386 29.228C134.002 29.228 133.656 29.332 133.346 29.54C133.037 29.748 132.792 30.0253 132.61 30.372C132.429 30.7187 132.338 31.0947 132.338 31.5C132.338 31.9213 132.432 32.3027 132.618 32.644C132.805 32.9853 133.053 33.2573 133.362 33.46C133.677 33.6573 134.018 33.756 134.386 33.756ZM145.895 27.5H147.847V35.5H145.895L145.807 34.508C145.588 34.8653 145.298 35.156 144.935 35.38C144.578 35.5987 144.154 35.708 143.663 35.708C143.071 35.708 142.516 35.596 141.999 35.372C141.482 35.148 141.026 34.8387 140.631 34.444C140.242 34.0493 139.935 33.5933 139.711 33.076C139.492 32.5587 139.383 32.004 139.383 31.412C139.383 30.8413 139.487 30.3053 139.695 29.804C139.908 29.3027 140.204 28.8627 140.583 28.484C140.962 28.1053 141.399 27.8093 141.895 27.596C142.391 27.3827 142.924 27.276 143.495 27.276C144.023 27.276 144.495 27.3933 144.911 27.628C145.332 27.8627 145.69 28.1613 145.983 28.524L145.895 27.5ZM143.615 33.828C144.031 33.828 144.399 33.724 144.719 33.516C145.039 33.308 145.29 33.028 145.471 32.676C145.652 32.3187 145.743 31.9267 145.743 31.5C145.743 31.068 145.652 30.676 145.471 30.324C145.29 29.9667 145.036 29.684 144.711 29.476C144.391 29.268 144.026 29.164 143.615 29.164C143.204 29.164 142.828 29.2707 142.487 29.484C142.151 29.692 141.882 29.972 141.679 30.324C141.482 30.676 141.383 31.068 141.383 31.5C141.383 31.932 141.484 32.324 141.687 32.676C141.89 33.028 142.159 33.308 142.495 33.516C142.836 33.724 143.21 33.828 143.615 33.828ZM155.533 23.5H157.485V35.5H155.533V34.5C155.277 34.8573 154.954 35.148 154.565 35.372C154.176 35.596 153.725 35.708 153.213 35.708C152.632 35.708 152.088 35.5987 151.581 35.38C151.074 35.1613 150.626 34.86 150.237 34.476C149.853 34.0867 149.552 33.6387 149.333 33.132C149.114 32.6253 149.005 32.0813 149.005 31.5C149.005 30.9187 149.114 30.3747 149.333 29.868C149.552 29.3613 149.853 28.916 150.237 28.532C150.626 28.1427 151.074 27.8387 151.581 27.62C152.088 27.4013 152.632 27.292 153.213 27.292C153.725 27.292 154.176 27.404 154.565 27.628C154.954 27.8467 155.277 28.1373 155.533 28.5V23.5ZM153.237 33.828C153.653 33.828 154.021 33.724 154.341 33.516C154.661 33.308 154.912 33.028 155.093 32.676C155.274 32.3187 155.365 31.9267 155.365 31.5C155.365 31.068 155.274 30.676 155.093 30.324C154.912 29.9667 154.658 29.684 154.333 29.476C154.013 29.268 153.648 29.164 153.237 29.164C152.826 29.164 152.45 29.2707 152.109 29.484C151.773 29.692 151.504 29.972 151.301 30.324C151.104 30.676 151.005 31.068 151.005 31.5C151.005 31.932 151.106 32.324 151.309 32.676C151.512 33.028 151.781 33.308 152.117 33.516C152.458 33.724 152.832 33.828 153.237 33.828ZM173.251 35.836L172.003 34.604C171.565 34.9347 171.077 35.1933 170.539 35.38C170.005 35.5667 169.443 35.66 168.851 35.66C168.093 35.66 167.381 35.5107 166.715 35.212C166.048 34.908 165.461 34.492 164.955 33.964C164.448 33.4307 164.051 32.812 163.763 32.108C163.475 31.404 163.331 30.652 163.331 29.852C163.331 29.052 163.475 28.3027 163.763 27.604C164.051 26.9 164.448 26.2813 164.955 25.748C165.461 25.2147 166.048 24.7987 166.715 24.5C167.381 24.196 168.093 24.044 168.851 24.044C169.613 24.044 170.328 24.196 170.995 24.5C171.661 24.7987 172.248 25.2147 172.755 25.748C173.261 26.2813 173.656 26.9 173.939 27.604C174.227 28.3027 174.371 29.052 174.371 29.852C174.371 30.476 174.28 31.0707 174.099 31.636C173.917 32.196 173.669 32.7133 173.355 33.188L174.627 34.46L173.251 35.836ZM168.851 33.708C169.16 33.708 169.464 33.6627 169.763 33.572C170.061 33.476 170.336 33.3427 170.587 33.172L169.571 32.156L170.947 30.772L171.899 31.732C172.069 31.4547 172.197 31.156 172.283 30.836C172.373 30.516 172.419 30.188 172.419 29.852C172.419 29.3187 172.325 28.82 172.139 28.356C171.952 27.892 171.693 27.484 171.363 27.132C171.037 26.7747 170.659 26.4973 170.227 26.3C169.8 26.0973 169.341 25.996 168.851 25.996C168.36 25.996 167.899 26.0973 167.467 26.3C167.035 26.5027 166.653 26.7827 166.323 27.14C165.997 27.492 165.741 27.9 165.555 28.364C165.373 28.828 165.283 29.324 165.283 29.852C165.283 30.38 165.376 30.8787 165.563 31.348C165.749 31.812 166.005 32.2227 166.331 32.58C166.661 32.932 167.04 33.2093 167.467 33.412C167.899 33.6093 168.36 33.708 168.851 33.708ZM176.288 35.5V24.3H180.584C181.192 24.3 181.741 24.452 182.232 24.756C182.723 25.06 183.112 25.468 183.4 25.98C183.688 26.4867 183.832 27.0493 183.832 27.668C183.832 28.1747 183.739 28.6413 183.552 29.068C183.371 29.4893 183.115 29.8547 182.784 30.164C182.459 30.4733 182.083 30.708 181.656 30.868L184.336 35.5H182.088L179.496 31.044H178.24V35.5H176.288ZM178.24 29.092H180.36C180.637 29.092 180.891 29.0227 181.12 28.884C181.349 28.7453 181.533 28.5587 181.672 28.324C181.811 28.0893 181.88 27.828 181.88 27.54C181.88 27.2467 181.811 26.9827 181.672 26.748C181.533 26.5133 181.349 26.3267 181.12 26.188C180.891 26.0493 180.637 25.98 180.36 25.98H178.24V29.092ZM195.419 35.708C194.662 35.708 193.95 35.5587 193.283 35.26C192.616 34.956 192.03 34.5373 191.523 34.004C191.022 33.4707 190.627 32.8547 190.339 32.156C190.056 31.452 189.915 30.7 189.915 29.9C189.915 29.0947 190.056 28.3427 190.339 27.644C190.627 26.94 191.022 26.324 191.523 25.796C192.03 25.2627 192.616 24.8467 193.283 24.548C193.95 24.244 194.662 24.092 195.419 24.092C196.326 24.092 197.16 24.3027 197.923 24.724C198.686 25.14 199.318 25.6973 199.819 26.396L198.075 27.332C197.76 26.9427 197.368 26.6307 196.899 26.396C196.435 26.1613 195.942 26.044 195.419 26.044C194.928 26.044 194.467 26.1453 194.035 26.348C193.603 26.5453 193.224 26.8227 192.899 27.18C192.574 27.532 192.32 27.9427 192.139 28.412C191.958 28.876 191.867 29.372 191.867 29.9C191.867 30.4333 191.958 30.932 192.139 31.396C192.326 31.86 192.582 32.2707 192.907 32.628C193.232 32.98 193.608 33.2573 194.035 33.46C194.467 33.6573 194.928 33.756 195.419 33.756C195.952 33.756 196.448 33.6387 196.907 33.404C197.371 33.164 197.76 32.8493 198.075 32.46L199.819 33.404C199.318 34.0973 198.686 34.6547 197.923 35.076C197.16 35.4973 196.326 35.708 195.419 35.708ZM204.627 35.708C203.891 35.708 203.219 35.5187 202.611 35.14C202.008 34.7613 201.526 34.2547 201.163 33.62C200.806 32.98 200.627 32.2733 200.627 31.5C200.627 30.9133 200.731 30.3667 200.939 29.86C201.147 29.348 201.432 28.9 201.795 28.516C202.163 28.1267 202.59 27.8227 203.075 27.604C203.56 27.3853 204.078 27.276 204.627 27.276C205.363 27.276 206.032 27.4653 206.635 27.844C207.243 28.2227 207.726 28.732 208.083 29.372C208.446 30.012 208.627 30.7213 208.627 31.5C208.627 32.0813 208.523 32.6253 208.315 33.132C208.107 33.6387 207.819 34.0867 207.451 34.476C207.088 34.86 206.664 35.1613 206.179 35.38C205.699 35.5987 205.182 35.708 204.627 35.708ZM204.627 33.756C205.016 33.756 205.366 33.652 205.675 33.444C205.984 33.236 206.227 32.9613 206.403 32.62C206.584 32.2787 206.675 31.9053 206.675 31.5C206.675 31.084 206.582 30.7053 206.395 30.364C206.214 30.0173 205.966 29.7427 205.651 29.54C205.342 29.332 205 29.228 204.627 29.228C204.243 29.228 203.896 29.332 203.587 29.54C203.278 29.748 203.032 30.0253 202.851 30.372C202.67 30.7187 202.579 31.0947 202.579 31.5C202.579 31.9213 202.672 32.3027 202.859 32.644C203.046 32.9853 203.294 33.2573 203.603 33.46C203.918 33.6573 204.259 33.756 204.627 33.756ZM216.152 23.5H218.104V35.5H216.152V34.5C215.896 34.8573 215.573 35.148 215.184 35.372C214.794 35.596 214.344 35.708 213.832 35.708C213.25 35.708 212.706 35.5987 212.2 35.38C211.693 35.1613 211.245 34.86 210.856 34.476C210.472 34.0867 210.17 33.6387 209.952 33.132C209.733 32.6253 209.624 32.0813 209.624 31.5C209.624 30.9187 209.733 30.3747 209.952 29.868C210.17 29.3613 210.472 28.916 210.856 28.532C211.245 28.1427 211.693 27.8387 212.2 27.62C212.706 27.4013 213.25 27.292 213.832 27.292C214.344 27.292 214.794 27.404 215.184 27.628C215.573 27.8467 215.896 28.1373 216.152 28.5V23.5ZM213.856 33.828C214.272 33.828 214.64 33.724 214.96 33.516C215.28 33.308 215.53 33.028 215.712 32.676C215.893 32.3187 215.984 31.9267 215.984 31.5C215.984 31.068 215.893 30.676 215.712 30.324C215.53 29.9667 215.277 29.684 214.952 29.476C214.632 29.268 214.266 29.164 213.856 29.164C213.445 29.164 213.069 29.2707 212.728 29.484C212.392 29.692 212.122 29.972 211.92 30.324C211.722 30.676 211.624 31.068 211.624 31.5C211.624 31.932 211.725 32.324 211.928 32.676C212.13 33.028 212.4 33.308 212.736 33.516C213.077 33.724 213.45 33.828 213.856 33.828ZM223.621 35.708C222.885 35.708 222.213 35.5187 221.605 35.14C221.002 34.7613 220.519 34.252 220.157 33.612C219.799 32.972 219.621 32.2653 219.621 31.492C219.621 30.9107 219.725 30.3667 219.933 29.86C220.141 29.348 220.426 28.9 220.789 28.516C221.157 28.1267 221.583 27.8227 222.069 27.604C222.554 27.3853 223.071 27.276 223.621 27.276C224.245 27.276 224.815 27.4093 225.333 27.676C225.855 27.9373 226.298 28.2973 226.661 28.756C227.023 29.2147 227.287 29.7373 227.453 30.324C227.618 30.9107 227.655 31.524 227.565 32.164H221.717C221.791 32.4627 221.914 32.732 222.085 32.972C222.255 33.2067 222.471 33.396 222.733 33.54C222.994 33.6787 223.29 33.7507 223.621 33.756C223.962 33.7613 224.271 33.6813 224.549 33.516C224.831 33.3453 225.066 33.116 225.253 32.828L227.245 33.292C226.919 34.0013 226.434 34.5827 225.789 35.036C225.143 35.484 224.421 35.708 223.621 35.708ZM221.653 30.7H225.589C225.53 30.38 225.405 30.092 225.213 29.836C225.026 29.5747 224.794 29.3667 224.517 29.212C224.239 29.0573 223.941 28.98 223.621 28.98C223.301 28.98 223.005 29.0573 222.733 29.212C222.461 29.3613 222.229 29.5667 222.037 29.828C221.85 30.084 221.722 30.3747 221.653 30.7Z" fill="white"/>
</g>
</g>
<defs>
<filter id="filter0_d_10_1553" x="64.8662" y="7.5" width="190.834" height="60.336" filterUnits="userSpaceOnUse" color-interpolation-filters="sRGB">
<feFlood flood-opacity="0" result="BackgroundImageFix"/>
<feColorMatrix in="SourceAlpha" type="matrix" values="0 0 0 0 0 0 0 0 0 0 0 0 0 0 0 0 0 0 127 0" result="hardAlpha"/>
<feOffset dx="4" dy="8"/>
<feGaussianBlur stdDeviation="12"/>
<feComposite in2="hardAlpha" operator="out"/>
<feColorMatrix type="matrix" values="0 0 0 0 1 0 0 0 0 0.301961 0 0 0 0 0.403922 0 0 0 0.25 0"/>
<feBlend mode="normal" in2="BackgroundImageFix" result="effect1_dropShadow_10_1553"/>
<feBlend mode="normal" in="SourceGraphic" in2="effect1_dropShadow_10_1553" result="shape"/>
</filter>
<clipPath id="clip0_10_1553">
<rect y="0.5" width="276" height="58" rx="16" fill="white"/>
</clipPath>
</defs>
</svg>
