<svg width="18" height="15" viewBox="0 0 18 15" fill="none" xmlns="http://www.w3.org/2000/svg">
<path fill-rule="evenodd" clip-rule="evenodd" d="M7.16935 10.2105C7.68975 10.5633 8.32398 10.7766 8.99886 10.7766C10.7877 10.7766 12.2432 9.30801 12.2432 7.50308C12.2432 6.82213 12.0318 6.1822 11.6821 5.65712L10.7958 6.55139C10.9422 6.83033 11.0235 7.1585 11.0235 7.50308C11.0235 8.62706 10.1128 9.54593 8.99886 9.54593C8.65735 9.54593 8.33211 9.46389 8.05565 9.31621L7.16935 10.2105ZM14.3573 2.95793C15.5363 4.04089 16.5364 5.50124 17.2845 7.25695C17.3496 7.41283 17.3496 7.59333 17.2845 7.741C15.5444 11.8267 12.4465 14.2716 8.99886 14.2716H8.99073C7.42142 14.2716 5.91716 13.7547 4.59178 12.8112L3.01433 14.4028C2.89237 14.5259 2.73787 14.5833 2.58338 14.5833C2.42889 14.5833 2.26627 14.5259 2.15243 14.4028C1.94915 14.1977 1.91663 13.8696 2.07925 13.6316L2.10364 13.5988L14.1296 1.46476C14.1459 1.44835 14.1621 1.43194 14.1703 1.41553L14.1703 1.41553C14.1865 1.39912 14.2028 1.38272 14.2109 1.36631L14.9753 0.59511C15.2192 0.357187 15.6014 0.357187 15.8372 0.59511C16.0811 0.833033 16.0811 1.22684 15.8372 1.46476L14.3573 2.95793ZM5.7486 7.50628C5.7486 7.71959 5.77299 7.9329 5.80551 8.1298L2.79699 11.1654C1.98387 10.2137 1.27646 9.06508 0.715413 7.7442C0.650364 7.59652 0.650364 7.41603 0.715413 7.26015C2.45548 3.17444 5.55345 0.737782 8.99293 0.737782H9.00106C10.1638 0.737782 11.294 1.01673 12.3348 1.5418L9.61902 4.28201C9.42388 4.2492 9.21247 4.22458 9.00106 4.22458C7.20407 4.22458 5.7486 5.69314 5.7486 7.50628Z" fill="red"/>
</svg>
