<svg width="18" height="16" viewBox="0 0 18 16" fill="none" xmlns="http://www.w3.org/2000/svg">
<path fill-rule="evenodd" clip-rule="evenodd" d="M7.16941 10.7105C7.68981 11.0633 8.32404 11.2766 8.99892 11.2766C10.7878 11.2766 12.2433 9.80801 12.2433 8.00307C12.2433 7.32212 12.0318 6.68219 11.6822 6.15712L10.7959 7.05138C10.9423 7.33033 11.0236 7.6585 11.0236 8.00307C11.0236 9.12705 10.1129 10.0459 8.99892 10.0459C8.65741 10.0459 8.33217 9.96389 8.05571 9.81621L7.16941 10.7105ZM14.3574 3.45793C15.5364 4.54089 16.5365 6.00124 17.2846 7.75695C17.3496 7.91283 17.3496 8.09332 17.2846 8.241C15.5445 12.3267 12.4465 14.7716 8.99892 14.7716H8.99079C7.42148 14.7716 5.91722 14.2547 4.59184 13.3112L3.01439 14.9028C2.89243 15.0259 2.73794 15.0833 2.58344 15.0833C2.42895 15.0833 2.26633 15.0259 2.15249 14.9028C1.94921 14.6977 1.91669 14.3696 2.07931 14.1316L2.10371 14.0988L14.1297 1.96476C14.1459 1.94835 14.1622 1.93194 14.1703 1.91553L14.1703 1.91552C14.1866 1.89912 14.2029 1.88271 14.211 1.8663L14.9753 1.09511C15.2193 0.857183 15.6014 0.857183 15.8372 1.09511C16.0812 1.33303 16.0812 1.72683 15.8372 1.96476L14.3574 3.45793ZM5.74866 8.00627C5.74866 8.21958 5.77305 8.43289 5.80558 8.6298L2.79705 11.6654C1.98393 10.7137 1.27652 9.56508 0.715474 8.2442C0.650425 8.09652 0.650425 7.91603 0.715474 7.76015C2.45554 3.67444 5.55351 1.23778 8.99299 1.23778H9.00112C10.1639 1.23778 11.2941 1.51672 12.3349 2.04179L9.61909 4.78201C9.42394 4.74919 9.21253 4.72458 9.00112 4.72458C7.20413 4.72458 5.74866 6.19314 5.74866 8.00627Z" fill="#FAC3B7"/>
</svg>
