<svg width="16" height="18" viewBox="0 0 16 18" fill="none" xmlns="http://www.w3.org/2000/svg">
<path fill-rule="evenodd" clip-rule="evenodd" d="M12.6023 5.16334V6.44112C14.0376 6.88913 15.0834 8.18844 15.0834 9.74033V13.8544C15.0834 15.7756 13.4906 17.3333 11.5269 17.3333H4.47402C2.50948 17.3333 0.916687 15.7756 0.916687 13.8544V9.74033C0.916687 8.18844 1.96331 6.88913 3.39776 6.44112V5.16334C3.40623 2.67899 5.46391 0.666664 7.98732 0.666664C10.5446 0.666664 12.6023 2.67899 12.6023 5.16334ZM8.00425 2.11587C9.72322 2.11587 11.1204 3.48226 11.1204 5.16334V6.26142H4.87963V5.14677C4.8881 3.47398 6.28529 2.11587 8.00425 2.11587ZM8.74095 12.7124C8.74095 13.1182 8.41071 13.4412 7.99579 13.4412C7.58933 13.4412 7.25909 13.1182 7.25909 12.7124V10.874C7.25909 10.4765 7.58933 10.1536 7.99579 10.1536C8.41071 10.1536 8.74095 10.4765 8.74095 10.874V12.7124Z" fill="#FAC3B7"/>
</svg>
