<svg width="56" height="56" viewBox="0 0 56 56" fill="none" xmlns="http://www.w3.org/2000/svg">
<rect width="56" height="56" rx="28" fill="white" fill-opacity="0.2"/>
<path fill-rule="evenodd" clip-rule="evenodd" d="M32.1583 24.2329C32.1583 26.5825 30.2851 28.4666 27.949 28.4666C25.6129 28.4666 23.7397 26.5825 23.7397 24.2329C23.7397 21.8823 25.6129 20 27.949 20C30.2851 20 32.1583 21.8823 32.1583 24.2329ZM27.949 36C24.5178 36 21.5881 35.456 21.5881 33.2802C21.5881 31.1034 24.499 30.5396 27.949 30.5396C31.3802 30.5396 34.31 31.0836 34.31 33.2604C34.31 35.4362 31.399 36 27.949 36ZM33.9571 24.3092C33.9571 25.507 33.5998 26.6229 32.973 27.5505C32.9086 27.646 32.9659 27.7748 33.0796 27.7946C33.2363 27.8216 33.3984 27.8369 33.5631 27.8414C35.2062 27.8846 36.6809 26.821 37.0883 25.2197C37.6918 22.8412 35.9198 20.7059 33.6634 20.7059C33.4181 20.7059 33.1835 20.732 32.9551 20.7788C32.9238 20.786 32.8907 20.8005 32.8728 20.8284C32.8513 20.8626 32.8674 20.9085 32.8889 20.9383C33.5667 21.8938 33.9571 23.0592 33.9571 24.3092ZM36.6782 29.5126C37.7823 29.7296 38.5084 30.1727 38.8093 30.8166C39.0636 31.3453 39.0636 31.9586 38.8093 32.4864C38.349 33.4851 36.8654 33.8058 36.2887 33.8886C36.1696 33.9066 36.0738 33.8031 36.0864 33.6833C36.3809 30.9157 34.0377 29.6035 33.4315 29.3018C33.4055 29.2883 33.4002 29.2676 33.4028 29.255C33.4046 29.246 33.4154 29.2316 33.4351 29.2289C34.7468 29.2046 36.1571 29.3847 36.6782 29.5126ZM22.4371 27.8413C22.6019 27.8368 22.763 27.8224 22.9206 27.7945C23.0343 27.7747 23.0916 27.6459 23.0272 27.5504C22.4004 26.6228 22.0431 25.5069 22.0431 24.3091C22.0431 23.0591 22.4335 21.8937 23.1113 20.9382C23.1328 20.9084 23.1481 20.8625 23.1275 20.8283C23.1096 20.8013 23.0755 20.786 23.0451 20.7788C22.8159 20.7319 22.5813 20.7058 22.3359 20.7058C20.0795 20.7058 18.3075 22.8411 18.9119 25.2196C19.3193 26.8209 20.794 27.8845 22.4371 27.8413ZM22.5969 29.2545C22.5996 29.268 22.5943 29.2878 22.5692 29.3022C21.9621 29.6039 19.6188 30.9161 19.9134 33.6827C19.926 33.8034 19.831 33.9061 19.712 33.889C19.1353 33.8061 17.6516 33.4855 17.1914 32.4867C16.9362 31.9581 16.9362 31.3457 17.1914 30.817C17.4922 30.1731 18.2175 29.73 19.3216 29.512C19.8436 29.385 21.2529 29.2049 22.5656 29.2292C22.5853 29.2319 22.5951 29.2464 22.5969 29.2545Z" fill="white"/>
</svg>
