<svg width="387" height="104" viewBox="0 0 387 104" fill="none" xmlns="http://www.w3.org/2000/svg">
<g opacity="0.2">
<path d="M373 43.4031C373 41.5236 371.476 40 369.597 40C367.717 40 366.194 41.5236 366.194 43.4031V66H373V43.4031Z" fill="#707070"/>
<path d="M196.038 43.4031C196.038 41.5236 194.514 40 192.634 40C190.755 40 189.231 41.5236 189.231 43.4031V66H196.038V43.4031Z" fill="#707070"/>
<path d="M325.356 43.4031C325.356 41.5236 323.833 40 321.953 40C320.074 40 318.55 41.5236 318.55 43.4031V66H325.356V43.4031Z" fill="#707070"/>
<path d="M148.394 43.4031C148.394 41.5236 146.87 40 144.99 40C143.111 40 141.587 41.5236 141.587 43.4031V66H148.394V43.4031Z" fill="#707070"/>
<path d="M314.013 43.4031C314.013 41.5236 312.489 40 310.61 40C308.73 40 307.206 41.5236 307.206 43.4031V66H314.013V43.4031Z" fill="#707070"/>
<path d="M137.05 43.4031C137.05 41.5236 135.526 40 133.647 40C131.767 40 130.244 41.5236 130.244 43.4031V66H137.05V43.4031Z" fill="#707070"/>
<path d="M207.381 43.4031C207.381 41.5236 205.858 40 203.978 40C202.099 40 200.575 41.5236 200.575 43.4031V66H207.381V43.4031Z" fill="#707070"/>
<path d="M30.4189 43.4031C30.4189 41.5236 28.8953 40 27.0158 40C25.1363 40 23.6127 41.5236 23.6127 43.4031V66H30.4189V43.4031Z" fill="#707070"/>
<path d="M361.656 34.4031C361.656 32.5236 360.133 31 358.253 31C356.374 31 354.85 32.5236 354.85 34.4031V66H361.656V34.4031Z" fill="#707070"/>
<path d="M184.694 34.4031C184.694 32.5236 183.17 31 181.291 31C179.411 31 177.888 32.5236 177.888 34.4031V66H184.694V34.4031Z" fill="#707070"/>
<path d="M218.725 34.4031C218.725 32.5236 217.201 31 215.322 31C213.442 31 211.919 32.5236 211.919 34.4031V66H218.725V34.4031Z" fill="#707070"/>
<path d="M41.7627 34.4031C41.7627 32.5236 40.2391 31 38.3596 31C36.4801 31 34.9564 32.5236 34.9564 34.4031V66H41.7627V34.4031Z" fill="#707070"/>
<path d="M350.312 25.4031C350.312 23.5236 348.789 22 346.909 22C345.03 22 343.506 23.5236 343.506 25.4031V67H350.312V25.4031Z" fill="#707070"/>
<path d="M171.081 25.4031C171.081 23.5236 169.557 22 167.678 22C165.798 22 164.275 23.5236 164.275 25.4031V67H171.081V25.4031Z" fill="#707070"/>
<path d="M302.669 25.4031C302.669 23.5236 301.145 22 299.266 22C297.386 22 295.863 23.5236 295.863 25.4031V67H302.669V25.4031Z" fill="#707070"/>
<path d="M123.438 25.4031C123.438 23.5236 121.914 22 120.034 22C118.155 22 116.631 23.5236 116.631 25.4031V67H123.438V25.4031Z" fill="#707070"/>
<path d="M230.069 25.4031C230.069 23.5236 228.545 22 226.666 22C224.786 22 223.263 23.5236 223.263 25.4031V67H230.069V25.4031Z" fill="#707070"/>
<path d="M53.1064 25.4031C53.1064 23.5236 51.5828 22 49.7033 22C47.8238 22 46.3002 23.5236 46.3002 25.4031V67H53.1064V25.4031Z" fill="#707070"/>
<path d="M16.8062 25.4031C16.8062 23.5236 15.2825 22 13.403 22C11.5235 22 9.9999 23.5236 9.9999 25.4031V67H16.8062V25.4031Z" fill="#707070"/>
<path d="M336.7 15.4031C336.7 13.5236 335.177 12 333.297 12C331.418 12 329.894 13.5236 329.894 15.4031V66H336.7V15.4031Z" fill="#707070"/>
<path d="M159.737 15.4031C159.737 13.5236 158.214 12 156.334 12C154.455 12 152.931 13.5236 152.931 15.4031V66H159.737V15.4031Z" fill="#707070"/>
<path d="M289.056 15.4031C289.056 13.5236 287.533 12 285.653 12C283.774 12 282.25 13.5236 282.25 15.4031V66H289.056V15.4031Z" fill="#707070"/>
<path d="M112.094 15.4031C112.094 13.5236 110.57 12 108.691 12C106.811 12 105.287 13.5236 105.287 15.4031V66H112.094V15.4031Z" fill="#707070"/>
<path d="M243.681 15.4031C243.681 13.5236 242.158 12 240.278 12C238.399 12 236.875 13.5236 236.875 15.4031V66H243.681V15.4031Z" fill="#707070"/>
<path d="M64.4502 15.4031C64.4502 13.5236 62.9266 12 61.0471 12C59.1676 12 57.6439 13.5236 57.6439 15.4031V66H64.4502V15.4031Z" fill="#707070"/>
<path d="M277.712 15.4031C277.712 13.5236 276.189 12 274.309 12C272.43 12 270.906 13.5236 270.906 15.4031V66H277.712V15.4031Z" fill="#707070"/>
<path d="M100.75 15.4031C100.75 13.5236 99.2264 12 97.3469 12C95.4674 12 93.9437 13.5236 93.9437 15.4031V66H100.75V15.4031Z" fill="#707070"/>
<path d="M266.369 3.40312C266.369 1.52363 264.845 0 262.966 0C261.086 0 259.562 1.52363 259.562 3.40312V66H266.369V3.40312Z" fill="#707070"/>
<path d="M89.4062 3.40312C89.4062 1.52363 87.8826 0 86.0031 0C84.1236 0 82.6 1.52363 82.6 3.40312V66H89.4062V3.40312Z" fill="#707070"/>
<path d="M255.025 3.40312C255.025 1.52363 253.501 0 251.622 0C249.742 0 248.219 1.52363 248.219 3.40312V66H255.025V3.40312Z" fill="#707070"/>
<path d="M78.0625 3.40312C78.0625 1.52363 76.5389 0 74.6594 0C72.7799 0 71.2562 1.52363 71.2562 3.40312V66H78.0625V3.40312Z" fill="#707070"/>
</g>
<path d="M372.995 99.182C372.402 99.182 371.868 99.042 371.392 98.762C370.916 98.482 370.538 98.1063 370.258 97.635C369.978 97.159 369.838 96.6317 369.838 96.053H371.546C371.546 96.3143 371.607 96.5523 371.728 96.767C371.854 96.9817 372.027 97.1543 372.246 97.285C372.465 97.411 372.715 97.474 372.995 97.474C373.252 97.474 373.49 97.411 373.709 97.285C373.933 97.1543 374.113 96.9817 374.248 96.767C374.383 96.5523 374.451 96.3143 374.451 96.053C374.451 95.7123 374.36 95.43 374.178 95.206C373.996 94.9773 373.742 94.807 373.415 94.695C373.093 94.583 372.717 94.527 372.288 94.527V93.211C372.867 93.211 373.324 93.1013 373.66 92.882C374.001 92.6627 374.171 92.3407 374.171 91.916C374.171 91.6967 374.115 91.496 374.003 91.314C373.891 91.132 373.742 90.9873 373.555 90.88C373.373 90.768 373.172 90.712 372.953 90.712C372.729 90.712 372.512 90.768 372.302 90.88C372.092 90.9873 371.919 91.132 371.784 91.314C371.653 91.496 371.588 91.6967 371.588 91.916H369.88C369.88 91.5147 369.962 91.139 370.125 90.789C370.288 90.4343 370.512 90.124 370.797 89.858C371.086 89.592 371.413 89.3843 371.777 89.235C372.146 89.081 372.531 89.004 372.932 89.004C373.459 89.004 373.947 89.1347 374.395 89.396C374.843 89.6573 375.202 90.0073 375.473 90.446C375.744 90.8847 375.879 91.3747 375.879 91.916C375.879 92.294 375.79 92.665 375.613 93.029C375.436 93.393 375.184 93.6497 374.857 93.799C375.142 93.9017 375.38 94.0743 375.571 94.317C375.762 94.555 375.907 94.828 376.005 95.136C376.108 95.4393 376.159 95.745 376.159 96.053C376.159 96.627 376.014 97.152 375.725 97.628C375.436 98.0993 375.051 98.4773 374.57 98.762C374.094 99.042 373.569 99.182 372.995 99.182Z" fill="#212121"/>
<path d="M183.561 89V87.474C183.864 87.2453 184.224 86.963 184.639 86.627C185.054 86.2863 185.481 85.92 185.92 85.528C186.359 85.1313 186.765 84.7347 187.138 84.338C187.511 83.9413 187.815 83.5633 188.048 83.204C188.286 82.8447 188.405 82.5367 188.405 82.28C188.405 81.9953 188.335 81.7363 188.195 81.503C188.055 81.265 187.868 81.076 187.635 80.936C187.406 80.796 187.15 80.726 186.865 80.726C186.58 80.726 186.321 80.796 186.088 80.936C185.855 81.076 185.668 81.265 185.528 81.503C185.388 81.7363 185.318 81.9953 185.318 82.28H183.61C183.61 81.664 183.759 81.111 184.058 80.621C184.357 80.1263 184.751 79.7367 185.241 79.452C185.736 79.1627 186.277 79.018 186.865 79.018C187.462 79.018 188.006 79.165 188.496 79.459C188.986 79.7483 189.378 80.1403 189.672 80.635C189.966 81.1297 190.113 81.678 190.113 82.28C190.113 82.5973 190.055 82.917 189.938 83.239C189.821 83.561 189.658 83.8853 189.448 84.212C189.238 84.5387 188.991 84.87 188.706 85.206C188.421 85.5373 188.106 85.878 187.761 86.228C187.42 86.5733 187.061 86.928 186.683 87.292H190.162V89H183.561Z" fill="#212121"/>
<path d="M16.9815 99V90.908H15.7495L16.2115 89.2H18.6895V99H16.9815Z" fill="#212121"/>
<path d="M5 67.0869H385" stroke="#F3F3F3" stroke-width="4" stroke-linecap="round"/>
<path d="M16 67H373" stroke="#F14825" stroke-width="8" stroke-linecap="round"/>
<circle cx="12" cy="67" r="11.5" fill="#F14825" stroke="#F14825"/>
<circle cx="12" cy="67" r="6.5" fill="white" stroke="#F14825"/>
<circle cx="373" cy="67" r="11.5" fill="#F14825" stroke="#F14825"/>
<circle cx="373" cy="67" r="6.5" fill="white" stroke="#F14825"/>
<circle cx="185" cy="67" r="6.5" fill="white" stroke="#F14825"/>
</svg>
