<svg width="16" height="17" viewBox="0 0 16 17" fill="none" xmlns="http://www.w3.org/2000/svg">
<path fill-rule="evenodd" clip-rule="evenodd" d="M12.6023 4.66334V5.94112C14.0376 6.38913 15.0834 7.68845 15.0834 9.24034V13.3544C15.0834 15.2756 13.4906 16.8333 11.5269 16.8333H4.47402C2.50948 16.8333 0.916687 15.2756 0.916687 13.3544V9.24034C0.916687 7.68845 1.96331 6.38913 3.39776 5.94112V4.66334C3.40623 2.17899 5.46391 0.166668 7.98732 0.166668C10.5446 0.166668 12.6023 2.17899 12.6023 4.66334ZM8.00425 1.61587C9.72322 1.61587 11.1204 2.98226 11.1204 4.66334V5.76142H4.87963V4.64678C4.8881 2.97398 6.28529 1.61587 8.00425 1.61587ZM8.74095 12.2124C8.74095 12.6182 8.41071 12.9412 7.99579 12.9412C7.58933 12.9412 7.25909 12.6182 7.25909 12.2124V10.374C7.25909 9.97653 7.58933 9.65357 7.99579 9.65357C8.41071 9.65357 8.74095 9.97653 8.74095 10.374V12.2124Z" fill="red"/>
</svg>
