<svg width="300" height="300" viewBox="0 0 328 327" fill="none" xmlns="http://www.w3.org/2000/svg">
<g clip-path="url(#clip0_18_1279)">
<path d="M41.375 40.875H82.25V81.75H41.375V40.875Z" fill="black"/>
<path d="M123.125 0V122.625H0.5V0H123.125ZM102.688 20.4375H20.9375V102.188H102.688V20.4375ZM82.25 245.25H41.375V286.125H82.25V245.25Z" fill="black"/>
<path d="M123.125 204.375V327H0.5V204.375H123.125ZM20.9375 224.812V306.562H102.688V224.812H20.9375ZM245.75 40.875H286.625V81.75H245.75V40.875Z" fill="black"/>
<path d="M204.875 0V122.625H327.5V0H204.875ZM307.062 20.4375V102.188H225.312V20.4375H307.062ZM164 20.4375V0H184.438V40.875H164V81.75H143.562V20.4375H164ZM164 122.625V81.75H184.438V122.625H164ZM123.125 163.5V143.062H143.562V122.625H164V163.5H184.438V143.062H286.625V163.5H204.875V183.938H143.562V163.5H123.125ZM123.125 163.5V183.938H41.375V163.5H20.9375V183.938H0.5V143.062H61.8125V163.5H123.125ZM327.5 183.938H307.062V143.062H327.5V183.938ZM307.062 183.938H286.625V224.812H327.5V204.375H307.062V183.938ZM225.312 183.938H266.188V204.375H245.75V224.812H225.312V183.938ZM266.188 245.25V224.812H245.75V245.25H225.312V265.688H184.438V286.125H245.75V245.25H266.188ZM266.188 245.25H327.5V265.688H286.625V286.125H266.188V245.25ZM184.438 224.812V245.25H204.875V204.375H143.562V224.812H184.438Z" fill="black"/>
<path d="M143.562 245.25H164V306.562H245.75V327H143.562V245.25ZM327.5 286.125V327H266.188V306.562H307.062V286.125H327.5Z" fill="black"/>
</g>
<defs>
<clipPath id="clip0_18_1279">
<rect width="327" height="327" fill="white" transform="translate(0.5)"/>
</clipPath>
</defs>
</svg>
