<svg width="24" height="24" viewBox="0 0 24 24" fill="none" xmlns="http://www.w3.org/2000/svg">
<path fill-rule="evenodd" clip-rule="evenodd" d="M12 21C16.9706 21 21 16.9706 21 12C21 7.02944 16.9706 3 12 3C7.02944 3 3 7.02944 3 12C3 16.9706 7.02944 21 12 21ZM12 24C18.6274 24 24 18.6274 24 12C24 5.37258 18.6274 0 12 0C5.37258 0 0 5.37258 0 12C0 18.6274 5.37258 24 12 24Z" fill="#F14825"/>
<path d="M18.9998 11.9999C18.9998 15.8659 15.8658 18.9999 11.9998 18.9999C8.13382 18.9999 4.99982 15.8659 4.99982 11.9999C4.99982 8.13395 8.13382 4.99994 11.9998 4.99994C15.8658 4.99994 18.9998 8.13395 18.9998 11.9999Z" fill="#F14825"/>
</svg>
