<svg width="120%" height="59" viewBox="0 0 276 59" fill="none" xmlns="http://www.w3.org/2000/svg">
<g clip-path="url(#clip0_10_1566)">
<rect y="0.5" width="276" height="58" rx="16" fill="#F14825"/>
<g clip-path="url(#clip1_10_1566)">
<path d="M85.3183 30.1668H67.7083" stroke="white" stroke-width="1.5" stroke-linecap="round" stroke-linejoin="round"/>
<path d="M68.9966 26.7667C69.4716 23.8667 70.9049 22.4333 73.8049 21.9583" stroke="white" stroke-width="1.5" stroke-linecap="round" stroke-linejoin="round"/>
<path d="M73.805 36.9918C70.905 36.5084 69.4716 35.0834 68.9966 32.1834L68.9958 32.1868C68.895 31.5868 68.8375 30.9118 68.8208 30.1701" stroke="white" stroke-width="1.5" stroke-linecap="round" stroke-linejoin="round"/>
<path d="M84.2037 30.17C84.187 30.9117 84.1287 31.5867 84.0287 32.1867L84.0304 32.1833C83.5545 35.0833 82.1212 36.5083 79.2212 36.9917" stroke="white" stroke-width="1.5" stroke-linecap="round" stroke-linejoin="round"/>
<path d="M79.2217 21.9583C82.1217 22.4333 83.555 23.8667 84.03 26.7667" stroke="white" stroke-width="1.5" stroke-linecap="round" stroke-linejoin="round"/>
</g>
<g filter="url(#filter0_d_10_1566)">
<path d="M107.798 35.708C107.18 35.708 106.585 35.612 106.014 35.42C105.449 35.2227 104.953 34.9427 104.526 34.58C104.1 34.212 103.793 33.772 103.606 33.26L105.438 32.588C105.513 32.8013 105.665 32.996 105.894 33.172C106.124 33.348 106.404 33.4893 106.734 33.596C107.065 33.7027 107.42 33.756 107.798 33.756C108.188 33.756 108.55 33.6973 108.886 33.58C109.228 33.4573 109.502 33.2893 109.71 33.076C109.918 32.8573 110.022 32.604 110.022 32.316C110.022 32.0227 109.913 31.7827 109.694 31.596C109.476 31.404 109.196 31.252 108.854 31.14C108.513 31.028 108.161 30.9427 107.798 30.884C107.004 30.7613 106.292 30.572 105.662 30.316C105.033 30.06 104.534 29.7053 104.166 29.252C103.804 28.7987 103.622 28.212 103.622 27.492C103.622 26.8147 103.817 26.2227 104.206 25.716C104.596 25.2093 105.108 24.8147 105.742 24.532C106.377 24.2493 107.062 24.108 107.798 24.108C108.412 24.108 109.004 24.204 109.574 24.396C110.145 24.588 110.644 24.868 111.07 25.236C111.502 25.604 111.812 26.0467 111.998 26.564L110.158 27.228C110.084 27.0147 109.932 26.82 109.702 26.644C109.473 26.468 109.193 26.3293 108.862 26.228C108.532 26.1213 108.177 26.068 107.798 26.068C107.42 26.0627 107.06 26.124 106.718 26.252C106.382 26.3747 106.108 26.5427 105.894 26.756C105.681 26.9693 105.574 27.2147 105.574 27.492C105.574 27.8493 105.673 28.1187 105.87 28.3C106.073 28.4813 106.342 28.6147 106.678 28.7C107.014 28.78 107.388 28.8547 107.798 28.924C108.545 29.0413 109.236 29.2387 109.87 29.516C110.505 29.7933 111.014 30.164 111.398 30.628C111.782 31.0867 111.974 31.6493 111.974 32.316C111.974 32.9933 111.782 33.588 111.398 34.1C111.014 34.6067 110.505 35.0013 109.87 35.284C109.236 35.5667 108.545 35.708 107.798 35.708ZM118.661 33.092L120.421 34.044C120.053 34.5453 119.591 34.948 119.037 35.252C118.482 35.556 117.877 35.708 117.221 35.708C116.485 35.708 115.813 35.5187 115.205 35.14C114.602 34.7613 114.119 34.2547 113.757 33.62C113.399 32.98 113.221 32.2733 113.221 31.5C113.221 30.9133 113.325 30.3667 113.533 29.86C113.741 29.348 114.026 28.9 114.389 28.516C114.757 28.1267 115.183 27.8227 115.669 27.604C116.154 27.3853 116.671 27.276 117.221 27.276C117.877 27.276 118.482 27.428 119.037 27.732C119.591 28.036 120.053 28.444 120.421 28.956L118.661 29.9C118.474 29.6867 118.253 29.5213 117.997 29.404C117.746 29.2867 117.487 29.228 117.221 29.228C116.837 29.228 116.49 29.3347 116.181 29.548C115.871 29.756 115.626 30.0333 115.445 30.38C115.263 30.7213 115.173 31.0947 115.173 31.5C115.173 31.9 115.263 32.2733 115.445 32.62C115.626 32.9613 115.871 33.236 116.181 33.444C116.49 33.652 116.837 33.756 117.221 33.756C117.498 33.756 117.762 33.6973 118.013 33.58C118.263 33.4573 118.479 33.2947 118.661 33.092ZM127.839 27.5H129.791V35.5H127.839L127.751 34.508C127.532 34.8653 127.242 35.156 126.879 35.38C126.522 35.5987 126.098 35.708 125.607 35.708C125.015 35.708 124.46 35.596 123.943 35.372C123.426 35.148 122.97 34.8387 122.575 34.444C122.186 34.0493 121.879 33.5933 121.655 33.076C121.436 32.5587 121.327 32.004 121.327 31.412C121.327 30.8413 121.431 30.3053 121.639 29.804C121.852 29.3027 122.148 28.8627 122.527 28.484C122.906 28.1053 123.343 27.8093 123.839 27.596C124.335 27.3827 124.868 27.276 125.439 27.276C125.967 27.276 126.439 27.3933 126.855 27.628C127.276 27.8627 127.634 28.1613 127.927 28.524L127.839 27.5ZM125.559 33.828C125.975 33.828 126.343 33.724 126.663 33.516C126.983 33.308 127.234 33.028 127.415 32.676C127.596 32.3187 127.687 31.9267 127.687 31.5C127.687 31.068 127.596 30.676 127.415 30.324C127.234 29.9667 126.98 29.684 126.655 29.476C126.335 29.268 125.97 29.164 125.559 29.164C125.148 29.164 124.772 29.2707 124.431 29.484C124.095 29.692 123.826 29.972 123.623 30.324C123.426 30.676 123.327 31.068 123.327 31.5C123.327 31.932 123.428 32.324 123.631 32.676C123.834 33.028 124.103 33.308 124.439 33.516C124.78 33.724 125.154 33.828 125.559 33.828ZM138.913 30.444V35.5H136.961V30.956C136.961 30.6413 136.884 30.356 136.729 30.1C136.574 29.8387 136.366 29.6333 136.105 29.484C135.849 29.3293 135.564 29.252 135.249 29.252C134.934 29.252 134.646 29.3293 134.385 29.484C134.129 29.6333 133.924 29.8387 133.769 30.1C133.62 30.356 133.545 30.6413 133.545 30.956V35.5H131.593L131.585 27.5H133.537L133.545 28.212C133.817 27.924 134.142 27.6973 134.521 27.532C134.9 27.3613 135.308 27.276 135.745 27.276C136.326 27.276 136.857 27.42 137.337 27.708C137.817 27.9907 138.198 28.372 138.481 28.852C138.769 29.3267 138.913 29.8573 138.913 30.444ZM154.351 35.836L153.103 34.604C152.665 34.9347 152.177 35.1933 151.639 35.38C151.105 35.5667 150.543 35.66 149.951 35.66C149.193 35.66 148.481 35.5107 147.815 35.212C147.148 34.908 146.561 34.492 146.055 33.964C145.548 33.4307 145.151 32.812 144.863 32.108C144.575 31.404 144.431 30.652 144.431 29.852C144.431 29.052 144.575 28.3027 144.863 27.604C145.151 26.9 145.548 26.2813 146.055 25.748C146.561 25.2147 147.148 24.7987 147.815 24.5C148.481 24.196 149.193 24.044 149.951 24.044C150.713 24.044 151.428 24.196 152.095 24.5C152.761 24.7987 153.348 25.2147 153.855 25.748C154.361 26.2813 154.756 26.9 155.039 27.604C155.327 28.3027 155.471 29.052 155.471 29.852C155.471 30.476 155.38 31.0707 155.199 31.636C155.017 32.196 154.769 32.7133 154.455 33.188L155.727 34.46L154.351 35.836ZM149.951 33.708C150.26 33.708 150.564 33.6627 150.863 33.572C151.161 33.476 151.436 33.3427 151.687 33.172L150.671 32.156L152.047 30.772L152.999 31.732C153.169 31.4547 153.297 31.156 153.383 30.836C153.473 30.516 153.519 30.188 153.519 29.852C153.519 29.3187 153.425 28.82 153.239 28.356C153.052 27.892 152.793 27.484 152.463 27.132C152.137 26.7747 151.759 26.4973 151.327 26.3C150.9 26.0973 150.441 25.996 149.951 25.996C149.46 25.996 148.999 26.0973 148.567 26.3C148.135 26.5027 147.753 26.7827 147.423 27.14C147.097 27.492 146.841 27.9 146.655 28.364C146.473 28.828 146.383 29.324 146.383 29.852C146.383 30.38 146.476 30.8787 146.663 31.348C146.849 31.812 147.105 32.2227 147.431 32.58C147.761 32.932 148.14 33.2093 148.567 33.412C148.999 33.6093 149.46 33.708 149.951 33.708ZM157.388 35.5V24.3H161.684C162.292 24.3 162.841 24.452 163.332 24.756C163.823 25.06 164.212 25.468 164.5 25.98C164.788 26.4867 164.932 27.0493 164.932 27.668C164.932 28.1747 164.839 28.6413 164.652 29.068C164.471 29.4893 164.215 29.8547 163.884 30.164C163.559 30.4733 163.183 30.708 162.756 30.868L165.436 35.5H163.188L160.596 31.044H159.34V35.5H157.388ZM159.34 29.092H161.46C161.737 29.092 161.991 29.0227 162.22 28.884C162.449 28.7453 162.633 28.5587 162.772 28.324C162.911 28.0893 162.98 27.828 162.98 27.54C162.98 27.2467 162.911 26.9827 162.772 26.748C162.633 26.5133 162.449 26.3267 162.22 26.188C161.991 26.0493 161.737 25.98 161.46 25.98H159.34V29.092ZM176.519 35.708C175.762 35.708 175.05 35.5587 174.383 35.26C173.716 34.956 173.13 34.5373 172.623 34.004C172.122 33.4707 171.727 32.8547 171.439 32.156C171.156 31.452 171.015 30.7 171.015 29.9C171.015 29.0947 171.156 28.3427 171.439 27.644C171.727 26.94 172.122 26.324 172.623 25.796C173.13 25.2627 173.716 24.8467 174.383 24.548C175.05 24.244 175.762 24.092 176.519 24.092C177.426 24.092 178.26 24.3027 179.023 24.724C179.786 25.14 180.418 25.6973 180.919 26.396L179.175 27.332C178.86 26.9427 178.468 26.6307 177.999 26.396C177.535 26.1613 177.042 26.044 176.519 26.044C176.028 26.044 175.567 26.1453 175.135 26.348C174.703 26.5453 174.324 26.8227 173.999 27.18C173.674 27.532 173.42 27.9427 173.239 28.412C173.058 28.876 172.967 29.372 172.967 29.9C172.967 30.4333 173.058 30.932 173.239 31.396C173.426 31.86 173.682 32.2707 174.007 32.628C174.332 32.98 174.708 33.2573 175.135 33.46C175.567 33.6573 176.028 33.756 176.519 33.756C177.052 33.756 177.548 33.6387 178.007 33.404C178.471 33.164 178.86 32.8493 179.175 32.46L180.919 33.404C180.418 34.0973 179.786 34.6547 179.023 35.076C178.26 35.4973 177.426 35.708 176.519 35.708ZM185.727 35.708C184.991 35.708 184.319 35.5187 183.711 35.14C183.108 34.7613 182.626 34.2547 182.263 33.62C181.906 32.98 181.727 32.2733 181.727 31.5C181.727 30.9133 181.831 30.3667 182.039 29.86C182.247 29.348 182.532 28.9 182.895 28.516C183.263 28.1267 183.69 27.8227 184.175 27.604C184.66 27.3853 185.178 27.276 185.727 27.276C186.463 27.276 187.132 27.4653 187.735 27.844C188.343 28.2227 188.826 28.732 189.183 29.372C189.546 30.012 189.727 30.7213 189.727 31.5C189.727 32.0813 189.623 32.6253 189.415 33.132C189.207 33.6387 188.919 34.0867 188.551 34.476C188.188 34.86 187.764 35.1613 187.279 35.38C186.799 35.5987 186.282 35.708 185.727 35.708ZM185.727 33.756C186.116 33.756 186.466 33.652 186.775 33.444C187.084 33.236 187.327 32.9613 187.503 32.62C187.684 32.2787 187.775 31.9053 187.775 31.5C187.775 31.084 187.682 30.7053 187.495 30.364C187.314 30.0173 187.066 29.7427 186.751 29.54C186.442 29.332 186.1 29.228 185.727 29.228C185.343 29.228 184.996 29.332 184.687 29.54C184.378 29.748 184.132 30.0253 183.951 30.372C183.77 30.7187 183.679 31.0947 183.679 31.5C183.679 31.9213 183.772 32.3027 183.959 32.644C184.146 32.9853 184.394 33.2573 184.703 33.46C185.018 33.6573 185.359 33.756 185.727 33.756ZM197.252 23.5H199.204V35.5H197.252V34.5C196.996 34.8573 196.673 35.148 196.284 35.372C195.894 35.596 195.444 35.708 194.932 35.708C194.35 35.708 193.806 35.5987 193.3 35.38C192.793 35.1613 192.345 34.86 191.956 34.476C191.572 34.0867 191.27 33.6387 191.052 33.132C190.833 32.6253 190.724 32.0813 190.724 31.5C190.724 30.9187 190.833 30.3747 191.052 29.868C191.27 29.3613 191.572 28.916 191.956 28.532C192.345 28.1427 192.793 27.8387 193.3 27.62C193.806 27.4013 194.35 27.292 194.932 27.292C195.444 27.292 195.894 27.404 196.284 27.628C196.673 27.8467 196.996 28.1373 197.252 28.5V23.5ZM194.956 33.828C195.372 33.828 195.74 33.724 196.06 33.516C196.38 33.308 196.63 33.028 196.812 32.676C196.993 32.3187 197.084 31.9267 197.084 31.5C197.084 31.068 196.993 30.676 196.812 30.324C196.63 29.9667 196.377 29.684 196.052 29.476C195.732 29.268 195.366 29.164 194.956 29.164C194.545 29.164 194.169 29.2707 193.828 29.484C193.492 29.692 193.222 29.972 193.02 30.324C192.822 30.676 192.724 31.068 192.724 31.5C192.724 31.932 192.825 32.324 193.028 32.676C193.23 33.028 193.5 33.308 193.836 33.516C194.177 33.724 194.55 33.828 194.956 33.828ZM204.721 35.708C203.985 35.708 203.313 35.5187 202.705 35.14C202.102 34.7613 201.619 34.252 201.257 33.612C200.899 32.972 200.721 32.2653 200.721 31.492C200.721 30.9107 200.825 30.3667 201.033 29.86C201.241 29.348 201.526 28.9 201.889 28.516C202.257 28.1267 202.683 27.8227 203.169 27.604C203.654 27.3853 204.171 27.276 204.721 27.276C205.345 27.276 205.915 27.4093 206.433 27.676C206.955 27.9373 207.398 28.2973 207.761 28.756C208.123 29.2147 208.387 29.7373 208.553 30.324C208.718 30.9107 208.755 31.524 208.665 32.164H202.817C202.891 32.4627 203.014 32.732 203.185 32.972C203.355 33.2067 203.571 33.396 203.833 33.54C204.094 33.6787 204.39 33.7507 204.721 33.756C205.062 33.7613 205.371 33.6813 205.649 33.516C205.931 33.3453 206.166 33.116 206.353 32.828L208.345 33.292C208.019 34.0013 207.534 34.5827 206.889 35.036C206.243 35.484 205.521 35.708 204.721 35.708ZM202.753 30.7H206.689C206.63 30.38 206.505 30.092 206.313 29.836C206.126 29.5747 205.894 29.3667 205.617 29.212C205.339 29.0573 205.041 28.98 204.721 28.98C204.401 28.98 204.105 29.0573 203.833 29.212C203.561 29.3613 203.329 29.5667 203.137 29.828C202.95 30.084 202.822 30.3747 202.753 30.7Z" fill="white"/>
</g>
</g>
<defs>
<filter id="filter0_d_10_1566" x="83.6062" y="7.5" width="153.194" height="60.336" filterUnits="userSpaceOnUse" color-interpolation-filters="sRGB">
<feFlood flood-opacity="0" result="BackgroundImageFix"/>
<feColorMatrix in="SourceAlpha" type="matrix" values="0 0 0 0 0 0 0 0 0 0 0 0 0 0 0 0 0 0 127 0" result="hardAlpha"/>
<feOffset dx="4" dy="8"/>
<feGaussianBlur stdDeviation="12"/>
<feComposite in2="hardAlpha" operator="out"/>
<feColorMatrix type="matrix" values="0 0 0 0 1 0 0 0 0 0.301961 0 0 0 0 0.403922 0 0 0 0.25 0"/>
<feBlend mode="normal" in2="BackgroundImageFix" result="effect1_dropShadow_10_1566"/>
<feBlend mode="normal" in="SourceGraphic" in2="effect1_dropShadow_10_1566" result="shape"/>
</filter>
<clipPath id="clip0_10_1566">
<rect y="0.5" width="276" height="58" rx="16" fill="white"/>
</clipPath>
<clipPath id="clip1_10_1566">
<rect width="20" height="20" fill="white" transform="translate(66.5 19.5)"/>
</clipPath>
</defs>
</svg>
