<svg width="56" height="56" viewBox="0 0 56 56" fill="none" xmlns="http://www.w3.org/2000/svg">
<rect width="56" height="56" rx="28" fill="white" fill-opacity="0.2"/>
<path fill-rule="evenodd" clip-rule="evenodd" d="M33.7689 24.3818H38C38 20.9846 35.9644 19 32.5156 19H23.4844C20.0356 19 18 20.9846 18 24.3385V31.6615C18 35.0154 20.0356 37 23.4844 37H32.5156C35.9644 37 38 35.0154 38 31.6615V31.3495H33.7689C31.8052 31.3495 30.2133 29.7975 30.2133 27.883C30.2133 25.9685 31.8052 24.4165 33.7689 24.4165V24.3818ZM33.7689 25.8724H37.2533C37.6657 25.8724 38 26.1983 38 26.6004V29.131C37.9952 29.5311 37.6637 29.8543 37.2533 29.8589H33.8489C32.8548 29.872 31.9855 29.2084 31.76 28.2643C31.6471 27.6783 31.8056 27.0736 32.1931 26.6122C32.5805 26.1509 33.1573 25.8801 33.7689 25.8724ZM33.92 28.533H34.2489C34.6711 28.533 35.0133 28.1993 35.0133 27.7877C35.0133 27.3761 34.6711 27.0424 34.2489 27.0424H33.92C33.7181 27.0401 33.5236 27.1166 33.38 27.255C33.2364 27.3934 33.1555 27.5821 33.1556 27.779C33.1555 28.1921 33.4964 28.5282 33.92 28.533ZM22.7378 24.3818H28.3822C28.8044 24.3818 29.1467 24.0481 29.1467 23.6365C29.1467 23.2249 28.8044 22.8912 28.3822 22.8912H22.7378C22.319 22.8912 21.9782 23.2196 21.9733 23.6278C21.9733 24.0409 22.3142 24.3771 22.7378 24.3818Z" fill="white"/>
</svg>
