<svg width="56" height="56" viewBox="0 0 56 56" fill="none" xmlns="http://www.w3.org/2000/svg">
<rect width="56" height="56" rx="28" fill="white" fill-opacity="0.2"/>
<path d="M25.25 18C25.4489 18 25.6397 18.079 25.7803 18.2197C25.921 18.3603 26 18.5511 26 18.75V21.25C26 21.4489 25.921 21.6397 25.7803 21.7803C25.6397 21.921 25.4489 22 25.25 22C25.0511 22 24.8603 21.921 24.7197 21.7803C24.579 21.6397 24.5 21.4489 24.5 21.25V18.75C24.5 18.5511 24.579 18.3603 24.7197 18.2197C24.8603 18.079 25.0511 18 25.25 18ZM20.47 19.97C20.6106 19.8295 20.8012 19.7507 21 19.7507C21.1988 19.7507 21.3894 19.8295 21.53 19.97L23.28 21.72C23.3537 21.7887 23.4128 21.8715 23.4538 21.9635C23.4948 22.0555 23.5168 22.1548 23.5186 22.2555C23.5204 22.3562 23.5018 22.4562 23.4641 22.5496C23.4264 22.643 23.3703 22.7278 23.299 22.799C23.2278 22.8703 23.143 22.9264 23.0496 22.9641C22.9562 23.0018 22.8562 23.0204 22.7555 23.0186C22.6548 23.0168 22.5555 22.9948 22.4635 22.9538C22.3715 22.9128 22.2887 22.8537 22.22 22.78L20.47 21.03C20.3295 20.8894 20.2507 20.6988 20.2507 20.5C20.2507 20.3012 20.3295 20.1106 20.47 19.97ZM30.03 19.97C30.1705 20.1106 30.2493 20.3012 30.2493 20.5C30.2493 20.6988 30.1705 20.8894 30.03 21.03L28.28 22.78C28.2113 22.8537 28.1285 22.9128 28.0365 22.9538C27.9445 22.9948 27.8452 23.0168 27.7445 23.0186C27.6438 23.0204 27.5438 23.0018 27.4504 22.9641C27.357 22.9264 27.2722 22.8703 27.201 22.799C27.1297 22.7278 27.0736 22.643 27.0359 22.5496C26.9982 22.4562 26.9796 22.3562 26.9814 22.2555C26.9832 22.1548 27.0052 22.0555 27.0462 21.9635C27.0872 21.8715 27.1463 21.7887 27.22 21.72L28.97 19.97C29.1106 19.8295 29.3012 19.7507 29.5 19.7507C29.6988 19.7507 29.8894 19.8295 30.03 19.97ZM18.5 24.75C18.5 24.5511 18.579 24.3603 18.7197 24.2197C18.8603 24.079 19.0511 24 19.25 24H21.75C21.9489 24 22.1397 24.079 22.2803 24.2197C22.421 24.3603 22.5 24.5511 22.5 24.75C22.5 24.9489 22.421 25.1397 22.2803 25.2803C22.1397 25.421 21.9489 25.5 21.75 25.5H19.25C19.0511 25.5 18.8603 25.421 18.7197 25.2803C18.579 25.1397 18.5 24.9489 18.5 24.75ZM24.5 25.487C24.5 24.36 25.822 23.752 26.677 24.486L35.138 31.738C36.048 32.518 35.53 34.009 34.333 34.058L30.493 34.211C30.08 34.227 29.692 34.411 29.416 34.718L26.802 37.64C25.995 38.543 24.5 37.971 24.5 36.76V25.487Z" fill="#F8F8F8"/>
</svg>
