<svg width="56" height="56" viewBox="0 0 56 56" fill="none" xmlns="http://www.w3.org/2000/svg">
<rect width="56" height="56" rx="28" fill="white" fill-opacity="0.2"/>
<path fill-rule="evenodd" clip-rule="evenodd" d="M23.3304 18.0004H32.6694C36.0704 18.0004 37.9904 19.9294 38.0004 23.3304V32.6704C38.0004 36.0704 36.0704 38.0004 32.6694 38.0004H23.3304C19.9294 38.0004 18.0004 36.0704 18.0004 32.6704V23.3304C18.0004 19.9294 19.9294 18.0004 23.3304 18.0004ZM28.0494 33.8604C28.4804 33.8604 28.8394 33.5404 28.8794 33.1104V22.9204C28.9194 22.6104 28.7704 22.2994 28.5004 22.1304C28.2194 21.9604 27.8794 21.9604 27.6104 22.1304C27.3394 22.2994 27.1904 22.6104 27.2194 22.9204V33.1104C27.2704 33.5404 27.6294 33.8604 28.0494 33.8604ZM32.6504 33.8604C33.0704 33.8604 33.4294 33.5404 33.4804 33.1104V29.8304C33.5094 29.5094 33.3604 29.2104 33.0894 29.0404C32.8204 28.8704 32.4804 28.8704 32.2004 29.0404C31.9294 29.2104 31.7804 29.5094 31.8204 29.8304V33.1104C31.8604 33.5404 32.2194 33.8604 32.6504 33.8604ZM24.2194 33.1104C24.1794 33.5404 23.8204 33.8604 23.3894 33.8604C22.9594 33.8604 22.5994 33.5404 22.5604 33.1104V26.2004C22.5304 25.8894 22.6794 25.5804 22.9504 25.4104C23.2194 25.2404 23.5604 25.2404 23.8304 25.4104C24.0994 25.5804 24.2504 25.8894 24.2194 26.2004V33.1104Z" fill="white"/>
</svg>
