<svg width="56" height="56" viewBox="0 0 56 56" fill="none" xmlns="http://www.w3.org/2000/svg">
<rect width="56" height="56" rx="16" fill="#F14825" fill-opacity="0.08"/>
<path fill-rule="evenodd" clip-rule="evenodd" d="M23.5462 19.2779C23.7124 19.3979 23.9804 19.6734 23.9804 19.6734C25.0208 20.6486 26.5879 23.0739 27.0911 24.3044C27.1016 24.3044 27.4001 25.0361 27.4118 25.3841V25.4304C27.4118 25.9637 27.1133 26.4626 26.6335 26.7179C26.4357 26.8232 25.9546 26.9211 25.7224 26.9683C25.6456 26.984 25.596 26.9941 25.5931 26.997C24.9073 27.1016 23.8551 27.1704 22.7 27.1704C21.4876 27.1704 20.3898 27.1016 19.7145 26.9733C19.7028 26.9733 19.0861 26.8462 18.8801 26.7642C18.5828 26.6372 18.3312 26.4044 18.1709 26.1145C18.0562 25.8829 18 25.6383 18 25.3841C18.0105 25.1168 18.1826 24.618 18.2622 24.4208C18.7654 23.1203 20.412 20.6367 21.4185 19.6853C21.5231 19.5792 21.6421 19.4681 21.7248 19.3907C21.769 19.3494 21.8029 19.3178 21.8188 19.3017C22.0704 19.1045 22.3794 19 22.7117 19C23.0078 19 23.3051 19.0926 23.5462 19.2779ZM34.2286 26.1618C34.2286 26.6856 33.8108 27.1096 33.2947 27.1096C32.7786 27.1096 32.3608 26.6856 32.3608 26.1618L32.1033 21.583C32.1033 20.9154 32.637 20.375 33.2947 20.375C33.9524 20.375 34.4849 20.9154 34.4849 21.583L34.2286 26.1618ZM37.1199 29.2356C37.4172 29.3639 37.6688 29.5955 37.8291 29.8853C37.9438 30.1169 38 30.3616 38 30.617C37.9895 30.883 37.8174 31.3831 37.7367 31.5802C37.2346 32.8797 35.5868 35.3633 34.5815 36.3158C34.4787 36.4194 34.3619 36.5284 34.2793 36.6055L34.2792 36.6055C34.2331 36.6486 34.1976 36.6817 34.1812 36.6983C33.9284 36.8955 33.6206 37 33.2894 37C32.991 37 32.6937 36.9074 32.4538 36.7209C32.2876 36.6021 32.0196 36.3265 32.0196 36.3265C30.978 35.3526 29.4121 32.926 28.9089 31.6954C28.8972 31.6954 28.5999 30.965 28.5882 30.617V30.5706C28.5882 30.0361 28.8855 29.5373 29.3665 29.2819C29.5639 29.1777 30.0435 29.0796 30.2762 29.0319L30.2762 29.0319C30.3539 29.016 30.404 29.0058 30.4069 29.0028C31.0927 28.8983 32.1449 28.8294 33.3 28.8294C34.5124 28.8294 35.6102 28.8983 36.2855 29.0265C36.296 29.0265 36.9139 29.1536 37.1199 29.2356ZM22.7055 28.8905C22.1894 28.8905 21.7716 29.3146 21.7716 29.8383L21.5141 34.4171C21.5141 35.0846 22.0478 35.625 22.7055 35.625C23.3633 35.625 23.8958 35.0846 23.8958 34.4171L23.6395 29.8383C23.6395 29.3146 23.2216 28.8905 22.7055 28.8905Z" fill="#F14825"/>
</svg>
