<svg width="35" height="35" viewBox="0 0 35 35" fill="none" xmlns="http://www.w3.org/2000/svg">
<path fill-rule="evenodd" clip-rule="evenodd" d="M12.346 7.63619C12.0207 8.07555 12.058 8.70227 12.469 9.1C12.9065 9.5375 13.6211 9.5375 14.0586 9.1L16.3773 6.76666V12.8042H18.6232V6.76666L20.9419 9.1L21.0677 9.20847C21.5071 9.53388 22.1338 9.49772 22.5315 9.1C22.7502 8.88125 22.8669 8.58958 22.8669 8.29791C22.8669 8.02083 22.7502 7.72916 22.5315 7.51041L18.2878 3.25208L18.1555 3.1332C17.9669 2.99133 17.7336 2.91666 17.5003 2.91666C17.194 2.91666 16.9169 3.03333 16.6982 3.25208L12.4544 7.51041L12.346 7.63619ZM9.08707 12.8116C5.65524 12.9737 2.91663 15.8606 2.91663 19.3776V26.6183L2.92368 26.9283C3.08302 30.4207 5.92121 33.2211 9.40621 33.2211H25.6083L25.9128 33.2139C29.3447 33.0518 32.0833 30.1646 32.0833 26.6332V19.4072L32.0762 19.0961C31.9161 15.5908 29.0645 12.8045 25.5937 12.8045H18.6229V21.7071L18.6125 21.8636C18.5371 22.4257 18.0614 22.8496 17.5 22.8496C16.8729 22.8496 16.377 22.3451 16.377 21.7071V12.8045H9.39163L9.08707 12.8116Z" fill="#ED521E"/>
</svg>
